<?xml version="1.0" encoding="us-ascii" standalone="no"?><svg xmlns="http://www.w3.org/2000/svg" xmlns:xlink="http://www.w3.org/1999/xlink" contentStyleType="text/css" height="858px" preserveAspectRatio="none" style="width:1448px;height:858px;background:#FFFFFF;" version="1.1" viewBox="0 0 1448 858" width="1448px" zoomAndPan="magnify"><defs/><g><line style="stroke:#181818;stroke-width:1.0;stroke-dasharray:5.0,5.0;" x1="46" x2="46" y1="162.9766" y2="697.9453"/><line style="stroke:#181818;stroke-width:1.0;stroke-dasharray:5.0,5.0;" x1="158" x2="158" y1="162.9766" y2="697.9453"/><line style="stroke:#181818;stroke-width:1.0;stroke-dasharray:5.0,5.0;" x1="354" x2="354" y1="162.9766" y2="697.9453"/><line style="stroke:#181818;stroke-width:1.0;stroke-dasharray:5.0,5.0;" x1="614" x2="614" y1="162.9766" y2="697.9453"/><line style="stroke:#181818;stroke-width:1.0;stroke-dasharray:5.0,5.0;" x1="1020" x2="1020" y1="162.9766" y2="697.9453"/><line style="stroke:#181818;stroke-width:1.0;stroke-dasharray:5.0,5.0;" x1="1376" x2="1376" y1="162.9766" y2="697.9453"/><text fill="#000000" font-family="sans-serif" font-size="28" lengthAdjust="spacing" textLength="62" x="10" y="157.0703">User</text><ellipse cx="47" cy="27" fill="#E2E2F0" rx="16" ry="16" style="stroke:#181818;stroke-width:1.0;"/><path d="M47,43 L47,97 M21,59 L73,59 M47,97 L21,127 M47,97 L73,127 " fill="none" style="stroke:#181818;stroke-width:1.0;"/><text fill="#000000" font-family="sans-serif" font-size="28" lengthAdjust="spacing" textLength="62" x="10" y="723.0156">User</text><ellipse cx="47" cy="745.9219" fill="#E2E2F0" rx="16" ry="16" style="stroke:#181818;stroke-width:1.0;"/><path d="M47,761.9219 L47,815.9219 M21,777.9219 L73,777.9219 M47,815.9219 L21,845.9219 M47,815.9219 L73,845.9219 " fill="none" style="stroke:#181818;stroke-width:1.0;"/><text fill="#000000" font-family="sans-serif" font-size="28" lengthAdjust="spacing" textLength="96" x="104" y="157.0703">Escrow</text><ellipse cx="158" cy="98" fill="#800080" rx="24" ry="24" style="stroke:#181818;stroke-width:1.0;"/><line style="stroke:#181818;stroke-width:1.0;" x1="134" x2="182" y1="126" y2="126"/><text fill="#000000" font-family="sans-serif" font-size="28" lengthAdjust="spacing" textLength="96" x="104" y="723.0156">Escrow</text><ellipse cx="158" cy="760.9219" fill="#800080" rx="24" ry="24" style="stroke:#181818;stroke-width:1.0;"/><line style="stroke:#181818;stroke-width:1.0;" x1="134" x2="182" y1="788.9219" y2="788.9219"/><text fill="#000000" font-family="sans-serif" font-size="28" lengthAdjust="spacing" textLength="234" x="232" y="157.0703">Payment Registry</text><ellipse cx="355" cy="98" fill="#0000FF" rx="24" ry="24" style="stroke:#181818;stroke-width:1.0;"/><line style="stroke:#181818;stroke-width:1.0;" x1="331" x2="379" y1="126" y2="126"/><text fill="#000000" font-family="sans-serif" font-size="28" lengthAdjust="spacing" textLength="234" x="232" y="723.0156">Payment Registry</text><ellipse cx="355" cy="760.9219" fill="#0000FF" rx="24" ry="24" style="stroke:#181818;stroke-width:1.0;"/><line style="stroke:#181818;stroke-width:1.0;" x1="331" x2="379" y1="788.9219" y2="788.9219"/><text fill="#000000" font-family="sans-serif" font-size="28" lengthAdjust="spacing" textLength="222" x="498" y="157.0703">Order Processor</text><ellipse cx="615" cy="98" fill="#E2E2F0" rx="24" ry="24" style="stroke:#181818;stroke-width:1.0;"/><polygon fill="#181818" points="607,74,619,64,615,74,619,84,607,74" style="stroke:#181818;stroke-width:2.0;"/><text fill="#000000" font-family="sans-serif" font-size="28" lengthAdjust="spacing" textLength="222" x="498" y="723.0156">Order Processor</text><ellipse cx="615" cy="760.9219" fill="#E2E2F0" rx="24" ry="24" style="stroke:#181818;stroke-width:1.0;"/><polygon fill="#181818" points="607,736.9219,619,726.9219,615,736.9219,619,746.9219,607,736.9219" style="stroke:#181818;stroke-width:2.0;"/><text fill="#000000" font-family="sans-serif" font-size="28" lengthAdjust="spacing" textLength="524" x="752" y="157.0703">Order from Accepted Blocks Processor</text><ellipse cx="1020" cy="98" fill="#E2E2F0" rx="24" ry="24" style="stroke:#181818;stroke-width:1.0;"/><polygon fill="#181818" points="1012,74,1024,64,1020,74,1024,84,1012,74" style="stroke:#181818;stroke-width:2.0;"/><text fill="#000000" font-family="sans-serif" font-size="28" lengthAdjust="spacing" textLength="524" x="752" y="723.0156">Order from Accepted Blocks Processor</text><ellipse cx="1020" cy="760.9219" fill="#E2E2F0" rx="24" ry="24" style="stroke:#181818;stroke-width:1.0;"/><polygon fill="#181818" points="1012,736.9219,1024,726.9219,1020,736.9219,1024,746.9219,1012,736.9219" style="stroke:#181818;stroke-width:2.0;"/><text fill="#000000" font-family="sans-serif" font-size="28" lengthAdjust="spacing" textLength="126" x="1308" y="157.0703">Database</text><path d="M1341,58 C1341,38 1377,38 1377,38 C1377,38 1413,38 1413,58 L1413,110 C1413,130 1377,130 1377,130 C1377,130 1341,130 1341,110 L1341,58 " fill="#E2E2F0" style="stroke:#181818;stroke-width:3.0;"/><path d="M1341,58 C1341,78 1377,78 1377,78 C1377,78 1413,78 1413,58 " fill="none" style="stroke:#181818;stroke-width:3.0;"/><text fill="#000000" font-family="sans-serif" font-size="28" lengthAdjust="spacing" textLength="126" x="1308" y="723.0156">Database</text><path d="M1341,748.9219 C1341,728.9219 1377,728.9219 1377,728.9219 C1377,728.9219 1413,728.9219 1413,748.9219 L1413,800.9219 C1413,820.9219 1377,820.9219 1377,820.9219 C1377,820.9219 1341,820.9219 1341,800.9219 L1341,748.9219 " fill="#E2E2F0" style="stroke:#181818;stroke-width:3.0;"/><path d="M1341,748.9219 C1341,768.9219 1377,768.9219 1377,768.9219 C1377,768.9219 1413,768.9219 1413,748.9219 " fill="none" style="stroke:#181818;stroke-width:3.0;"/><polygon fill="#800080" points="180,217.5977,160,225.5977,180,233.5977,172,225.5977" style="stroke:#800080;stroke-width:2.0;"/><line style="stroke:#800080;stroke-width:2.0;" x1="168" x2="1018" y1="225.5977" y2="225.5977"/><text fill="#000000" font-family="sans-serif" font-size="26" lengthAdjust="spacing" textLength="416" x="192" y="216.1133">Get Orders from Accepted Blocks</text><polygon fill="#181818" points="1353,276.2188,1373,284.2188,1353,292.2188,1361,284.2188" style="stroke:#181818;stroke-width:2.0;"/><line style="stroke:#181818;stroke-width:2.0;" x1="1020" x2="1365" y1="284.2188" y2="284.2188"/><text fill="#000000" font-family="sans-serif" font-size="26" lengthAdjust="spacing" textLength="260" x="1034" y="274.7344">Store missing orders</text><polygon fill="#181818" points="637,334.8398,617,342.8398,637,350.8398,629,342.8398" style="stroke:#181818;stroke-width:2.0;"/><line style="stroke:#181818;stroke-width:2.0;" x1="625" x2="1018" y1="342.8398" y2="342.8398"/><text fill="#000000" font-family="sans-serif" font-size="26" lengthAdjust="spacing" textLength="282" x="649" y="333.3555">Process missing Order</text><line style="stroke:#181818;stroke-width:2.0;" x1="615" x2="699" y1="401.4609" y2="401.4609"/><line style="stroke:#181818;stroke-width:2.0;" x1="699" x2="699" y1="401.4609" y2="427.4609"/><line style="stroke:#181818;stroke-width:2.0;" x1="617" x2="699" y1="427.4609" y2="427.4609"/><polygon fill="#181818" points="637,419.4609,617,427.4609,637,435.4609,629,427.4609" style="stroke:#181818;stroke-width:2.0;"/><text fill="#000000" font-family="sans-serif" font-size="26" lengthAdjust="spacing" textLength="214" x="629" y="391.9766">Processing Order</text><polygon fill="#0000FF" points="377,478.082,357,486.082,377,494.082,369,486.082" style="stroke:#0000FF;stroke-width:2.0;"/><line style="stroke:#0000FF;stroke-width:2.0;" x1="365" x2="613" y1="486.082" y2="486.082"/><text fill="#000000" font-family="sans-serif" font-size="26" lengthAdjust="spacing" textLength="174" x="389" y="476.5977">Process Order</text><polygon fill="#0000FF" points="69,536.7031,49,544.7031,69,552.7031,61,544.7031" style="stroke:#0000FF;stroke-width:2.0;"/><line style="stroke:#0000FF;stroke-width:2.0;" x1="57" x2="353" y1="544.7031" y2="544.7031"/><text fill="#000000" font-family="sans-serif" font-size="26" lengthAdjust="spacing" textLength="140" x="81" y="535.2188">Send funds</text><polygon fill="#800080" points="180,595.3242,160,603.3242,180,611.3242,172,603.3242" style="stroke:#800080;stroke-width:2.0;"/><line style="stroke:#800080;stroke-width:2.0;" x1="168" x2="613" y1="603.3242" y2="603.3242"/><text fill="#000000" font-family="sans-serif" font-size="26" lengthAdjust="spacing" textLength="154" x="192" y="593.8398">Repay funds</text><polygon fill="#181818" points="1353,653.9453,1373,661.9453,1353,669.9453,1361,661.9453" style="stroke:#181818;stroke-width:2.0;"/><line style="stroke:#181818;stroke-width:2.0;" x1="615" x2="1365" y1="661.9453" y2="661.9453"/><text fill="#000000" font-family="sans-serif" font-size="26" lengthAdjust="spacing" textLength="318" x="629" y="652.4609">Store Order as completed</text><!--SRC=[RL3BZi8m3BpdAwnovWVsW0HQjCT6HJqX3Y4ngDeshknKg7-_9YtFvMPv7fePvnCnr88CJg0s65EJHjYAPxfSNrjOz0FtBTwWmhgnqnigF3UIU2okD5l1ujWEQ3p5nDH2KN9GKylaKOGuiqhxZf-OEbXxZtt209kM_A-yYTORQu9BxkW4uNi-ZD4tBFTpkCDAWtx13oR8llBHUDAixYQgs6bzXAuHQU8PA6jljD8gOSvofsHxK_uZl6BxF8QcqbqU7XEkhmTUQmIC0Kv3339BNofLsBln2VwGVbfIb_BKgL3xcZy0]--></g></svg>