<?xml version="1.0" encoding="us-ascii" standalone="no"?><svg xmlns="http://www.w3.org/2000/svg" xmlns:xlink="http://www.w3.org/1999/xlink" contentStyleType="text/css" height="918px" preserveAspectRatio="none" style="width:1686px;height:918px;background:#FFFFFF;" version="1.1" viewBox="0 0 1686 918" width="1686px" zoomAndPan="magnify"><defs/><g><line style="stroke:#181818;stroke-width:1.0;stroke-dasharray:5.0,5.0;" x1="46" x2="46" y1="162.9766" y2="756.5664"/><line style="stroke:#181818;stroke-width:1.0;stroke-dasharray:5.0,5.0;" x1="158" x2="158" y1="162.9766" y2="756.5664"/><line style="stroke:#181818;stroke-width:1.0;stroke-dasharray:5.0,5.0;" x1="505" x2="505" y1="162.9766" y2="756.5664"/><line style="stroke:#181818;stroke-width:1.0;stroke-dasharray:5.0,5.0;" x1="853" x2="853" y1="162.9766" y2="756.5664"/><line style="stroke:#181818;stroke-width:1.0;stroke-dasharray:5.0,5.0;" x1="1259" x2="1259" y1="162.9766" y2="756.5664"/><line style="stroke:#181818;stroke-width:1.0;stroke-dasharray:5.0,5.0;" x1="1615" x2="1615" y1="162.9766" y2="756.5664"/><text fill="#000000" font-family="sans-serif" font-size="28" lengthAdjust="spacing" textLength="62" x="10" y="157.0703">User</text><ellipse cx="47" cy="27" fill="#E2E2F0" rx="16" ry="16" style="stroke:#181818;stroke-width:1.0;"/><path d="M47,43 L47,97 M21,59 L73,59 M47,97 L21,127 M47,97 L73,127 " fill="none" style="stroke:#181818;stroke-width:1.0;"/><text fill="#000000" font-family="sans-serif" font-size="28" lengthAdjust="spacing" textLength="62" x="10" y="781.6367">User</text><ellipse cx="47" cy="804.543" fill="#E2E2F0" rx="16" ry="16" style="stroke:#181818;stroke-width:1.0;"/><path d="M47,820.543 L47,874.543 M21,836.543 L73,836.543 M47,874.543 L21,904.543 M47,874.543 L73,904.543 " fill="none" style="stroke:#181818;stroke-width:1.0;"/><text fill="#000000" font-family="sans-serif" font-size="28" lengthAdjust="spacing" textLength="96" x="104" y="157.0703">Escrow</text><ellipse cx="158" cy="98" fill="#800080" rx="24" ry="24" style="stroke:#181818;stroke-width:1.0;"/><line style="stroke:#181818;stroke-width:1.0;" x1="134" x2="182" y1="126" y2="126"/><text fill="#000000" font-family="sans-serif" font-size="28" lengthAdjust="spacing" textLength="96" x="104" y="781.6367">Escrow</text><ellipse cx="158" cy="819.543" fill="#800080" rx="24" ry="24" style="stroke:#181818;stroke-width:1.0;"/><line style="stroke:#181818;stroke-width:1.0;" x1="134" x2="182" y1="847.543" y2="847.543"/><text fill="#000000" font-family="sans-serif" font-size="28" lengthAdjust="spacing" textLength="234" x="383" y="157.0703">Payment Registry</text><ellipse cx="506" cy="98" fill="#0000FF" rx="24" ry="24" style="stroke:#181818;stroke-width:1.0;"/><line style="stroke:#181818;stroke-width:1.0;" x1="482" x2="530" y1="126" y2="126"/><text fill="#000000" font-family="sans-serif" font-size="28" lengthAdjust="spacing" textLength="234" x="383" y="781.6367">Payment Registry</text><ellipse cx="506" cy="819.543" fill="#0000FF" rx="24" ry="24" style="stroke:#181818;stroke-width:1.0;"/><line style="stroke:#181818;stroke-width:1.0;" x1="482" x2="530" y1="847.543" y2="847.543"/><text fill="#000000" font-family="sans-serif" font-size="28" lengthAdjust="spacing" textLength="222" x="737" y="157.0703">Order Processor</text><ellipse cx="854" cy="98" fill="#E2E2F0" rx="24" ry="24" style="stroke:#181818;stroke-width:1.0;"/><polygon fill="#181818" points="846,74,858,64,854,74,858,84,846,74" style="stroke:#181818;stroke-width:2.0;"/><text fill="#000000" font-family="sans-serif" font-size="28" lengthAdjust="spacing" textLength="222" x="737" y="781.6367">Order Processor</text><ellipse cx="854" cy="819.543" fill="#E2E2F0" rx="24" ry="24" style="stroke:#181818;stroke-width:1.0;"/><polygon fill="#181818" points="846,795.543,858,785.543,854,795.543,858,805.543,846,795.543" style="stroke:#181818;stroke-width:2.0;"/><text fill="#000000" font-family="sans-serif" font-size="28" lengthAdjust="spacing" textLength="524" x="991" y="157.0703">Order from Accepted Blocks Processor</text><ellipse cx="1259" cy="98" fill="#E2E2F0" rx="24" ry="24" style="stroke:#181818;stroke-width:1.0;"/><polygon fill="#181818" points="1251,74,1263,64,1259,74,1263,84,1251,74" style="stroke:#181818;stroke-width:2.0;"/><text fill="#000000" font-family="sans-serif" font-size="28" lengthAdjust="spacing" textLength="524" x="991" y="781.6367">Order from Accepted Blocks Processor</text><ellipse cx="1259" cy="819.543" fill="#E2E2F0" rx="24" ry="24" style="stroke:#181818;stroke-width:1.0;"/><polygon fill="#181818" points="1251,795.543,1263,785.543,1259,795.543,1263,805.543,1251,795.543" style="stroke:#181818;stroke-width:2.0;"/><text fill="#000000" font-family="sans-serif" font-size="28" lengthAdjust="spacing" textLength="126" x="1547" y="157.0703">Database</text><path d="M1580,58 C1580,38 1616,38 1616,38 C1616,38 1652,38 1652,58 L1652,110 C1652,130 1616,130 1616,130 C1616,130 1580,130 1580,110 L1580,58 " fill="#E2E2F0" style="stroke:#181818;stroke-width:3.0;"/><path d="M1580,58 C1580,78 1616,78 1616,78 C1616,78 1652,78 1652,58 " fill="none" style="stroke:#181818;stroke-width:3.0;"/><text fill="#000000" font-family="sans-serif" font-size="28" lengthAdjust="spacing" textLength="126" x="1547" y="781.6367">Database</text><path d="M1580,807.543 C1580,787.543 1616,787.543 1616,787.543 C1616,787.543 1652,787.543 1652,807.543 L1652,859.543 C1652,879.543 1616,879.543 1616,879.543 C1616,879.543 1580,879.543 1580,859.543 L1580,807.543 " fill="#E2E2F0" style="stroke:#181818;stroke-width:3.0;"/><path d="M1580,807.543 C1580,827.543 1616,827.543 1616,827.543 C1616,827.543 1652,827.543 1652,807.543 " fill="none" style="stroke:#181818;stroke-width:3.0;"/><polygon fill="#800080" points="180,217.5977,160,225.5977,180,233.5977,172,225.5977" style="stroke:#800080;stroke-width:2.0;"/><line style="stroke:#800080;stroke-width:2.0;" x1="168" x2="1257" y1="225.5977" y2="225.5977"/><text fill="#000000" font-family="sans-serif" font-size="26" lengthAdjust="spacing" textLength="430" x="192" y="216.1133">Gets Orders from Accepted Blocks</text><polygon fill="#181818" points="1592,276.2188,1612,284.2188,1592,292.2188,1600,284.2188" style="stroke:#181818;stroke-width:2.0;"/><line style="stroke:#181818;stroke-width:2.0;" x1="1259" x2="1604" y1="284.2188" y2="284.2188"/><text fill="#000000" font-family="sans-serif" font-size="26" lengthAdjust="spacing" textLength="274" x="1273" y="274.7344">Stores missing orders</text><polygon fill="#181818" points="876,334.8398,856,342.8398,876,350.8398,868,342.8398" style="stroke:#181818;stroke-width:2.0;"/><line style="stroke:#181818;stroke-width:2.0;" x1="864" x2="1257" y1="342.8398" y2="342.8398"/><text fill="#000000" font-family="sans-serif" font-size="26" lengthAdjust="spacing" textLength="310" x="888" y="333.3555">Processes missing Order</text><line style="stroke:#181818;stroke-width:2.0;" x1="854" x2="938" y1="401.4609" y2="401.4609"/><line style="stroke:#181818;stroke-width:2.0;" x1="938" x2="938" y1="401.4609" y2="427.4609"/><line style="stroke:#181818;stroke-width:2.0;" x1="856" x2="938" y1="427.4609" y2="427.4609"/><polygon fill="#181818" points="876,419.4609,856,427.4609,876,435.4609,868,427.4609" style="stroke:#181818;stroke-width:2.0;"/><text fill="#000000" font-family="sans-serif" font-size="26" lengthAdjust="spacing" textLength="202" x="868" y="391.9766">Processes Order</text><polygon fill="#0000FF" points="528,478.082,508,486.082,528,494.082,520,486.082" style="stroke:#0000FF;stroke-width:2.0;"/><line style="stroke:#0000FF;stroke-width:2.0;" x1="516" x2="852" y1="486.082" y2="486.082"/><text fill="#000000" font-family="sans-serif" font-size="26" lengthAdjust="spacing" textLength="198" x="540" y="476.5977">Transfers funds</text><polygon fill="#0000FF" points="69,536.7031,49,544.7031,69,552.7031,61,544.7031" style="stroke:#0000FF;stroke-width:2.0;"/><line style="stroke:#0000FF;stroke-width:2.0;" x1="57" x2="504" y1="544.7031" y2="544.7031"/><text fill="#000000" font-family="sans-serif" font-size="26" lengthAdjust="spacing" textLength="198" x="81" y="535.2188">Transfers funds</text><polygon fill="#0000FF" points="528,595.3242,508,603.3242,528,611.3242,520,603.3242" style="stroke:#0000FF;stroke-width:2.0;"/><line style="stroke:#0000FF;stroke-width:2.0;" x1="516" x2="852" y1="603.3242" y2="603.3242"/><text fill="#000000" font-family="sans-serif" font-size="26" lengthAdjust="spacing" textLength="300" x="540" y="593.8398">Sends proof of payment</text><polygon fill="#800080" points="180,653.9453,160,661.9453,180,669.9453,172,661.9453" style="stroke:#800080;stroke-width:2.0;"/><line style="stroke:#800080;stroke-width:2.0;" x1="168" x2="504" y1="661.9453" y2="661.9453"/><text fill="#000000" font-family="sans-serif" font-size="26" lengthAdjust="spacing" textLength="300" x="192" y="652.4609">Sends proof of payment</text><polygon fill="#181818" points="1592,712.5664,1612,720.5664,1592,728.5664,1600,720.5664" style="stroke:#181818;stroke-width:2.0;"/><line style="stroke:#181818;stroke-width:2.0;" x1="854" x2="1604" y1="720.5664" y2="720.5664"/><text fill="#000000" font-family="sans-serif" font-size="26" lengthAdjust="spacing" textLength="332" x="868" y="711.082">Stores Order as completed</text><!--SRC=[TL7BZi8m3BpdAwnotX_WW0G2xJ4Hq1FY458NLTl6bPrgrRzVzy6ooqFAmVACn-E93uaOSa46Bv0RZAbAFUmaC7qFhHqisexR6czGvdpVQ0rxl5QIkCy6cjl3ub9tQ0B5n5H3PhbGKSSKK8HuP5dtY9TC3Qn3m3PX0PkQmfSy3AqtpXG- -OiNXErS6ADj-3ZDviuhDRg4JqowP12MbyhJqEfNHKSEUZyAD9L85Qz0u_2DPvqoPZT_IEC6OrzHxj1fp4EDQJHBEBAFKew-kbY8qUQTaJ_Zpme7r3wqJ5I2ldRwXLdeNmflcFRDwTD7QD216XNHjCmF]--></g></svg>