<?xml version="1.0" encoding="us-ascii" standalone="no"?><svg xmlns="http://www.w3.org/2000/svg" xmlns:xlink="http://www.w3.org/1999/xlink" contentStyleType="text/css" height="1034px" preserveAspectRatio="none" style="width:1294px;height:1034px;background:#FFFFFF;" version="1.1" viewBox="0 0 1294 1034" width="1294px" zoomAndPan="magnify"><defs/><g><line style="stroke:#181818;stroke-width:1.0;stroke-dasharray:5.0,5.0;" x1="46" x2="46" y1="162.9766" y2="873.8086"/><line style="stroke:#181818;stroke-width:1.0;stroke-dasharray:5.0,5.0;" x1="211" x2="211" y1="162.9766" y2="873.8086"/><line style="stroke:#181818;stroke-width:1.0;stroke-dasharray:5.0,5.0;" x1="407" x2="407" y1="162.9766" y2="873.8086"/><line style="stroke:#181818;stroke-width:1.0;stroke-dasharray:5.0,5.0;" x1="667" x2="667" y1="162.9766" y2="873.8086"/><line style="stroke:#181818;stroke-width:1.0;stroke-dasharray:5.0,5.0;" x1="967" x2="967" y1="162.9766" y2="873.8086"/><line style="stroke:#181818;stroke-width:1.0;stroke-dasharray:5.0,5.0;" x1="1222" x2="1222" y1="162.9766" y2="873.8086"/><text fill="#000000" font-family="sans-serif" font-size="28" lengthAdjust="spacing" textLength="62" x="10" y="157.0703">User</text><ellipse cx="47" cy="27" fill="#E2E2F0" rx="16" ry="16" style="stroke:#181818;stroke-width:1.0;"/><path d="M47,43 L47,97 M21,59 L73,59 M47,97 L21,127 M47,97 L73,127 " fill="none" style="stroke:#181818;stroke-width:1.0;"/><text fill="#000000" font-family="sans-serif" font-size="28" lengthAdjust="spacing" textLength="62" x="10" y="898.8789">User</text><ellipse cx="47" cy="921.7852" fill="#E2E2F0" rx="16" ry="16" style="stroke:#181818;stroke-width:1.0;"/><path d="M47,937.7852 L47,991.7852 M21,953.7852 L73,953.7852 M47,991.7852 L21,1021.7852 M47,991.7852 L73,1021.7852 " fill="none" style="stroke:#181818;stroke-width:1.0;"/><text fill="#000000" font-family="sans-serif" font-size="28" lengthAdjust="spacing" textLength="96" x="157" y="157.0703">Escrow</text><ellipse cx="211" cy="98" fill="#800080" rx="24" ry="24" style="stroke:#181818;stroke-width:1.0;"/><line style="stroke:#181818;stroke-width:1.0;" x1="187" x2="235" y1="126" y2="126"/><text fill="#000000" font-family="sans-serif" font-size="28" lengthAdjust="spacing" textLength="96" x="157" y="898.8789">Escrow</text><ellipse cx="211" cy="936.7852" fill="#800080" rx="24" ry="24" style="stroke:#181818;stroke-width:1.0;"/><line style="stroke:#181818;stroke-width:1.0;" x1="187" x2="235" y1="964.7852" y2="964.7852"/><text fill="#000000" font-family="sans-serif" font-size="28" lengthAdjust="spacing" textLength="234" x="285" y="157.0703">Payment Registry</text><ellipse cx="408" cy="98" fill="#0000FF" rx="24" ry="24" style="stroke:#181818;stroke-width:1.0;"/><line style="stroke:#181818;stroke-width:1.0;" x1="384" x2="432" y1="126" y2="126"/><text fill="#000000" font-family="sans-serif" font-size="28" lengthAdjust="spacing" textLength="234" x="285" y="898.8789">Payment Registry</text><ellipse cx="408" cy="936.7852" fill="#0000FF" rx="24" ry="24" style="stroke:#181818;stroke-width:1.0;"/><line style="stroke:#181818;stroke-width:1.0;" x1="384" x2="432" y1="964.7852" y2="964.7852"/><text fill="#000000" font-family="sans-serif" font-size="28" lengthAdjust="spacing" textLength="222" x="551" y="157.0703">Order Processor</text><ellipse cx="668" cy="98" fill="#E2E2F0" rx="24" ry="24" style="stroke:#181818;stroke-width:1.0;"/><polygon fill="#181818" points="660,74,672,64,668,74,672,84,660,74" style="stroke:#181818;stroke-width:2.0;"/><text fill="#000000" font-family="sans-serif" font-size="28" lengthAdjust="spacing" textLength="222" x="551" y="898.8789">Order Processor</text><ellipse cx="668" cy="936.7852" fill="#E2E2F0" rx="24" ry="24" style="stroke:#181818;stroke-width:1.0;"/><polygon fill="#181818" points="660,912.7852,672,902.7852,668,912.7852,672,922.7852,660,912.7852" style="stroke:#181818;stroke-width:2.0;"/><text fill="#000000" font-family="sans-serif" font-size="28" lengthAdjust="spacing" textLength="312" x="805" y="157.0703">Failed Order Processor</text><ellipse cx="967" cy="98" fill="#E2E2F0" rx="24" ry="24" style="stroke:#181818;stroke-width:1.0;"/><polygon fill="#181818" points="959,74,971,64,967,74,971,84,959,74" style="stroke:#181818;stroke-width:2.0;"/><text fill="#000000" font-family="sans-serif" font-size="28" lengthAdjust="spacing" textLength="312" x="805" y="898.8789">Failed Order Processor</text><ellipse cx="967" cy="936.7852" fill="#E2E2F0" rx="24" ry="24" style="stroke:#181818;stroke-width:1.0;"/><polygon fill="#181818" points="959,912.7852,971,902.7852,967,912.7852,971,922.7852,959,912.7852" style="stroke:#181818;stroke-width:2.0;"/><text fill="#000000" font-family="sans-serif" font-size="28" lengthAdjust="spacing" textLength="126" x="1154" y="157.0703">Database</text><path d="M1187,58 C1187,38 1223,38 1223,38 C1223,38 1259,38 1259,58 L1259,110 C1259,130 1223,130 1223,130 C1223,130 1187,130 1187,110 L1187,58 " fill="#E2E2F0" style="stroke:#181818;stroke-width:3.0;"/><path d="M1187,58 C1187,78 1223,78 1223,78 C1223,78 1259,78 1259,58 " fill="none" style="stroke:#181818;stroke-width:3.0;"/><text fill="#000000" font-family="sans-serif" font-size="28" lengthAdjust="spacing" textLength="126" x="1154" y="898.8789">Database</text><path d="M1187,924.7852 C1187,904.7852 1223,904.7852 1223,904.7852 C1223,904.7852 1259,904.7852 1259,924.7852 L1259,976.7852 C1259,996.7852 1223,996.7852 1223,996.7852 C1223,996.7852 1187,996.7852 1187,976.7852 L1187,924.7852 " fill="#E2E2F0" style="stroke:#181818;stroke-width:3.0;"/><path d="M1187,924.7852 C1187,944.7852 1223,944.7852 1223,944.7852 C1223,944.7852 1259,944.7852 1259,924.7852 " fill="none" style="stroke:#181818;stroke-width:3.0;"/><polygon fill="#800080" points="187,217.5977,207,225.5977,187,233.5977,195,225.5977" style="stroke:#800080;stroke-width:2.0;"/><line style="stroke:#800080;stroke-width:2.0;" x1="47" x2="199" y1="225.5977" y2="225.5977"/><text fill="#000000" font-family="sans-serif" font-size="26" lengthAdjust="spacing" textLength="116" x="61" y="216.1133">Set Order</text><polygon fill="#800080" points="233,276.2188,213,284.2188,233,292.2188,225,284.2188" style="stroke:#800080;stroke-width:2.0;"/><line style="stroke:#800080;stroke-width:2.0;" x1="221" x2="666" y1="284.2188" y2="284.2188"/><text fill="#000000" font-family="sans-serif" font-size="26" lengthAdjust="spacing" textLength="120" x="245" y="274.7344">Get Order</text><polygon fill="#0000FF" points="430,334.8398,410,342.8398,430,350.8398,422,342.8398" style="stroke:#0000FF;stroke-width:2.0;"/><line style="stroke:#0000FF;stroke-width:2.0;" x1="418" x2="666" y1="342.8398" y2="342.8398"/><text fill="#000000" font-family="sans-serif" font-size="26" lengthAdjust="spacing" textLength="174" x="442" y="333.3555">Process Order</text><line style="stroke:#181818;stroke-width:2.0;" x1="668" x2="752" y1="401.4609" y2="401.4609"/><line style="stroke:#181818;stroke-width:2.0;" x1="752" x2="752" y1="401.4609" y2="427.4609"/><line style="stroke:#181818;stroke-width:2.0;" x1="694" x2="752" y1="427.4609" y2="427.4609"/><line style="stroke:#181818;stroke-width:4.0;" x1="680" x2="700" y1="417.4609" y2="437.4609"/><line style="stroke:#181818;stroke-width:4.0;" x1="680" x2="700" y1="437.4609" y2="417.4609"/><text fill="#000000" font-family="sans-serif" font-size="26" lengthAdjust="spacing" textLength="214" x="682" y="391.9766">Processing Order</text><polygon fill="#181818" points="1199,478.082,1219,486.082,1199,494.082,1207,486.082" style="stroke:#181818;stroke-width:2.0;"/><line style="stroke:#181818;stroke-width:2.0;" x1="668" x2="1211" y1="486.082" y2="486.082"/><text fill="#000000" font-family="sans-serif" font-size="26" lengthAdjust="spacing" textLength="412" x="682" y="476.5977">Store Order as failed due to error</text><polygon fill="#181818" points="1199,536.7031,1219,544.7031,1199,552.7031,1207,544.7031" style="stroke:#181818;stroke-width:2.0;"/><line style="stroke:#181818;stroke-width:2.0;" x1="967" x2="1211" y1="544.7031" y2="544.7031"/><text fill="#000000" font-family="sans-serif" font-size="26" lengthAdjust="spacing" textLength="208" x="981" y="535.2188">Get failed orders</text><polygon fill="#181818" points="690,595.3242,670,603.3242,690,611.3242,682,603.3242" style="stroke:#181818;stroke-width:2.0;"/><line style="stroke:#181818;stroke-width:2.0;" x1="678" x2="965" y1="603.3242" y2="603.3242"/><text fill="#000000" font-family="sans-serif" font-size="26" lengthAdjust="spacing" textLength="248" x="702" y="593.8398">Process failed order</text><polygon fill="#0000FF" points="430,653.9453,410,661.9453,430,669.9453,422,661.9453" style="stroke:#0000FF;stroke-width:2.0;"/><line style="stroke:#0000FF;stroke-width:2.0;" x1="418" x2="666" y1="661.9453" y2="661.9453"/><text fill="#000000" font-family="sans-serif" font-size="26" lengthAdjust="spacing" textLength="174" x="442" y="652.4609">Process Order</text><polygon fill="#0000FF" points="69,712.5664,49,720.5664,69,728.5664,61,720.5664" style="stroke:#0000FF;stroke-width:2.0;"/><line style="stroke:#0000FF;stroke-width:2.0;" x1="57" x2="406" y1="720.5664" y2="720.5664"/><text fill="#000000" font-family="sans-serif" font-size="26" lengthAdjust="spacing" textLength="140" x="81" y="711.082">Send funds</text><polygon fill="#800080" points="233,771.1875,213,779.1875,233,787.1875,225,779.1875" style="stroke:#800080;stroke-width:2.0;"/><line style="stroke:#800080;stroke-width:2.0;" x1="221" x2="666" y1="779.1875" y2="779.1875"/><text fill="#000000" font-family="sans-serif" font-size="26" lengthAdjust="spacing" textLength="154" x="245" y="769.7031">Repay funds</text><polygon fill="#181818" points="1199,829.8086,1219,837.8086,1199,845.8086,1207,837.8086" style="stroke:#181818;stroke-width:2.0;"/><line style="stroke:#181818;stroke-width:2.0;" x1="668" x2="1211" y1="837.8086" y2="837.8086"/><text fill="#000000" font-family="sans-serif" font-size="26" lengthAdjust="spacing" textLength="318" x="682" y="828.3242">Store Order as completed</text><!--SRC=[XP0nRiCm34LtdO9mvbuWGwR67Isuy1HaK2GcCE281aMZyUrBDNRjDa6x4NgVv1ET5s9e4ZAu18t1AAsCi4-UwIC_xM7J3zntEAF2kl6gDTHuQPFmMEIOhM5pwWOqdg8mTL1K77IePVAO4l5Ngh8BBrtROO1diL9pmOaxkOJmEXN6DF1oc6IEEnNRmZlAVO2fx0Dy-mMpdY8rtSxxLdntKxk5jF6oXjyMUQbU32TlbJtV_n461250Pc9JFZHbcIb9kJFDcVNI7ub_hVLfuKq-HWnm7c98pwvHO-_65VxhIvwksYWOp2S0]--></g></svg>