<?xml version="1.0" encoding="us-ascii" standalone="no"?><svg xmlns="http://www.w3.org/2000/svg" xmlns:xlink="http://www.w3.org/1999/xlink" contentStyleType="text/css" height="1034px" preserveAspectRatio="none" style="width:1586px;height:1034px;background:#FFFFFF;" version="1.1" viewBox="0 0 1586 1034" width="1586px" zoomAndPan="magnify"><defs/><g><line style="stroke:#181818;stroke-width:1.0;stroke-dasharray:5.0,5.0;" x1="46" x2="46" y1="162.9766" y2="873.8086"/><line style="stroke:#181818;stroke-width:1.0;stroke-dasharray:5.0,5.0;" x1="225" x2="225" y1="162.9766" y2="873.8086"/><line style="stroke:#181818;stroke-width:1.0;stroke-dasharray:5.0,5.0;" x1="572" x2="572" y1="162.9766" y2="873.8086"/><line style="stroke:#181818;stroke-width:1.0;stroke-dasharray:5.0,5.0;" x1="920" x2="920" y1="162.9766" y2="873.8086"/><line style="stroke:#181818;stroke-width:1.0;stroke-dasharray:5.0,5.0;" x1="1245" x2="1245" y1="162.9766" y2="873.8086"/><line style="stroke:#181818;stroke-width:1.0;stroke-dasharray:5.0,5.0;" x1="1514" x2="1514" y1="162.9766" y2="873.8086"/><text fill="#000000" font-family="sans-serif" font-size="28" lengthAdjust="spacing" textLength="62" x="10" y="157.0703">User</text><ellipse cx="47" cy="27" fill="#E2E2F0" rx="16" ry="16" style="stroke:#181818;stroke-width:1.0;"/><path d="M47,43 L47,97 M21,59 L73,59 M47,97 L21,127 M47,97 L73,127 " fill="none" style="stroke:#181818;stroke-width:1.0;"/><text fill="#000000" font-family="sans-serif" font-size="28" lengthAdjust="spacing" textLength="62" x="10" y="898.8789">User</text><ellipse cx="47" cy="921.7852" fill="#E2E2F0" rx="16" ry="16" style="stroke:#181818;stroke-width:1.0;"/><path d="M47,937.7852 L47,991.7852 M21,953.7852 L73,953.7852 M47,991.7852 L21,1021.7852 M47,991.7852 L73,1021.7852 " fill="none" style="stroke:#181818;stroke-width:1.0;"/><text fill="#000000" font-family="sans-serif" font-size="28" lengthAdjust="spacing" textLength="96" x="171" y="157.0703">Escrow</text><ellipse cx="225" cy="98" fill="#800080" rx="24" ry="24" style="stroke:#181818;stroke-width:1.0;"/><line style="stroke:#181818;stroke-width:1.0;" x1="201" x2="249" y1="126" y2="126"/><text fill="#000000" font-family="sans-serif" font-size="28" lengthAdjust="spacing" textLength="96" x="171" y="898.8789">Escrow</text><ellipse cx="225" cy="936.7852" fill="#800080" rx="24" ry="24" style="stroke:#181818;stroke-width:1.0;"/><line style="stroke:#181818;stroke-width:1.0;" x1="201" x2="249" y1="964.7852" y2="964.7852"/><text fill="#000000" font-family="sans-serif" font-size="28" lengthAdjust="spacing" textLength="234" x="450" y="157.0703">Payment Registry</text><ellipse cx="573" cy="98" fill="#0000FF" rx="24" ry="24" style="stroke:#181818;stroke-width:1.0;"/><line style="stroke:#181818;stroke-width:1.0;" x1="549" x2="597" y1="126" y2="126"/><text fill="#000000" font-family="sans-serif" font-size="28" lengthAdjust="spacing" textLength="234" x="450" y="898.8789">Payment Registry</text><ellipse cx="573" cy="936.7852" fill="#0000FF" rx="24" ry="24" style="stroke:#181818;stroke-width:1.0;"/><line style="stroke:#181818;stroke-width:1.0;" x1="549" x2="597" y1="964.7852" y2="964.7852"/><text fill="#000000" font-family="sans-serif" font-size="28" lengthAdjust="spacing" textLength="222" x="804" y="157.0703">Order Processor</text><ellipse cx="921" cy="98" fill="#E2E2F0" rx="24" ry="24" style="stroke:#181818;stroke-width:1.0;"/><polygon fill="#181818" points="913,74,925,64,921,74,925,84,913,74" style="stroke:#181818;stroke-width:2.0;"/><text fill="#000000" font-family="sans-serif" font-size="28" lengthAdjust="spacing" textLength="222" x="804" y="898.8789">Order Processor</text><ellipse cx="921" cy="936.7852" fill="#E2E2F0" rx="24" ry="24" style="stroke:#181818;stroke-width:1.0;"/><polygon fill="#181818" points="913,912.7852,925,902.7852,921,912.7852,925,922.7852,913,912.7852" style="stroke:#181818;stroke-width:2.0;"/><text fill="#000000" font-family="sans-serif" font-size="28" lengthAdjust="spacing" textLength="312" x="1083" y="157.0703">Failed Order Processor</text><ellipse cx="1245" cy="98" fill="#E2E2F0" rx="24" ry="24" style="stroke:#181818;stroke-width:1.0;"/><polygon fill="#181818" points="1237,74,1249,64,1245,74,1249,84,1237,74" style="stroke:#181818;stroke-width:2.0;"/><text fill="#000000" font-family="sans-serif" font-size="28" lengthAdjust="spacing" textLength="312" x="1083" y="898.8789">Failed Order Processor</text><ellipse cx="1245" cy="936.7852" fill="#E2E2F0" rx="24" ry="24" style="stroke:#181818;stroke-width:1.0;"/><polygon fill="#181818" points="1237,912.7852,1249,902.7852,1245,912.7852,1249,922.7852,1237,912.7852" style="stroke:#181818;stroke-width:2.0;"/><text fill="#000000" font-family="sans-serif" font-size="28" lengthAdjust="spacing" textLength="126" x="1446" y="157.0703">Database</text><path d="M1479,58 C1479,38 1515,38 1515,38 C1515,38 1551,38 1551,58 L1551,110 C1551,130 1515,130 1515,130 C1515,130 1479,130 1479,110 L1479,58 " fill="#E2E2F0" style="stroke:#181818;stroke-width:3.0;"/><path d="M1479,58 C1479,78 1515,78 1515,78 C1515,78 1551,78 1551,58 " fill="none" style="stroke:#181818;stroke-width:3.0;"/><text fill="#000000" font-family="sans-serif" font-size="28" lengthAdjust="spacing" textLength="126" x="1446" y="898.8789">Database</text><path d="M1479,924.7852 C1479,904.7852 1515,904.7852 1515,904.7852 C1515,904.7852 1551,904.7852 1551,924.7852 L1551,976.7852 C1551,996.7852 1515,996.7852 1515,996.7852 C1515,996.7852 1479,996.7852 1479,976.7852 L1479,924.7852 " fill="#E2E2F0" style="stroke:#181818;stroke-width:3.0;"/><path d="M1479,924.7852 C1479,944.7852 1515,944.7852 1515,944.7852 C1515,944.7852 1551,944.7852 1551,924.7852 " fill="none" style="stroke:#181818;stroke-width:3.0;"/><polygon fill="#800080" points="201,217.5977,221,225.5977,201,233.5977,209,225.5977" style="stroke:#800080;stroke-width:2.0;"/><line style="stroke:#800080;stroke-width:2.0;" x1="47" x2="213" y1="225.5977" y2="225.5977"/><text fill="#000000" font-family="sans-serif" font-size="26" lengthAdjust="spacing" textLength="130" x="61" y="216.1133">Sets Order</text><polygon fill="#800080" points="247,276.2188,227,284.2188,247,292.2188,239,284.2188" style="stroke:#800080;stroke-width:2.0;"/><line style="stroke:#800080;stroke-width:2.0;" x1="235" x2="919" y1="284.2188" y2="284.2188"/><text fill="#000000" font-family="sans-serif" font-size="26" lengthAdjust="spacing" textLength="134" x="259" y="274.7344">Gets Order</text><line style="stroke:#181818;stroke-width:2.0;" x1="921" x2="1005" y1="342.8398" y2="342.8398"/><line style="stroke:#181818;stroke-width:2.0;" x1="1005" x2="1005" y1="342.8398" y2="368.8398"/><line style="stroke:#181818;stroke-width:2.0;" x1="947" x2="1005" y1="368.8398" y2="368.8398"/><line style="stroke:#181818;stroke-width:4.0;" x1="933" x2="953" y1="358.8398" y2="378.8398"/><line style="stroke:#181818;stroke-width:4.0;" x1="933" x2="953" y1="378.8398" y2="358.8398"/><text fill="#000000" font-family="sans-serif" font-size="26" lengthAdjust="spacing" textLength="202" x="935" y="333.3555">Processes Order</text><polygon fill="#181818" points="1491,419.4609,1511,427.4609,1491,435.4609,1499,427.4609" style="stroke:#181818;stroke-width:2.0;"/><line style="stroke:#181818;stroke-width:2.0;" x1="921" x2="1503" y1="427.4609" y2="427.4609"/><text fill="#000000" font-family="sans-serif" font-size="26" lengthAdjust="spacing" textLength="464" x="935" y="417.9766">Stores Order as failed due to an error</text><polygon fill="#181818" points="1491,478.082,1511,486.082,1491,494.082,1499,486.082" style="stroke:#181818;stroke-width:2.0;"/><line style="stroke:#181818;stroke-width:2.0;" x1="1245" x2="1503" y1="486.082" y2="486.082"/><text fill="#000000" font-family="sans-serif" font-size="26" lengthAdjust="spacing" textLength="222" x="1259" y="476.5977">Gets failed orders</text><polygon fill="#181818" points="943,536.7031,923,544.7031,943,552.7031,935,544.7031" style="stroke:#181818;stroke-width:2.0;"/><line style="stroke:#181818;stroke-width:2.0;" x1="931" x2="1243" y1="544.7031" y2="544.7031"/><text fill="#000000" font-family="sans-serif" font-size="26" lengthAdjust="spacing" textLength="276" x="955" y="535.2188">Processes failed order</text><polygon fill="#0000FF" points="595,595.3242,575,603.3242,595,611.3242,587,603.3242" style="stroke:#0000FF;stroke-width:2.0;"/><line style="stroke:#0000FF;stroke-width:2.0;" x1="583" x2="919" y1="603.3242" y2="603.3242"/><text fill="#000000" font-family="sans-serif" font-size="26" lengthAdjust="spacing" textLength="198" x="607" y="593.8398">Transfers funds</text><polygon fill="#0000FF" points="69,653.9453,49,661.9453,69,669.9453,61,661.9453" style="stroke:#0000FF;stroke-width:2.0;"/><line style="stroke:#0000FF;stroke-width:2.0;" x1="57" x2="571" y1="661.9453" y2="661.9453"/><text fill="#000000" font-family="sans-serif" font-size="26" lengthAdjust="spacing" textLength="198" x="81" y="652.4609">Transfers funds</text><polygon fill="#0000FF" points="595,712.5664,575,720.5664,595,728.5664,587,720.5664" style="stroke:#0000FF;stroke-width:2.0;"/><line style="stroke:#0000FF;stroke-width:2.0;" x1="583" x2="919" y1="720.5664" y2="720.5664"/><text fill="#000000" font-family="sans-serif" font-size="26" lengthAdjust="spacing" textLength="300" x="607" y="711.082">Sends proof of payment</text><polygon fill="#800080" points="247,771.1875,227,779.1875,247,787.1875,239,779.1875" style="stroke:#800080;stroke-width:2.0;"/><line style="stroke:#800080;stroke-width:2.0;" x1="235" x2="571" y1="779.1875" y2="779.1875"/><text fill="#000000" font-family="sans-serif" font-size="26" lengthAdjust="spacing" textLength="300" x="259" y="769.7031">Sends proof of payment</text><polygon fill="#181818" points="1491,829.8086,1511,837.8086,1491,845.8086,1499,837.8086" style="stroke:#181818;stroke-width:2.0;"/><line style="stroke:#181818;stroke-width:2.0;" x1="921" x2="1503" y1="837.8086" y2="837.8086"/><text fill="#000000" font-family="sans-serif" font-size="26" lengthAdjust="spacing" textLength="332" x="935" y="828.3242">Stores Order as completed</text><!--SRC=[XL4nRiCm3Dpr2iAP-u4CcHftj934Kz51aUZ2W6CQf8pMloyLoqqJ1oYWWU0TxmudvoCnr88CJg0ssCSsJh0Np_ILLdlO32CF7IvGOTrqqHaE-DbAvAb8D7k0pRaRqNZg8rC7HSL1HIsJHn7YAwkoDxnqROS1dj5AvGKNtTa9mciUZAdXvJs7-TXfi2qSCSgiO2gxGj_kqTst-kiwU-4TzckJLBMI1KrncZbf614YWUi1cObDkJgy6cOsfMjPI0_6VpavUIfFSskFMpYnwwNHSsZ6FeZHvOrHh_6rmX5r3mCJDQ1lcByi2prK-9JvRocUBYeICPWV]--></g></svg>