<?xml version="1.0" encoding="us-ascii" standalone="no"?><svg xmlns="http://www.w3.org/2000/svg" xmlns:xlink="http://www.w3.org/1999/xlink" contentStyleType="text/css" height="958px" preserveAspectRatio="none" style="width:1612px;height:958px;background:#FFFFFF;" version="1.1" viewBox="0 0 1612 958" width="1612px" zoomAndPan="magnify"><defs/><g><rect fill="#EBC7FF" height="921.0508" style="stroke:#181818;stroke-width:1.0;" width="132" x="163" y="12"/><text fill="#000000" font-family="sans-serif" font-size="26" font-weight="bold" lengthAdjust="spacing" textLength="112" x="169" y="37.1367">Starknet</text><rect fill="#99E6FF" height="921.0508" style="stroke:#181818;stroke-width:1.0;" width="262" x="450" y="12"/><text fill="#000000" font-family="sans-serif" font-size="26" font-weight="bold" lengthAdjust="spacing" textLength="132" x="511" y="37.1367">Ethereum</text><rect fill="#DDDDDD" height="921.0508" style="stroke:#181818;stroke-width:1.0;" width="796" x="804" y="12"/><text fill="#000000" font-family="sans-serif" font-size="26" font-weight="bold" lengthAdjust="spacing" textLength="186" x="1109" y="37.1367">Market Maker</text><line style="stroke:#181818;stroke-width:1.0;stroke-dasharray:5.0,5.0;" x1="46" x2="46" y1="175.5977" y2="945.0508"/><line style="stroke:#181818;stroke-width:1.0;stroke-dasharray:5.0,5.0;" x1="229" x2="229" y1="175.5977" y2="945.0508"/><line style="stroke:#181818;stroke-width:1.0;stroke-dasharray:5.0,5.0;" x1="580" x2="580" y1="175.5977" y2="945.0508"/><line style="stroke:#181818;stroke-width:1.0;stroke-dasharray:5.0,5.0;" x1="928" x2="928" y1="175.5977" y2="945.0508"/><line style="stroke:#181818;stroke-width:1.0;stroke-dasharray:5.0,5.0;" x1="1253" x2="1253" y1="175.5977" y2="945.0508"/><line style="stroke:#181818;stroke-width:1.0;stroke-dasharray:5.0,5.0;" x1="1522" x2="1522" y1="175.5977" y2="945.0508"/><text fill="#000000" font-family="sans-serif" font-size="28" lengthAdjust="spacing" textLength="62" x="10" y="169.6914">User</text><ellipse cx="47" cy="39.6211" fill="#E2E2F0" rx="16" ry="16" style="stroke:#181818;stroke-width:1.0;"/><path d="M47,55.6211 L47,109.6211 M21,71.6211 L73,71.6211 M47,109.6211 L21,139.6211 M47,109.6211 L73,139.6211 " fill="none" style="stroke:#181818;stroke-width:1.0;"/><text fill="#000000" font-family="sans-serif" font-size="28" lengthAdjust="spacing" textLength="96" x="175" y="169.6914">Escrow</text><ellipse cx="229" cy="110.6211" fill="#800080" rx="24" ry="24" style="stroke:#181818;stroke-width:1.0;"/><line style="stroke:#181818;stroke-width:1.0;" x1="205" x2="253" y1="138.6211" y2="138.6211"/><text fill="#000000" font-family="sans-serif" font-size="28" lengthAdjust="spacing" textLength="234" x="458" y="169.6914">Payment Registry</text><ellipse cx="581" cy="110.6211" fill="#0000FF" rx="24" ry="24" style="stroke:#181818;stroke-width:1.0;"/><line style="stroke:#181818;stroke-width:1.0;" x1="557" x2="605" y1="138.6211" y2="138.6211"/><text fill="#000000" font-family="sans-serif" font-size="28" lengthAdjust="spacing" textLength="222" x="812" y="169.6914">Order Processor</text><ellipse cx="929" cy="110.6211" fill="#E2E2F0" rx="24" ry="24" style="stroke:#181818;stroke-width:1.0;"/><polygon fill="#181818" points="921,86.6211,933,76.6211,929,86.6211,933,96.6211,921,86.6211" style="stroke:#181818;stroke-width:2.0;"/><text fill="#000000" font-family="sans-serif" font-size="28" lengthAdjust="spacing" textLength="312" x="1091" y="169.6914">Failed Order Processor</text><ellipse cx="1253" cy="110.6211" fill="#E2E2F0" rx="24" ry="24" style="stroke:#181818;stroke-width:1.0;"/><polygon fill="#181818" points="1245,86.6211,1257,76.6211,1253,86.6211,1257,96.6211,1245,86.6211" style="stroke:#181818;stroke-width:2.0;"/><text fill="#000000" font-family="sans-serif" font-size="28" lengthAdjust="spacing" textLength="126" x="1454" y="169.6914">Database</text><path d="M1487,70.6211 C1487,50.6211 1523,50.6211 1523,50.6211 C1523,50.6211 1559,50.6211 1559,70.6211 L1559,122.6211 C1559,142.6211 1523,142.6211 1523,142.6211 C1523,142.6211 1487,142.6211 1487,122.6211 L1487,70.6211 " fill="#E2E2F0" style="stroke:#181818;stroke-width:3.0;"/><path d="M1487,70.6211 C1487,90.6211 1523,90.6211 1523,90.6211 C1523,90.6211 1559,90.6211 1559,70.6211 " fill="none" style="stroke:#181818;stroke-width:3.0;"/><polygon fill="#800080" points="205,230.2188,225,238.2188,205,246.2188,213,238.2188" style="stroke:#800080;stroke-width:2.0;"/><line style="stroke:#800080;stroke-width:2.0;" x1="47" x2="217" y1="238.2188" y2="238.2188"/><text fill="#000000" font-family="sans-serif" font-size="26" lengthAdjust="spacing" textLength="130" x="61" y="228.7344">Sets Order</text><polygon fill="#800080" points="251,288.8398,231,296.8398,251,304.8398,243,296.8398" style="stroke:#800080;stroke-width:2.0;"/><line style="stroke:#800080;stroke-width:2.0;" x1="239" x2="927" y1="296.8398" y2="296.8398"/><text fill="#000000" font-family="sans-serif" font-size="26" lengthAdjust="spacing" textLength="134" x="263" y="287.3555">Gets Order</text><line style="stroke:#181818;stroke-width:2.0;" x1="929" x2="1013" y1="355.4609" y2="355.4609"/><line style="stroke:#181818;stroke-width:2.0;" x1="1013" x2="1013" y1="355.4609" y2="381.4609"/><line style="stroke:#181818;stroke-width:2.0;" x1="955" x2="1013" y1="381.4609" y2="381.4609"/><line style="stroke:#181818;stroke-width:4.0;" x1="941" x2="961" y1="371.4609" y2="391.4609"/><line style="stroke:#181818;stroke-width:4.0;" x1="941" x2="961" y1="391.4609" y2="371.4609"/><text fill="#000000" font-family="sans-serif" font-size="26" lengthAdjust="spacing" textLength="202" x="943" y="345.9766">Processes Order</text><polygon fill="#181818" points="1499,432.082,1519,440.082,1499,448.082,1507,440.082" style="stroke:#181818;stroke-width:2.0;"/><line style="stroke:#181818;stroke-width:2.0;" x1="929" x2="1511" y1="440.082" y2="440.082"/><text fill="#000000" font-family="sans-serif" font-size="26" lengthAdjust="spacing" textLength="464" x="943" y="430.5977">Stores Order as failed due to an error</text><polygon fill="#181818" points="1499,490.7031,1519,498.7031,1499,506.7031,1507,498.7031" style="stroke:#181818;stroke-width:2.0;"/><line style="stroke:#181818;stroke-width:2.0;" x1="1253" x2="1511" y1="498.7031" y2="498.7031"/><text fill="#000000" font-family="sans-serif" font-size="26" lengthAdjust="spacing" textLength="222" x="1267" y="489.2188">Gets failed orders</text><polygon fill="#181818" points="951,549.3242,931,557.3242,951,565.3242,943,557.3242" style="stroke:#181818;stroke-width:2.0;"/><line style="stroke:#181818;stroke-width:2.0;" x1="939" x2="1251" y1="557.3242" y2="557.3242"/><text fill="#000000" font-family="sans-serif" font-size="26" lengthAdjust="spacing" textLength="276" x="963" y="547.8398">Processes failed order</text><polygon fill="#0000FF" points="603,607.9453,583,615.9453,603,623.9453,595,615.9453" style="stroke:#0000FF;stroke-width:2.0;"/><line style="stroke:#0000FF;stroke-width:2.0;" x1="591" x2="927" y1="615.9453" y2="615.9453"/><text fill="#000000" font-family="sans-serif" font-size="26" lengthAdjust="spacing" textLength="198" x="615" y="606.4609">Transfers funds</text><polygon fill="#0000FF" points="69,666.5664,49,674.5664,69,682.5664,61,674.5664" style="stroke:#0000FF;stroke-width:2.0;"/><line style="stroke:#0000FF;stroke-width:2.0;" x1="57" x2="579" y1="674.5664" y2="674.5664"/><text fill="#000000" font-family="sans-serif" font-size="26" lengthAdjust="spacing" textLength="198" x="81" y="665.082">Transfers funds</text><polygon fill="#0000FF" points="603,725.1875,583,733.1875,603,741.1875,595,733.1875" style="stroke:#0000FF;stroke-width:2.0;"/><line style="stroke:#0000FF;stroke-width:2.0;" x1="591" x2="927" y1="733.1875" y2="733.1875"/><text fill="#000000" font-family="sans-serif" font-size="26" lengthAdjust="spacing" textLength="300" x="615" y="723.7031">Sends proof of payment</text><polygon fill="#800080" points="251,783.8086,231,791.8086,251,799.8086,243,791.8086" style="stroke:#800080;stroke-width:2.0;"/><line style="stroke:#800080;stroke-width:2.0;" x1="239" x2="579" y1="791.8086" y2="791.8086"/><text fill="#000000" font-family="sans-serif" font-size="26" lengthAdjust="spacing" textLength="300" x="263" y="782.3242">Sends proof of payment</text><polygon fill="#800080" points="905,842.4297,925,850.4297,905,858.4297,913,850.4297" style="stroke:#800080;stroke-width:2.0;"/><line style="stroke:#800080;stroke-width:2.0;" x1="229" x2="917" y1="850.4297" y2="850.4297"/><text fill="#000000" font-family="sans-serif" font-size="26" lengthAdjust="spacing" textLength="140" x="243" y="840.9453">Send funds</text><polygon fill="#181818" points="1499,901.0508,1519,909.0508,1499,917.0508,1507,909.0508" style="stroke:#181818;stroke-width:2.0;"/><line style="stroke:#181818;stroke-width:2.0;" x1="929" x2="1511" y1="909.0508" y2="909.0508"/><text fill="#000000" font-family="sans-serif" font-size="26" lengthAdjust="spacing" textLength="332" x="943" y="899.5664">Stores Order as completed</text><!--SRC=[VL4xRuCm4DxzAqumTssL39bAEaMWf4nL1uFF3GhXqDceuT_tJCY345LYiFmz_R6l388byWMTb2uzCUGE6RI3NCaTxBpcGuCUOYpADsiLDhxoFIIkPFeDl0JYjkEsHe4C19-WI_mU6RiZn8i5ljvqKQRxevnXYp-Lyzn7mIFRGbpKtTGYsaYq96_q0JbI9JMUgOOePICDCwOIdICU3DBiXgzrLQE1PxIry8pskj0EuNqyN4DL3YzVusE-L_Am9UpGkxEJIhCP-Z55LoVf8TTZ9awmQrnmbPqlQAXbpurDX-09T0F8JApMC-4GEB8fgDs5z11ypncRXtsbjqozX4_MZRCY1zirnYcvl37oEJvtsCbe3beciY1VU_whez73X4-PoOGur0_Cky1_9olfA4gFHlq1]--></g></svg>