<?xml version="1.0" encoding="us-ascii" standalone="no"?><svg xmlns="http://www.w3.org/2000/svg" xmlns:xlink="http://www.w3.org/1999/xlink" contentStyleType="text/css" height="946px" preserveAspectRatio="none" style="width:4056px;height:946px;background:#FFFFFF;" version="1.1" viewBox="0 0 4056 946" width="4056px" zoomAndPan="magnify"><defs/><g><text fill="#000000" font-family="sans-serif" font-size="28" font-weight="bold" lengthAdjust="spacing" textLength="272" x="1878" y="47.0703">MM Diagram Class</text><!--cluster services--><g id="cluster_services"><path d="M17,252.9766 L135,252.9766 A7.5,7.5 0 0 1 140,257.9766 L154,297.9531 L2753,297.9531 A5,5 0 0 1 2758,302.9531 L2758,927.9766 A5,5 0 0 1 2753,932.9766 L17,932.9766 A5,5 0 0 1 12,927.9766 L12,257.9766 A5,5 0 0 1 17,252.9766 " fill="none" style="stroke:#000000;stroke-width:3.0;"/><line style="stroke:#000000;stroke-width:3.0;" x1="12" x2="154" y1="297.9531" y2="297.9531"/><text fill="#000000" font-family="sans-serif" font-size="28" font-weight="bold" lengthAdjust="spacing" textLength="116" x="20" y="284.0469">services</text></g><!--cluster ethereum--><g id="cluster_ethereum"><path d="M2079,338.9766 L2217,338.9766 A7.5,7.5 0 0 1 2222,343.9766 L2236,383.9531 L2449,383.9531 A5,5 0 0 1 2454,388.9531 L2454,695.9766 A5,5 0 0 1 2449,700.9766 L2079,700.9766 A5,5 0 0 1 2074,695.9766 L2074,343.9766 A5,5 0 0 1 2079,338.9766 " fill="none" style="stroke:#000000;stroke-width:3.0;"/><line style="stroke:#000000;stroke-width:3.0;" x1="2074" x2="2236" y1="383.9531" y2="383.9531"/><text fill="#000000" font-family="sans-serif" font-size="28" font-weight="bold" lengthAdjust="spacing" textLength="136" x="2082" y="370.0469">ethereum</text></g><!--cluster starknet--><g id="cluster_starknet"><path d="M1459,338.9766 L1581,338.9766 A7.5,7.5 0 0 1 1586,343.9766 L1600,383.9531 L2021,383.9531 A5,5 0 0 1 2026,388.9531 L2026,879.9766 A5,5 0 0 1 2021,884.9766 L1459,884.9766 A5,5 0 0 1 1454,879.9766 L1454,343.9766 A5,5 0 0 1 1459,338.9766 " fill="none" style="stroke:#000000;stroke-width:3.0;"/><line style="stroke:#000000;stroke-width:3.0;" x1="1454" x2="1600" y1="383.9531" y2="383.9531"/><text fill="#000000" font-family="sans-serif" font-size="28" font-weight="bold" lengthAdjust="spacing" textLength="120" x="1462" y="370.0469">starknet</text></g><!--cluster payment_claimer--><g id="cluster_payment_claimer"><path d="M429,338.9766 L675,338.9766 A7.5,7.5 0 0 1 680,343.9766 L694,383.9531 L1401,383.9531 A5,5 0 0 1 1406,388.9531 L1406,695.9766 A5,5 0 0 1 1401,700.9766 L429,700.9766 A5,5 0 0 1 424,695.9766 L424,343.9766 A5,5 0 0 1 429,338.9766 " fill="none" style="stroke:#000000;stroke-width:3.0;"/><line style="stroke:#000000;stroke-width:3.0;" x1="424" x2="694" y1="383.9531" y2="383.9531"/><text fill="#000000" font-family="sans-serif" font-size="28" font-weight="bold" lengthAdjust="spacing" textLength="244" x="432" y="370.0469">payment_claimer</text></g><!--cluster persistence--><g id="cluster_persistence"><path d="M2806,524.9766 C2806,504.9766 3197,504.9766 3197,504.9766 C3197,504.9766 3588,504.9766 3588,524.9766 L3588,680.9766 C3588,700.9766 3197,700.9766 3197,700.9766 C3197,700.9766 2806,700.9766 2806,680.9766 L2806,524.9766 " fill="none" style="stroke:#181818;stroke-width:2.0;"/><path d="M2806,524.9766 C2806,544.9766 3197,544.9766 3197,544.9766 C3197,544.9766 3588,544.9766 3588,524.9766 " fill="none" style="stroke:#181818;stroke-width:2.0;"/><text fill="#000000" font-family="sans-serif" font-size="28" font-weight="bold" lengthAdjust="spacing" textLength="164" x="3115" y="576.0469">persistence</text></g><!--cluster models--><g id="cluster_models"><path d="M3641,86.9766 L3749,86.9766 A7.5,7.5 0 0 1 3754,91.9766 L3768,131.9531 L4037,131.9531 A5,5 0 0 1 4042,136.9531 L4042,695.9766 A5,5 0 0 1 4037,700.9766 L3641,700.9766 A5,5 0 0 1 3636,695.9766 L3636,91.9766 A5,5 0 0 1 3641,86.9766 " fill="none" style="stroke:#000000;stroke-width:3.0;"/><line style="stroke:#000000;stroke-width:3.0;" x1="3636" x2="3768" y1="131.9531" y2="131.9531"/><text fill="#000000" font-family="sans-serif" font-size="28" font-weight="bold" lengthAdjust="spacing" textLength="106" x="3644" y="118.0469">models</text></g><!--class Herodotus--><g id="elem_Herodotus"><rect codeLine="55" fill="#F1F1F1" height="64" id="Herodotus" rx="5" ry="5" style="stroke:#181818;stroke-width:1.0;" width="208" x="1056" y="788.9766"/><ellipse cx="1086" cy="820.9766" fill="#ADD1B2" rx="22" ry="22" style="stroke:#181818;stroke-width:2.0;"/><path d="M1091.9463,832.2627 Q1090.7842,832.8604 1089.5059,833.1592 Q1088.2275,833.458 1086.8164,833.458 Q1081.8027,833.458 1079.1631,830.1543 Q1076.5234,826.8506 1076.5234,820.6084 Q1076.5234,814.3496 1079.1631,811.0459 Q1081.8027,807.7422 1086.8164,807.7422 Q1088.2275,807.7422 1089.5225,808.041 Q1090.8174,808.3398 1091.9463,808.9375 L1091.9463,814.3828 Q1090.6846,813.2207 1089.4976,812.6812 Q1088.3105,812.1416 1087.0488,812.1416 Q1084.3594,812.1416 1082.9897,814.2749 Q1081.6201,816.4082 1081.6201,820.6084 Q1081.6201,824.792 1082.9897,826.9253 Q1084.3594,829.0586 1087.0488,829.0586 Q1088.3105,829.0586 1089.4976,828.519 Q1090.6846,827.9795 1091.9463,826.8174 Z " fill="#000000"/><text fill="#000000" font-family="sans-serif" font-size="28" lengthAdjust="spacing" textLength="144" x="1114" y="831.5586">Herodotus</text></g><!--class OrderService--><g id="elem_OrderService"><rect codeLine="61" fill="#F1F1F1" height="64" id="OrderService" rx="5" ry="5" style="stroke:#181818;stroke-width:1.0;" width="240" x="2486" y="408.9766"/><ellipse cx="2516" cy="440.9766" fill="#ADD1B2" rx="22" ry="22" style="stroke:#181818;stroke-width:2.0;"/><path d="M2521.9463,452.2627 Q2520.7842,452.8604 2519.5059,453.1592 Q2518.2275,453.458 2516.8164,453.458 Q2511.8027,453.458 2509.1631,450.1543 Q2506.5234,446.8506 2506.5234,440.6084 Q2506.5234,434.3496 2509.1631,431.0459 Q2511.8027,427.7422 2516.8164,427.7422 Q2518.2275,427.7422 2519.5225,428.041 Q2520.8174,428.3398 2521.9463,428.9375 L2521.9463,434.3828 Q2520.6846,433.2207 2519.4976,432.6812 Q2518.3105,432.1416 2517.0488,432.1416 Q2514.3594,432.1416 2512.9897,434.2749 Q2511.6201,436.4082 2511.6201,440.6084 Q2511.6201,444.792 2512.9897,446.9253 Q2514.3594,449.0586 2517.0488,449.0586 Q2518.3105,449.0586 2519.4976,448.519 Q2520.6846,447.9795 2521.9463,446.8174 Z " fill="#000000"/><text fill="#000000" font-family="sans-serif" font-size="28" lengthAdjust="spacing" textLength="176" x="2544" y="451.5586">OrderService</text></g><!--class OverallFeeCalculator--><g id="elem_OverallFeeCalculator"><rect codeLine="81" fill="#F1F1F1" height="64" id="OverallFeeCalculator" rx="5" ry="5" style="stroke:#181818;stroke-width:1.0;" width="348" x="44" y="408.9766"/><ellipse cx="74" cy="440.9766" fill="#ADD1B2" rx="22" ry="22" style="stroke:#181818;stroke-width:2.0;"/><path d="M79.9463,452.2627 Q78.7842,452.8604 77.5059,453.1592 Q76.2275,453.458 74.8164,453.458 Q69.8027,453.458 67.1631,450.1543 Q64.5234,446.8506 64.5234,440.6084 Q64.5234,434.3496 67.1631,431.0459 Q69.8027,427.7422 74.8164,427.7422 Q76.2275,427.7422 77.5225,428.041 Q78.8174,428.3398 79.9463,428.9375 L79.9463,434.3828 Q78.6846,433.2207 77.4976,432.6812 Q76.3105,432.1416 75.0488,432.1416 Q72.3594,432.1416 70.9897,434.2749 Q69.6201,436.4082 69.6201,440.6084 Q69.6201,444.792 70.9897,446.9253 Q72.3594,449.0586 75.0488,449.0586 Q76.3105,449.0586 77.4976,448.519 Q78.6846,447.9795 79.9463,446.8174 Z " fill="#000000"/><text fill="#000000" font-family="sans-serif" font-size="28" lengthAdjust="spacing" textLength="284" x="102" y="451.5586">OverallFeeCalculator</text></g><!--class Ethereum--><g id="elem_Ethereum"><rect codeLine="27" fill="#F1F1F1" height="64" id="Ethereum" rx="5" ry="5" style="stroke:#181818;stroke-width:1.0;" width="196" x="2136" y="408.9766"/><ellipse cx="2166" cy="440.9766" fill="#ADD1B2" rx="22" ry="22" style="stroke:#181818;stroke-width:2.0;"/><path d="M2171.9463,452.2627 Q2170.7842,452.8604 2169.5059,453.1592 Q2168.2275,453.458 2166.8164,453.458 Q2161.8027,453.458 2159.1631,450.1543 Q2156.5234,446.8506 2156.5234,440.6084 Q2156.5234,434.3496 2159.1631,431.0459 Q2161.8027,427.7422 2166.8164,427.7422 Q2168.2275,427.7422 2169.5225,428.041 Q2170.8174,428.3398 2171.9463,428.9375 L2171.9463,434.3828 Q2170.6846,433.2207 2169.4976,432.6812 Q2168.3105,432.1416 2167.0488,432.1416 Q2164.3594,432.1416 2162.9897,434.2749 Q2161.6201,436.4082 2161.6201,440.6084 Q2161.6201,444.792 2162.9897,446.9253 Q2164.3594,449.0586 2167.0488,449.0586 Q2168.3105,449.0586 2169.4976,448.519 Q2170.6846,447.9795 2171.9463,446.8174 Z " fill="#000000"/><text fill="#000000" font-family="sans-serif" font-size="28" lengthAdjust="spacing" textLength="132" x="2194" y="451.5586">Ethereum</text></g><!--class EthereumRpcNode--><g id="elem_EthereumRpcNode"><rect codeLine="48" fill="#F1F1F1" height="64" id="EthereumRpcNode" rx="5" ry="5" style="stroke:#181818;stroke-width:1.0;" width="318" x="2105" y="604.9766"/><ellipse cx="2135" cy="636.9766" fill="#ADD1B2" rx="22" ry="22" style="stroke:#181818;stroke-width:2.0;"/><path d="M2140.9463,648.2627 Q2139.7842,648.8604 2138.5059,649.1592 Q2137.2275,649.458 2135.8164,649.458 Q2130.8027,649.458 2128.1631,646.1543 Q2125.5234,642.8506 2125.5234,636.6084 Q2125.5234,630.3496 2128.1631,627.0459 Q2130.8027,623.7422 2135.8164,623.7422 Q2137.2275,623.7422 2138.5225,624.041 Q2139.8174,624.3398 2140.9463,624.9375 L2140.9463,630.3828 Q2139.6846,629.2207 2138.4976,628.6812 Q2137.3105,628.1416 2136.0488,628.1416 Q2133.3594,628.1416 2131.9897,630.2749 Q2130.6201,632.4082 2130.6201,636.6084 Q2130.6201,640.792 2131.9897,642.9253 Q2133.3594,645.0586 2136.0488,645.0586 Q2137.3105,645.0586 2138.4976,644.519 Q2139.6846,643.9795 2140.9463,642.8174 Z " fill="#000000"/><text fill="#000000" font-family="sans-serif" font-size="28" lengthAdjust="spacing" textLength="254" x="2163" y="647.5586">EthereumRpcNode</text></g><!--class Starknet--><g id="elem_Starknet"><rect codeLine="89" fill="#F1F1F1" height="64" id="Starknet" rx="5" ry="5" style="stroke:#181818;stroke-width:1.0;" width="178" x="1817" y="408.9766"/><ellipse cx="1847" cy="440.9766" fill="#ADD1B2" rx="22" ry="22" style="stroke:#181818;stroke-width:2.0;"/><path d="M1852.9463,452.2627 Q1851.7842,452.8604 1850.5059,453.1592 Q1849.2275,453.458 1847.8164,453.458 Q1842.8027,453.458 1840.1631,450.1543 Q1837.5234,446.8506 1837.5234,440.6084 Q1837.5234,434.3496 1840.1631,431.0459 Q1842.8027,427.7422 1847.8164,427.7422 Q1849.2275,427.7422 1850.5225,428.041 Q1851.8174,428.3398 1852.9463,428.9375 L1852.9463,434.3828 Q1851.6846,433.2207 1850.4976,432.6812 Q1849.3105,432.1416 1848.0488,432.1416 Q1845.3594,432.1416 1843.9897,434.2749 Q1842.6201,436.4082 1842.6201,440.6084 Q1842.6201,444.792 1843.9897,446.9253 Q1845.3594,449.0586 1848.0488,449.0586 Q1849.3105,449.0586 1850.4976,448.519 Q1851.6846,447.9795 1852.9463,446.8174 Z " fill="#000000"/><text fill="#000000" font-family="sans-serif" font-size="28" lengthAdjust="spacing" textLength="114" x="1875" y="451.5586">Starknet</text></g><!--class StarknetRpcNode--><g id="elem_StarknetRpcNode"><rect codeLine="112" fill="#F1F1F1" height="64" id="StarknetRpcNode" rx="5" ry="5" style="stroke:#181818;stroke-width:1.0;" width="300" x="1690" y="604.9766"/><ellipse cx="1720" cy="636.9766" fill="#ADD1B2" rx="22" ry="22" style="stroke:#181818;stroke-width:2.0;"/><path d="M1725.9463,648.2627 Q1724.7842,648.8604 1723.5059,649.1592 Q1722.2275,649.458 1720.8164,649.458 Q1715.8027,649.458 1713.1631,646.1543 Q1710.5234,642.8506 1710.5234,636.6084 Q1710.5234,630.3496 1713.1631,627.0459 Q1715.8027,623.7422 1720.8164,623.7422 Q1722.2275,623.7422 1723.5225,624.041 Q1724.8174,624.3398 1725.9463,624.9375 L1725.9463,630.3828 Q1724.6846,629.2207 1723.4976,628.6812 Q1722.3105,628.1416 1721.0488,628.1416 Q1718.3594,628.1416 1716.9897,630.2749 Q1715.6201,632.4082 1715.6201,636.6084 Q1715.6201,640.792 1716.9897,642.9253 Q1718.3594,645.0586 1721.0488,645.0586 Q1722.3105,645.0586 1723.4976,644.519 Q1724.6846,643.9795 1725.9463,642.8174 Z " fill="#000000"/><text fill="#000000" font-family="sans-serif" font-size="28" lengthAdjust="spacing" textLength="236" x="1748" y="647.5586">StarknetRpcNode</text></g><!--class MMFullNodeClient--><g id="elem_MMFullNodeClient"><rect codeLine="119" fill="#F1F1F1" height="64" id="MMFullNodeClient" rx="5" ry="5" style="stroke:#181818;stroke-width:1.0;" width="314" x="1679" y="788.9766"/><ellipse cx="1709" cy="820.9766" fill="#ADD1B2" rx="22" ry="22" style="stroke:#181818;stroke-width:2.0;"/><path d="M1714.9463,832.2627 Q1713.7842,832.8604 1712.5059,833.1592 Q1711.2275,833.458 1709.8164,833.458 Q1704.8027,833.458 1702.1631,830.1543 Q1699.5234,826.8506 1699.5234,820.6084 Q1699.5234,814.3496 1702.1631,811.0459 Q1704.8027,807.7422 1709.8164,807.7422 Q1711.2275,807.7422 1712.5225,808.041 Q1713.8174,808.3398 1714.9463,808.9375 L1714.9463,814.3828 Q1713.6846,813.2207 1712.4976,812.6812 Q1711.3105,812.1416 1710.0488,812.1416 Q1707.3594,812.1416 1705.9897,814.2749 Q1704.6201,816.4082 1704.6201,820.6084 Q1704.6201,824.792 1705.9897,826.9253 Q1707.3594,829.0586 1710.0488,829.0586 Q1711.3105,829.0586 1712.4976,828.519 Q1713.6846,827.9795 1714.9463,826.8174 Z " fill="#000000"/><text fill="#000000" font-family="sans-serif" font-size="28" lengthAdjust="spacing" textLength="250" x="1737" y="831.5586">MMFullNodeClient</text></g><!--class SetOrderEvent--><g id="elem_SetOrderEvent"><rect codeLine="123" fill="#F1F1F1" height="64" id="SetOrderEvent" rx="5" ry="5" style="stroke:#181818;stroke-width:1.0;" width="260" x="1486" y="408.9766"/><ellipse cx="1516" cy="440.9766" fill="#ADD1B2" rx="22" ry="22" style="stroke:#181818;stroke-width:2.0;"/><path d="M1521.9463,452.2627 Q1520.7842,452.8604 1519.5059,453.1592 Q1518.2275,453.458 1516.8164,453.458 Q1511.8027,453.458 1509.1631,450.1543 Q1506.5234,446.8506 1506.5234,440.6084 Q1506.5234,434.3496 1509.1631,431.0459 Q1511.8027,427.7422 1516.8164,427.7422 Q1518.2275,427.7422 1519.5225,428.041 Q1520.8174,428.3398 1521.9463,428.9375 L1521.9463,434.3828 Q1520.6846,433.2207 1519.4976,432.6812 Q1518.3105,432.1416 1517.0488,432.1416 Q1514.3594,432.1416 1512.9897,434.2749 Q1511.6201,436.4082 1511.6201,440.6084 Q1511.6201,444.792 1512.9897,446.9253 Q1514.3594,449.0586 1517.0488,449.0586 Q1518.3105,449.0586 1519.4976,448.519 Q1520.6846,447.9795 1521.9463,446.8174 Z " fill="#000000"/><text fill="#000000" font-family="sans-serif" font-size="28" lengthAdjust="spacing" textLength="196" x="1544" y="451.5586">SetOrderEvent</text></g><!--class PaymentClaimer--><g id="elem_PaymentClaimer"><rect codeLine="135" fill="#F1F1F1" height="64" id="PaymentClaimer" rx="5" ry="5" style="stroke:#181818;stroke-width:1.0;" width="286" x="1017" y="408.9766"/><ellipse cx="1047" cy="440.9766" fill="#A9DCDF" rx="22" ry="22" style="stroke:#181818;stroke-width:2.0;"/><path d="M1047.2266,431.6729 L1044.9189,441.8164 L1049.5508,441.8164 Z M1044.2383,427.1904 L1050.2314,427.1904 L1056.9219,451.9766 L1052.0244,451.9766 L1050.4971,445.8506 L1043.9395,445.8506 L1042.4453,451.9766 L1037.5479,451.9766 Z " fill="#000000"/><text fill="#000000" font-family="sans-serif" font-size="28" font-style="italic" lengthAdjust="spacing" textLength="222" x="1075" y="451.5586">PaymentClaimer</text></g><!--class EthereumPaymentClaimer--><g id="elem_EthereumPaymentClaimer"><rect codeLine="142" fill="#F1F1F1" height="64" id="EthereumPaymentClaimer" rx="5" ry="5" style="stroke:#181818;stroke-width:1.0;" width="418" x="457" y="604.9766"/><ellipse cx="487" cy="636.9766" fill="#ADD1B2" rx="22" ry="22" style="stroke:#181818;stroke-width:2.0;"/><path d="M492.9463,648.2627 Q491.7842,648.8604 490.5059,649.1592 Q489.2275,649.458 487.8164,649.458 Q482.8027,649.458 480.1631,646.1543 Q477.5234,642.8506 477.5234,636.6084 Q477.5234,630.3496 480.1631,627.0459 Q482.8027,623.7422 487.8164,623.7422 Q489.2275,623.7422 490.5225,624.041 Q491.8174,624.3398 492.9463,624.9375 L492.9463,630.3828 Q491.6846,629.2207 490.4976,628.6812 Q489.3105,628.1416 488.0488,628.1416 Q485.3594,628.1416 483.9897,630.2749 Q482.6201,632.4082 482.6201,636.6084 Q482.6201,640.792 483.9897,642.9253 Q485.3594,645.0586 488.0488,645.0586 Q489.3105,645.0586 490.4976,644.519 Q491.6846,643.9795 492.9463,642.8174 Z " fill="#000000"/><text fill="#000000" font-family="sans-serif" font-size="28" lengthAdjust="spacing" textLength="354" x="515" y="647.5586">EthereumPaymentClaimer</text></g><!--class HerodotusPaymentClaimer--><g id="elem_HerodotusPaymentClaimer"><rect codeLine="147" fill="#F1F1F1" height="64" id="HerodotusPaymentClaimer" rx="5" ry="5" style="stroke:#181818;stroke-width:1.0;" width="430" x="945" y="604.9766"/><ellipse cx="975" cy="636.9766" fill="#ADD1B2" rx="22" ry="22" style="stroke:#181818;stroke-width:2.0;"/><path d="M980.9463,648.2627 Q979.7842,648.8604 978.5059,649.1592 Q977.2275,649.458 975.8164,649.458 Q970.8027,649.458 968.1631,646.1543 Q965.5234,642.8506 965.5234,636.6084 Q965.5234,630.3496 968.1631,627.0459 Q970.8027,623.7422 975.8164,623.7422 Q977.2275,623.7422 978.5225,624.041 Q979.8174,624.3398 980.9463,624.9375 L980.9463,630.3828 Q979.6846,629.2207 978.4976,628.6812 Q977.3105,628.1416 976.0488,628.1416 Q973.3594,628.1416 971.9897,630.2749 Q970.6201,632.4082 970.6201,636.6084 Q970.6201,640.792 971.9897,642.9253 Q973.3594,645.0586 976.0488,645.0586 Q977.3105,645.0586 978.4976,644.519 Q979.6846,643.9795 980.9463,642.8174 Z " fill="#000000"/><text fill="#000000" font-family="sans-serif" font-size="28" lengthAdjust="spacing" textLength="366" x="1003" y="647.5586">HerodotusPaymentClaimer</text></g><!--class BlockDao--><g id="elem_BlockDao"><rect codeLine="155" fill="#F1F1F1" height="64" id="BlockDao" rx="5" ry="5" style="stroke:#181818;stroke-width:1.0;" width="190" x="3367" y="604.9766"/><ellipse cx="3397" cy="636.9766" fill="#ADD1B2" rx="22" ry="22" style="stroke:#181818;stroke-width:2.0;"/><path d="M3402.9463,648.2627 Q3401.7842,648.8604 3400.5059,649.1592 Q3399.2275,649.458 3397.8164,649.458 Q3392.8027,649.458 3390.1631,646.1543 Q3387.5234,642.8506 3387.5234,636.6084 Q3387.5234,630.3496 3390.1631,627.0459 Q3392.8027,623.7422 3397.8164,623.7422 Q3399.2275,623.7422 3400.5225,624.041 Q3401.8174,624.3398 3402.9463,624.9375 L3402.9463,630.3828 Q3401.6846,629.2207 3400.4976,628.6812 Q3399.3105,628.1416 3398.0488,628.1416 Q3395.3594,628.1416 3393.9897,630.2749 Q3392.6201,632.4082 3392.6201,636.6084 Q3392.6201,640.792 3393.9897,642.9253 Q3395.3594,645.0586 3398.0488,645.0586 Q3399.3105,645.0586 3400.4976,644.519 Q3401.6846,643.9795 3402.9463,642.8174 Z " fill="#000000"/><text fill="#000000" font-family="sans-serif" font-size="28" lengthAdjust="spacing" textLength="126" x="3425" y="647.5586">BlockDao</text></g><!--class ErrorDao--><g id="elem_ErrorDao"><rect codeLine="161" fill="#F1F1F1" height="64" id="ErrorDao" rx="5" ry="5" style="stroke:#181818;stroke-width:1.0;" width="188" x="3108" y="604.9766"/><ellipse cx="3138" cy="636.9766" fill="#ADD1B2" rx="22" ry="22" style="stroke:#181818;stroke-width:2.0;"/><path d="M3143.9463,648.2627 Q3142.7842,648.8604 3141.5059,649.1592 Q3140.2275,649.458 3138.8164,649.458 Q3133.8027,649.458 3131.1631,646.1543 Q3128.5234,642.8506 3128.5234,636.6084 Q3128.5234,630.3496 3131.1631,627.0459 Q3133.8027,623.7422 3138.8164,623.7422 Q3140.2275,623.7422 3141.5225,624.041 Q3142.8174,624.3398 3143.9463,624.9375 L3143.9463,630.3828 Q3142.6846,629.2207 3141.4976,628.6812 Q3140.3105,628.1416 3139.0488,628.1416 Q3136.3594,628.1416 3134.9897,630.2749 Q3133.6201,632.4082 3133.6201,636.6084 Q3133.6201,640.792 3134.9897,642.9253 Q3136.3594,645.0586 3139.0488,645.0586 Q3140.3105,645.0586 3141.4976,644.519 Q3142.6846,643.9795 3143.9463,642.8174 Z " fill="#000000"/><text fill="#000000" font-family="sans-serif" font-size="28" lengthAdjust="spacing" textLength="124" x="3166" y="647.5586">ErrorDao</text></g><!--class OrderDao--><g id="elem_OrderDao"><rect codeLine="166" fill="#F1F1F1" height="64" id="OrderDao" rx="5" ry="5" style="stroke:#181818;stroke-width:1.0;" width="198" x="2839" y="604.9766"/><ellipse cx="2869" cy="636.9766" fill="#ADD1B2" rx="22" ry="22" style="stroke:#181818;stroke-width:2.0;"/><path d="M2874.9463,648.2627 Q2873.7842,648.8604 2872.5059,649.1592 Q2871.2275,649.458 2869.8164,649.458 Q2864.8027,649.458 2862.1631,646.1543 Q2859.5234,642.8506 2859.5234,636.6084 Q2859.5234,630.3496 2862.1631,627.0459 Q2864.8027,623.7422 2869.8164,623.7422 Q2871.2275,623.7422 2872.5225,624.041 Q2873.8174,624.3398 2874.9463,624.9375 L2874.9463,630.3828 Q2873.6846,629.2207 2872.4976,628.6812 Q2871.3105,628.1416 2870.0488,628.1416 Q2867.3594,628.1416 2865.9897,630.2749 Q2864.6201,632.4082 2864.6201,636.6084 Q2864.6201,640.792 2865.9897,642.9253 Q2867.3594,645.0586 2870.0488,645.0586 Q2871.3105,645.0586 2872.4976,644.519 Q2873.6846,643.9795 2874.9463,642.8174 Z " fill="#000000"/><text fill="#000000" font-family="sans-serif" font-size="28" lengthAdjust="spacing" textLength="134" x="2897" y="647.5586">OrderDao</text></g><!--class Block--><g id="elem_Block"><rect codeLine="179" fill="#F1F1F1" height="64" id="Block" rx="5" ry="5" style="stroke:#181818;stroke-width:1.0;" width="136" x="3874" y="156.9766"/><ellipse cx="3904" cy="188.9766" fill="#ADD1B2" rx="22" ry="22" style="stroke:#181818;stroke-width:2.0;"/><path d="M3909.9463,200.2627 Q3908.7842,200.8604 3907.5059,201.1592 Q3906.2275,201.458 3904.8164,201.458 Q3899.8027,201.458 3897.1631,198.1543 Q3894.5234,194.8506 3894.5234,188.6084 Q3894.5234,182.3496 3897.1631,179.0459 Q3899.8027,175.7422 3904.8164,175.7422 Q3906.2275,175.7422 3907.5225,176.041 Q3908.8174,176.3398 3909.9463,176.9375 L3909.9463,182.3828 Q3908.6846,181.2207 3907.4976,180.6812 Q3906.3105,180.1416 3905.0488,180.1416 Q3902.3594,180.1416 3900.9897,182.2749 Q3899.6201,184.4082 3899.6201,188.6084 Q3899.6201,192.792 3900.9897,194.9253 Q3902.3594,197.0586 3905.0488,197.0586 Q3906.3105,197.0586 3907.4976,196.519 Q3908.6846,195.9795 3909.9463,194.8174 Z " fill="#000000"/><text fill="#000000" font-family="sans-serif" font-size="28" lengthAdjust="spacing" textLength="72" x="3932" y="199.5586">Block</text></g><!--class Error--><g id="elem_Error"><rect codeLine="185" fill="#F1F1F1" height="64" id="Error" rx="5" ry="5" style="stroke:#181818;stroke-width:1.0;" width="134" x="3669" y="156.9766"/><ellipse cx="3699" cy="188.9766" fill="#ADD1B2" rx="22" ry="22" style="stroke:#181818;stroke-width:2.0;"/><path d="M3704.9463,200.2627 Q3703.7842,200.8604 3702.5059,201.1592 Q3701.2275,201.458 3699.8164,201.458 Q3694.8027,201.458 3692.1631,198.1543 Q3689.5234,194.8506 3689.5234,188.6084 Q3689.5234,182.3496 3692.1631,179.0459 Q3694.8027,175.7422 3699.8164,175.7422 Q3701.2275,175.7422 3702.5225,176.041 Q3703.8174,176.3398 3704.9463,176.9375 L3704.9463,182.3828 Q3703.6846,181.2207 3702.4976,180.6812 Q3701.3105,180.1416 3700.0488,180.1416 Q3697.3594,180.1416 3695.9897,182.2749 Q3694.6201,184.4082 3694.6201,188.6084 Q3694.6201,192.792 3695.9897,194.9253 Q3697.3594,197.0586 3700.0488,197.0586 Q3701.3105,197.0586 3702.4976,196.519 Q3703.6846,195.9795 3704.9463,194.8174 Z " fill="#000000"/><text fill="#000000" font-family="sans-serif" font-size="28" lengthAdjust="spacing" textLength="70" x="3727" y="199.5586">Error</text></g><!--class Order--><g id="elem_Order"><rect codeLine="192" fill="#F1F1F1" height="64" id="Order" rx="5" ry="5" style="stroke:#181818;stroke-width:1.0;" width="144" x="3688" y="408.9766"/><ellipse cx="3718" cy="440.9766" fill="#ADD1B2" rx="22" ry="22" style="stroke:#181818;stroke-width:2.0;"/><path d="M3723.9463,452.2627 Q3722.7842,452.8604 3721.5059,453.1592 Q3720.2275,453.458 3718.8164,453.458 Q3713.8027,453.458 3711.1631,450.1543 Q3708.5234,446.8506 3708.5234,440.6084 Q3708.5234,434.3496 3711.1631,431.0459 Q3713.8027,427.7422 3718.8164,427.7422 Q3720.2275,427.7422 3721.5225,428.041 Q3722.8174,428.3398 3723.9463,428.9375 L3723.9463,434.3828 Q3722.6846,433.2207 3721.4976,432.6812 Q3720.3105,432.1416 3719.0488,432.1416 Q3716.3594,432.1416 3714.9897,434.2749 Q3713.6201,436.4082 3713.6201,440.6084 Q3713.6201,444.792 3714.9897,446.9253 Q3716.3594,449.0586 3719.0488,449.0586 Q3720.3105,449.0586 3721.4976,448.519 Q3722.6846,447.9795 3723.9463,446.8174 Z " fill="#000000"/><text fill="#000000" font-family="sans-serif" font-size="28" lengthAdjust="spacing" textLength="80" x="3746" y="451.5586">Order</text></g><!--class OrderStatus--><g id="elem_OrderStatus"><rect codeLine="215" fill="#F1F1F1" height="64" id="OrderStatus" rx="5" ry="5" style="stroke:#181818;stroke-width:1.0;" width="228" x="3668" y="604.9766"/><ellipse cx="3698" cy="636.9766" fill="#EB937F" rx="22" ry="22" style="stroke:#181818;stroke-width:2.0;"/><path d="M3706.2285,648.9766 L3690.7891,648.9766 L3690.7891,624.1904 L3706.2285,624.1904 L3706.2285,628.5068 L3695.6865,628.5068 L3695.6865,633.8525 L3705.2324,633.8525 L3705.2324,638.1689 L3695.6865,638.1689 L3695.6865,644.6602 L3706.2285,644.6602 Z " fill="#000000"/><text fill="#000000" font-family="sans-serif" font-size="28" lengthAdjust="spacing" textLength="164" x="3726" y="647.5586">OrderStatus</text></g><!--class MM--><g id="elem_MM"><rect codeLine="5" fill="#F1F1F1" height="64" id="MM" rx="5" ry="5" style="stroke:#181818;stroke-width:1.0;" width="112" x="2014" y="156.9766"/><ellipse cx="2044" cy="188.9766" fill="#ADD1B2" rx="22" ry="22" style="stroke:#181818;stroke-width:2.0;"/><path d="M2049.9463,200.2627 Q2048.7842,200.8604 2047.5059,201.1592 Q2046.2275,201.458 2044.8164,201.458 Q2039.8027,201.458 2037.1631,198.1543 Q2034.5234,194.8506 2034.5234,188.6084 Q2034.5234,182.3496 2037.1631,179.0459 Q2039.8027,175.7422 2044.8164,175.7422 Q2046.2275,175.7422 2047.5225,176.041 Q2048.8174,176.3398 2049.9463,176.9375 L2049.9463,182.3828 Q2048.6846,181.2207 2047.4976,180.6812 Q2046.3105,180.1416 2045.0488,180.1416 Q2042.3594,180.1416 2040.9897,182.2749 Q2039.6201,184.4082 2039.6201,188.6084 Q2039.6201,192.792 2040.9897,194.9253 Q2042.3594,197.0586 2045.0488,197.0586 Q2046.3105,197.0586 2047.4976,196.519 Q2048.6846,195.9795 2049.9463,194.8174 Z " fill="#000000"/><text fill="#000000" font-family="sans-serif" font-size="28" lengthAdjust="spacing" textLength="48" x="2072" y="199.5586">MM</text></g><!--reverse link MM to Ethereum--><g id="link_MM_Ethereum"><path codeLine="46" d="M2103.6754,241.8972 C2135.2754,289.6972 2182.38,360.9166 2213.82,408.4566 " fill="none" id="MM-backto-Ethereum" style="stroke:#181818;stroke-width:2.0;"/><polygon fill="#181818" points="2090.44,221.8766,2090.3842,236.2987,2103.6754,241.8972,2103.7312,227.4751,2090.44,221.8766" style="stroke:#181818;stroke-width:2.0;"/></g><!--reverse link Ethereum to EthereumRpcNode--><g id="link_Ethereum_EthereumRpcNode"><path codeLine="53" d="M2242.525,497.5289 C2248.125,533.3689 2253.6,568.4166 2259.2,604.1966 " fill="none" id="Ethereum-backto-EthereumRpcNode" style="stroke:#181818;stroke-width:2.0;"/><polygon fill="#181818" points="2238.82,473.8166,2232.7684,486.9077,2242.525,497.5289,2248.5766,484.4377,2238.82,473.8166" style="stroke:#181818;stroke-width:2.0;"/></g><!--reverse link MM to OrderService--><g id="link_MM_OrderService"><path codeLine="79" d="M2150.7862,193.1918 C2243.7662,196.3518 2399.6,205.6566 2454,236.9766 C2523.22,276.8366 2570.84,362.1166 2592.6,408.0966 " fill="none" id="MM-backto-OrderService" style="stroke:#181818;stroke-width:2.0;"/><polygon fill="#181818" points="2126.8,192.3766,2138.5213,200.7795,2150.7862,193.1918,2139.0648,184.7888,2126.8,192.3766" style="stroke:#181818;stroke-width:2.0;"/></g><!--reverse link MM to OverallFeeCalculator--><g id="link_MM_OverallFeeCalculator"><path codeLine="87" d="M1989.3608,191.5896 C1708.4008,193.8496 498.58,205.2966 424,236.9766 C339.18,273.0166 269.86,361.5966 237.58,408.5766 " fill="none" id="MM-backto-OverallFeeCalculator" style="stroke:#181818;stroke-width:2.0;"/><polygon fill="#181818" points="2013.36,191.3966,2001.296,183.4933,1989.3608,191.5896,2001.4247,199.4928,2013.36,191.3966" style="stroke:#181818;stroke-width:2.0;"/></g><!--reverse link MM to Starknet--><g id="link_MM_Starknet"><path codeLine="110" d="M2036.3246,241.8972 C2004.7246,289.6972 1957.62,360.9166 1926.18,408.4566 " fill="none" id="MM-backto-Starknet" style="stroke:#181818;stroke-width:2.0;"/><polygon fill="#181818" points="2049.56,221.8766,2036.2688,227.4751,2036.3246,241.8972,2049.6158,236.2987,2049.56,221.8766" style="stroke:#181818;stroke-width:2.0;"/></g><!--reverse link Starknet to StarknetRpcNode--><g id="link_Starknet_StarknetRpcNode"><path codeLine="117" d="M1887.5981,496.513 C1875.2781,532.353 1862.88,568.4166 1850.58,604.1966 " fill="none" id="Starknet-backto-StarknetRpcNode" style="stroke:#181818;stroke-width:2.0;"/><polygon fill="#181818" points="1895.4,473.8166,1883.9335,482.5642,1887.5981,496.513,1899.0645,487.7654,1895.4,473.8166" style="stroke:#181818;stroke-width:2.0;"/></g><!--reverse link StarknetRpcNode to MMFullNodeClient--><g id="link_StarknetRpcNode_MMFullNodeClient"><path codeLine="121" d="M1838.7836,693.5106 C1838.0436,726.6106 1837.42,755.1366 1836.68,788.2966 " fill="none" id="StarknetRpcNode-backto-MMFullNodeClient" style="stroke:#181818;stroke-width:2.0;"/><polygon fill="#181818" points="1839.32,669.5166,1831.0538,681.3348,1838.7836,693.5106,1847.0498,681.6924,1839.32,669.5166" style="stroke:#181818;stroke-width:2.0;"/></g><!--reverse link MM to PaymentClaimer--><g id="link_MM_PaymentClaimer"><path codeLine="140" d="M1989.962,191.7463 C1858.242,193.4463 1556.42,200.9366 1454,236.9766 C1347.1,274.5766 1242.8,361.6566 1192,408.2366 " fill="none" id="MM-backto-PaymentClaimer" style="stroke:#181818;stroke-width:2.0;"/><polygon fill="#181818" points="2013.96,191.4366,2001.8578,183.5921,1989.962,191.7463,2002.0642,199.5908,2013.96,191.4366" style="stroke:#181818;stroke-width:2.0;"/></g><!--reverse link PaymentClaimer to EthereumPaymentClaimer--><g id="link_PaymentClaimer_EthereumPaymentClaimer"><path codeLine="145" d="M980.8847,478.1882 C936.5847,486.1682 952.3,473.5966 910,488.9766 C832.52,517.1566 752.3,570.6966 705.88,604.5366 " fill="none" id="PaymentClaimer-backto-EthereumPaymentClaimer" style="stroke:#181818;stroke-width:2.0;"/><polygon fill="none" points="1016.32,471.8366,978.7675,466.3764,983.0019,489.9999,1016.32,471.8366" style="stroke:#181818;stroke-width:2.0;"/></g><!--reverse link PaymentClaimer to HerodotusPaymentClaimer--><g id="link_PaymentClaimer_HerodotusPaymentClaimer"><path codeLine="149" d="M1160,509.8166 C1160,545.6566 1160,568.4166 1160,604.1966 " fill="none" id="PaymentClaimer-backto-HerodotusPaymentClaimer" style="stroke:#181818;stroke-width:2.0;"/><polygon fill="none" points="1160,473.8166,1148,509.8166,1172,509.8166,1160,473.8166" style="stroke:#181818;stroke-width:2.0;"/></g><!--reverse link HerodotusPaymentClaimer to Herodotus--><g id="link_HerodotusPaymentClaimer_Herodotus"><path codeLine="150" d="M1160,693.5166 C1160,726.6166 1160,755.1366 1160,788.2966 " fill="none" id="HerodotusPaymentClaimer-backto-Herodotus" style="stroke:#181818;stroke-width:2.0;"/><polygon fill="#181818" points="1160,669.5166,1152,681.5166,1160,693.5166,1168,681.5166,1160,669.5166" style="stroke:#181818;stroke-width:2.0;"/></g><!--reverse link MM to BlockDao--><g id="link_MM_BlockDao"><path codeLine="159" d="M2150.8323,192.8627 C2293.3323,196.4627 2638.82,207.7766 2758,236.9766 C3028.62,303.2566 3106.62,325.1766 3332,488.9766 C3376.74,521.4966 3417.22,571.7966 3440.72,604.0566 " fill="none" id="MM-backto-BlockDao" style="stroke:#181818;stroke-width:2.0;"/><polygon fill="#181818" points="2126.84,192.2566,2138.6341,200.5571,2150.8323,192.8627,2139.0382,184.5622,2126.84,192.2566" style="stroke:#181818;stroke-width:2.0;"/></g><!--reverse link OrderService to ErrorDao--><g id="link_OrderService_ErrorDao"><path codeLine="164" d="M2750.7879,445.7794 C2868.3879,449.5194 3013.68,459.2966 3072,488.9766 C3122.82,514.8366 3162.92,569.6366 3184.48,604.2566 " fill="none" id="OrderService-backto-ErrorDao" style="stroke:#181818;stroke-width:2.0;"/><polygon fill="#181818" points="2726.8,445.0166,2738.5396,453.394,2750.7879,445.7794,2739.0482,437.402,2726.8,445.0166" style="stroke:#181818;stroke-width:2.0;"/></g><!--reverse link OrderService to OrderDao--><g id="link_OrderService_OrderDao"><path codeLine="175" d="M2680.1148,485.8335 C2742.0748,521.6735 2822.9,568.4166 2884.8,604.1966 " fill="none" id="OrderService-backto-OrderDao" style="stroke:#181818;stroke-width:2.0;"/><polygon fill="#181818" points="2659.34,473.8166,2665.7218,486.75,2680.1148,485.8335,2673.7331,472.9001,2659.34,473.8166" style="stroke:#181818;stroke-width:2.0;"/></g><!--reverse link Error to Order--><g id="link_Error_Order"><path codeLine="213" d="M3741.3089,245.7652 C3745.9289,293.5652 3752.44,360.9166 3757.04,408.4566 " fill="none" id="Error-backto-Order" style="stroke:#181818;stroke-width:2.0;"/><polygon fill="#181818" points="3739,221.8766,3732.1916,234.5905,3741.3089,245.7652,3748.1173,233.0513,3739,221.8766" style="stroke:#181818;stroke-width:2.0;"/></g><!--reverse link Order to OrderStatus--><g id="link_Order_OrderStatus"><path codeLine="225" d="M3766.2677,497.661 C3770.3677,533.501 3774.38,568.4166 3778.48,604.1966 " fill="none" id="Order-backto-OrderStatus" style="stroke:#181818;stroke-width:2.0;"/><polygon fill="#181818" points="3763.54,473.8166,3756.9557,486.6481,3766.2677,497.661,3772.852,484.8296,3763.54,473.8166" style="stroke:#181818;stroke-width:2.0;"/></g><!--SRC=[rLXRRzis57xtho3o93VkWBNOK1X5WIrnjWAv8UwwXo8GQ8cskKYYG599Z3R_VOTNaR9aE-dwi3p45dKk7y_zM59P47HnWKufNd5SefC22p5QqvoWafGBmiLebAapHVHrX11lgcGCdpLd6H4YPJmdF2Ntf98Y2H-cgA12Jf0v4uJVqunCqPLwd9kd2SWP-2DodHOikviYB3PLHjbFv_0qGMl2MSva8q1YYUiruwGbcRiZ1J3Z14jYyKaixYmy2s4ti27z0u0FHnMPxHc0HZ_EK4jC2v8RH2BzXosI5m3vVXZECX6Sv6NHyv-14aH64PukEIjJd6MabW1oeQJljndIT6cEsHJzhhwUOhOV_Oyoi7Lqtqt-1xUG75TY-PpSKLmFcChq9QnFer6Dipky8iXI25q6tI5SY73IbFeGYeukbRFu4A4qHIMc5PHKkMQvW6VxuhYzJqvg9W0bpISe5pB5UGxWSCcQIeuzEIYWPLhZJGdXk9DdWkvnqP2MTGMnJ4NQ29TTrjkAcPECrXH4QX4G9QqKNcTfnN8odg85OyMelH9k7cb1CT_qtKjfAw000oeTDqaWXrOoeblW0bSP6I9POuZMfif5OZ3fjmwEDumfzplDcIus0AZdQbqf-wtS5QLjtITHtQzYwdOFRwVeRx9u2qp6nYqHM8cM7ZxE96LLkYGa2Pw7XA_0EZMdeVaYov6ADQlrjW4dI762abvp2bBbASSF8Q94q5K5mICV-x3e55io7jq1uehGMYRoCGKiwoxVa_uFayMhrwzzrenwCkccpYw1ooSKg7lhlq8HKxTgdSWgm939G8NFo52H5JeoH4RXdwuGMLN7GMc20dfF4XtDhcgea105K-OJaczn28dX8r7J1v0E4DMiABOfhJUUHXvQM9Wykd3AYUhQs7wEsaY9azuHe6_eabNa1NHnfnxRDxW0IFac9Oym_ebGZ0-muw2lsgv4gzKk-2szIt3UvPWW6sI3hCkcMD8281-cIRaRbAJUKrrrnbUsB_eus2tCzOjdGjUXTo3kZ9LrGUIXv3bdTNqeiN5v1pmu0zA-12z2HzGntk67OjS9bttQUlMOGnD70OzANbj2mXG94kUUS5mKPuISu29he2inRXF85rvcQ7JHxM1phIWkqajbZGE8DtWHjnFDrKTf3TWZjNF9dki44mbK4dvN4HbD9FFuSET4ebBR2N6BdHuMpVnNDMejdA9pAXMEBqSrj0e8xQC9EZ8D_-WMQWLSprQCGsP4oNwaTDKGQDLWtP8akoE3pJJQPhSkFUdY79ibzykSIEsgcMAy7HZMseuH5updJ5Mst7VMaaJ_xxi9pUsxxQ5hQ-JpbAv9EKepDFGAgZ4N96tU_FAhsITorYmAEFZvpRkaO0ymsDFLkaUvYl4XO8TCZMeIIMbr3xwC9fGC4cEA82-A2SJtenzl-lpTctXcAt8pCBZRVmUmV0FD6gI1_GkIGTfDm02RWk6yJxuUeK9mUuQvTe1w34dt3qukkKSz2RyzE44NBBGaA4lA_Nl7A6U2GB4l9w5wDqu5A2ukpa2REZtHkYoCM8Y3g6Hr6Q8hXKaMNCX5UcjuLxniL_KljaA-lNiPNHqYmNyFyzqVsZtAtqQFQQu2kqAlqv_OLeCNGbiJNPkt9-5B5oqHv_Cst2Y2lbDELZ38wkyI4WGeXn8WNtVktJVazre6eQzgDgRPKvkmdNuAsRu0qsytqDshRGYqe_hzjs1D60RkbuLUvCEI1_Wq_P3CLo6VZhZWfuaQ1d3eGmJMJFJ-_IcMU845-V118p5OtIysFk2sIcrGOezHK-VAqX51-62MndWmSIhQoMkc9iDGgUrVUc9CzF-f8HhRJoinsdNqpcObTTQX7jalM8NS1hnh7n99njLCGh5h-fysDVcYMMvl0sfQkG7SRqOxwJjRrB3mWnOhwxUTHkWri3Dd65ObrE52T8F86zoMt6CK1aRaZ3p5CbvYjH-t9R30FpQDzmWollewwka10nrWgFv7rR-j_LgAoJLzhDra7sAnVYLrCEFztkw9M-UXkOAV360ej8Vgnr9Jwc9zVi5hjGLMYaBH3s_Zph5UGfn5ZLDy5AWZ0WtF1ecsWhNqzUpozEFb7-RxpTN9R3vtZvzkVhkSdyrkRjp1sL_dPn_FpsUdZlfpmFdP7fzSNLoVppxPfzERg-jh_Tt7QB3N6NSy_Gi0]--></g></svg>