<?xml version="1.0" encoding="us-ascii" standalone="no"?><svg xmlns="http://www.w3.org/2000/svg" xmlns:xlink="http://www.w3.org/1999/xlink" contentStyleType="text/css" height="378.4px" preserveAspectRatio="none" style="width:1569px;height:378px;background:#FFFFFF;" version="1.1" viewBox="0 0 1569 378" width="1569.6px" zoomAndPan="magnify"><defs/><g><text fill="#000000" font-family="sans-serif" font-size="11.2" font-weight="bold" lengthAdjust="spacing" textLength="108.8" x="724.8" y="18.8281">MM Diagram Class</text><!--cluster services--><g id="cluster_services"><path d="M6.8,101.1906 L54,101.1906 A3,3 0 0 1 56,103.1906 L61.6,119.1813 L1048.4,119.1813 A2,2 0 0 1 1050.4,121.1813 L1050.4,371.1906 A2,2 0 0 1 1048.4,373.1906 L6.8,373.1906 A2,2 0 0 1 4.8,371.1906 L4.8,103.1906 A2,2 0 0 1 6.8,101.1906 " fill="none" style="stroke:#000000;stroke-width:1.2000000000000002;"/><line style="stroke:#000000;stroke-width:1.2000000000000002;" x1="4.8" x2="61.6" y1="119.1813" y2="119.1813"/><text fill="#000000" font-family="sans-serif" font-size="11.2" font-weight="bold" lengthAdjust="spacing" textLength="46.4" x="8" y="113.6188">services</text></g><!--cluster ethereum--><g id="cluster_ethereum"><path d="M778.8,135.5906 L834,135.5906 A3,3 0 0 1 836,137.5906 L841.6,153.5813 L926.8,153.5813 A2,2 0 0 1 928.8,155.5813 L928.8,278.3906 A2,2 0 0 1 926.8,280.3906 L778.8,280.3906 A2,2 0 0 1 776.8,278.3906 L776.8,137.5906 A2,2 0 0 1 778.8,135.5906 " fill="none" style="stroke:#000000;stroke-width:1.2000000000000002;"/><line style="stroke:#000000;stroke-width:1.2000000000000002;" x1="776.8" x2="841.6" y1="153.5813" y2="153.5813"/><text fill="#000000" font-family="sans-serif" font-size="11.2" font-weight="bold" lengthAdjust="spacing" textLength="54.4" x="780" y="148.0188">ethereum</text></g><!--cluster starknet--><g id="cluster_starknet"><path d="M530.8,135.5906 L579.6,135.5906 A3,3 0 0 1 581.6,137.5906 L587.2,153.5813 L755.6,153.5813 A2,2 0 0 1 757.6,155.5813 L757.6,351.9906 A2,2 0 0 1 755.6,353.9906 L530.8,353.9906 A2,2 0 0 1 528.8,351.9906 L528.8,137.5906 A2,2 0 0 1 530.8,135.5906 " fill="none" style="stroke:#000000;stroke-width:1.2000000000000002;"/><line style="stroke:#000000;stroke-width:1.2000000000000002;" x1="528.8" x2="587.2" y1="153.5813" y2="153.5813"/><text fill="#000000" font-family="sans-serif" font-size="11.2" font-weight="bold" lengthAdjust="spacing" textLength="48" x="532" y="148.0188">starknet</text></g><!--cluster withdrawers--><g id="cluster_withdrawers"><path d="M171.6,135.5906 L243.6,135.5906 A3,3 0 0 1 245.6,137.5906 L251.2,153.5813 L507.6,153.5813 A2,2 0 0 1 509.6,155.5813 L509.6,278.3906 A2,2 0 0 1 507.6,280.3906 L171.6,280.3906 A2,2 0 0 1 169.6,278.3906 L169.6,137.5906 A2,2 0 0 1 171.6,135.5906 " fill="none" style="stroke:#000000;stroke-width:1.2000000000000002;"/><line style="stroke:#000000;stroke-width:1.2000000000000002;" x1="169.6" x2="251.2" y1="153.5813" y2="153.5813"/><text fill="#000000" font-family="sans-serif" font-size="11.2" font-weight="bold" lengthAdjust="spacing" textLength="71.2" x="172.8" y="148.0188">withdrawers</text></g><!--cluster persistence--><g id="cluster_persistence"><path d="M1069.6,209.9906 C1069.6,201.9906 1226,201.9906 1226,201.9906 C1226,201.9906 1382.4,201.9906 1382.4,209.9906 L1382.4,272.3906 C1382.4,280.3906 1226,280.3906 1226,280.3906 C1226,280.3906 1069.6,280.3906 1069.6,272.3906 L1069.6,209.9906 " fill="none" style="stroke:#181818;stroke-width:0.8000000000000002;"/><path d="M1069.6,209.9906 C1069.6,217.9906 1226,217.9906 1226,217.9906 C1226,217.9906 1382.4,217.9906 1382.4,209.9906 " fill="none" style="stroke:#181818;stroke-width:0.8000000000000002;"/><text fill="#000000" font-family="sans-serif" font-size="11.2" font-weight="bold" lengthAdjust="spacing" textLength="65.6" x="1193.2" y="230.4188">persistence</text></g><!--cluster models--><g id="cluster_models"><path d="M1403.6,34.7906 L1446.8,34.7906 A3,3 0 0 1 1448.8,36.7906 L1454.4,52.7813 L1562,52.7813 A2,2 0 0 1 1564,54.7813 L1564,278.3906 A2,2 0 0 1 1562,280.3906 L1403.6,280.3906 A2,2 0 0 1 1401.6,278.3906 L1401.6,36.7906 A2,2 0 0 1 1403.6,34.7906 " fill="none" style="stroke:#000000;stroke-width:1.2000000000000002;"/><line style="stroke:#000000;stroke-width:1.2000000000000002;" x1="1401.6" x2="1454.4" y1="52.7813" y2="52.7813"/><text fill="#000000" font-family="sans-serif" font-size="11.2" font-weight="bold" lengthAdjust="spacing" textLength="42.4" x="1404.8" y="47.2188">models</text></g><!--class Herodotus--><g id="elem_Herodotus"><rect codeLine="55" fill="#F1F1F1" height="25.6" id="Herodotus" rx="2" ry="2" style="stroke:#181818;stroke-width:0.4000000000000001;" width="83.2" x="382.4" y="315.5906"/><ellipse cx="394.4" cy="328.3906" fill="#ADD1B2" rx="8.8" ry="8.8" style="stroke:#181818;stroke-width:0.8000000000000002;"/><path d="M396.7785,332.9051 Q396.3137,333.1441 395.8023,333.2637 Q395.291,333.3832 394.7266,333.3832 Q392.7211,333.3832 391.6652,332.0617 Q390.6094,330.7402 390.6094,328.2434 Q390.6094,325.7398 391.6652,324.4184 Q392.7211,323.0969 394.7266,323.0969 Q395.291,323.0969 395.809,323.2164 Q396.327,323.3359 396.7785,323.575 L396.7785,325.7531 Q396.2738,325.2883 395.799,325.0725 Q395.3242,324.8566 394.8195,324.8566 Q393.7438,324.8566 393.1959,325.71 Q392.648,326.5633 392.648,328.2434 Q392.648,329.9168 393.1959,330.7701 Q393.7438,331.6234 394.8195,331.6234 Q395.3242,331.6234 395.799,331.4076 Q396.2738,331.1918 396.7785,330.727 Z " fill="#000000"/><text fill="#000000" font-family="sans-serif" font-size="11.2" lengthAdjust="spacing" textLength="57.6" x="405.6" y="332.6234">Herodotus</text></g><!--class OrderService--><g id="elem_OrderService"><rect codeLine="61" fill="#F1F1F1" height="25.6" id="OrderService" rx="2" ry="2" style="stroke:#181818;stroke-width:0.4000000000000001;" width="96" x="941.6" y="163.5906"/><ellipse cx="953.6" cy="176.3906" fill="#ADD1B2" rx="8.8" ry="8.8" style="stroke:#181818;stroke-width:0.8000000000000002;"/><path d="M955.9785,180.9051 Q955.5137,181.1441 955.0023,181.2637 Q954.491,181.3832 953.9266,181.3832 Q951.9211,181.3832 950.8652,180.0617 Q949.8094,178.7402 949.8094,176.2434 Q949.8094,173.7398 950.8652,172.4184 Q951.9211,171.0969 953.9266,171.0969 Q954.491,171.0969 955.009,171.2164 Q955.527,171.3359 955.9785,171.575 L955.9785,173.7531 Q955.4738,173.2883 954.999,173.0725 Q954.5242,172.8566 954.0195,172.8566 Q952.9438,172.8566 952.3959,173.71 Q951.848,174.5633 951.848,176.2434 Q951.848,177.9168 952.3959,178.7701 Q952.9438,179.6234 954.0195,179.6234 Q954.5242,179.6234 954.999,179.4076 Q955.4738,179.1918 955.9785,178.727 Z " fill="#000000"/><text fill="#000000" font-family="sans-serif" font-size="11.2" lengthAdjust="spacing" textLength="70.4" x="964.8" y="180.6234">OrderService</text></g><!--class OverallFeeCalculator--><g id="elem_OverallFeeCalculator"><rect codeLine="81" fill="#F1F1F1" height="25.6" id="OverallFeeCalculator" rx="2" ry="2" style="stroke:#181818;stroke-width:0.4000000000000001;" width="139.2" x="17.6" y="163.5906"/><ellipse cx="29.6" cy="176.3906" fill="#ADD1B2" rx="8.8" ry="8.8" style="stroke:#181818;stroke-width:0.8000000000000002;"/><path d="M31.9785,180.9051 Q31.5137,181.1441 31.0023,181.2637 Q30.491,181.3832 29.9266,181.3832 Q27.9211,181.3832 26.8652,180.0617 Q25.8094,178.7402 25.8094,176.2434 Q25.8094,173.7398 26.8652,172.4184 Q27.9211,171.0969 29.9266,171.0969 Q30.491,171.0969 31.009,171.2164 Q31.527,171.3359 31.9785,171.575 L31.9785,173.7531 Q31.4738,173.2883 30.999,173.0725 Q30.5242,172.8566 30.0195,172.8566 Q28.9438,172.8566 28.3959,173.71 Q27.848,174.5633 27.848,176.2434 Q27.848,177.9168 28.3959,178.7701 Q28.9438,179.6234 30.0195,179.6234 Q30.5242,179.6234 30.999,179.4076 Q31.4738,179.1918 31.9785,178.727 Z " fill="#000000"/><text fill="#000000" font-family="sans-serif" font-size="11.2" lengthAdjust="spacing" textLength="113.6" x="40.8" y="180.6234">OverallFeeCalculator</text></g><!--class Ethereum--><g id="elem_Ethereum"><rect codeLine="27" fill="#F1F1F1" height="25.6" id="Ethereum" rx="2" ry="2" style="stroke:#181818;stroke-width:0.4000000000000001;" width="78.4" x="801.6" y="163.5906"/><ellipse cx="813.6" cy="176.3906" fill="#ADD1B2" rx="8.8" ry="8.8" style="stroke:#181818;stroke-width:0.8000000000000002;"/><path d="M815.9785,180.9051 Q815.5137,181.1441 815.0023,181.2637 Q814.491,181.3832 813.9266,181.3832 Q811.9211,181.3832 810.8652,180.0617 Q809.8094,178.7402 809.8094,176.2434 Q809.8094,173.7398 810.8652,172.4184 Q811.9211,171.0969 813.9266,171.0969 Q814.491,171.0969 815.009,171.2164 Q815.527,171.3359 815.9785,171.575 L815.9785,173.7531 Q815.4738,173.2883 814.999,173.0725 Q814.5242,172.8566 814.0195,172.8566 Q812.9438,172.8566 812.3959,173.71 Q811.848,174.5633 811.848,176.2434 Q811.848,177.9168 812.3959,178.7701 Q812.9438,179.6234 814.0195,179.6234 Q814.5242,179.6234 814.999,179.4076 Q815.4738,179.1918 815.9785,178.727 Z " fill="#000000"/><text fill="#000000" font-family="sans-serif" font-size="11.2" lengthAdjust="spacing" textLength="52.8" x="824.8" y="180.6234">Ethereum</text></g><!--class EthereumRpcNode--><g id="elem_EthereumRpcNode"><rect codeLine="48" fill="#F1F1F1" height="25.6" id="EthereumRpcNode" rx="2" ry="2" style="stroke:#181818;stroke-width:0.4000000000000001;" width="127.2" x="789.2" y="241.9906"/><ellipse cx="801.2" cy="254.7906" fill="#ADD1B2" rx="8.8" ry="8.8" style="stroke:#181818;stroke-width:0.8000000000000002;"/><path d="M803.5785,259.3051 Q803.1137,259.5441 802.6023,259.6637 Q802.091,259.7832 801.5266,259.7832 Q799.5211,259.7832 798.4652,258.4617 Q797.4094,257.1402 797.4094,254.6434 Q797.4094,252.1398 798.4652,250.8184 Q799.5211,249.4969 801.5266,249.4969 Q802.091,249.4969 802.609,249.6164 Q803.127,249.7359 803.5785,249.975 L803.5785,252.1531 Q803.0738,251.6883 802.599,251.4725 Q802.1242,251.2566 801.6195,251.2566 Q800.5438,251.2566 799.9959,252.11 Q799.448,252.9633 799.448,254.6434 Q799.448,256.3168 799.9959,257.1701 Q800.5438,258.0234 801.6195,258.0234 Q802.1242,258.0234 802.599,257.8076 Q803.0738,257.5918 803.5785,257.127 Z " fill="#000000"/><text fill="#000000" font-family="sans-serif" font-size="11.2" lengthAdjust="spacing" textLength="101.6" x="812.4" y="259.0234">EthereumRpcNode</text></g><!--class Starknet--><g id="elem_Starknet"><rect codeLine="89" fill="#F1F1F1" height="25.6" id="Starknet" rx="2" ry="2" style="stroke:#181818;stroke-width:0.4000000000000001;" width="71.2" x="674" y="163.5906"/><ellipse cx="686" cy="176.3906" fill="#ADD1B2" rx="8.8" ry="8.8" style="stroke:#181818;stroke-width:0.8000000000000002;"/><path d="M688.3785,180.9051 Q687.9137,181.1441 687.4023,181.2637 Q686.891,181.3832 686.3266,181.3832 Q684.3211,181.3832 683.2652,180.0617 Q682.2094,178.7402 682.2094,176.2434 Q682.2094,173.7398 683.2652,172.4184 Q684.3211,171.0969 686.3266,171.0969 Q686.891,171.0969 687.409,171.2164 Q687.927,171.3359 688.3785,171.575 L688.3785,173.7531 Q687.8738,173.2883 687.399,173.0725 Q686.9242,172.8566 686.4195,172.8566 Q685.3438,172.8566 684.7959,173.71 Q684.248,174.5633 684.248,176.2434 Q684.248,177.9168 684.7959,178.7701 Q685.3438,179.6234 686.4195,179.6234 Q686.9242,179.6234 687.399,179.4076 Q687.8738,179.1918 688.3785,178.727 Z " fill="#000000"/><text fill="#000000" font-family="sans-serif" font-size="11.2" lengthAdjust="spacing" textLength="45.6" x="697.2" y="180.6234">Starknet</text></g><!--class StarknetRpcNode--><g id="elem_StarknetRpcNode"><rect codeLine="112" fill="#F1F1F1" height="25.6" id="StarknetRpcNode" rx="2" ry="2" style="stroke:#181818;stroke-width:0.4000000000000001;" width="120" x="623.2" y="241.9906"/><ellipse cx="635.2" cy="254.7906" fill="#ADD1B2" rx="8.8" ry="8.8" style="stroke:#181818;stroke-width:0.8000000000000002;"/><path d="M637.5785,259.3051 Q637.1137,259.5441 636.6023,259.6637 Q636.091,259.7832 635.5266,259.7832 Q633.5211,259.7832 632.4652,258.4617 Q631.4094,257.1402 631.4094,254.6434 Q631.4094,252.1398 632.4652,250.8184 Q633.5211,249.4969 635.5266,249.4969 Q636.091,249.4969 636.609,249.6164 Q637.127,249.7359 637.5785,249.975 L637.5785,252.1531 Q637.0738,251.6883 636.599,251.4725 Q636.1242,251.2566 635.6195,251.2566 Q634.5438,251.2566 633.9959,252.11 Q633.448,252.9633 633.448,254.6434 Q633.448,256.3168 633.9959,257.1701 Q634.5438,258.0234 635.6195,258.0234 Q636.1242,258.0234 636.599,257.8076 Q637.0738,257.5918 637.5785,257.127 Z " fill="#000000"/><text fill="#000000" font-family="sans-serif" font-size="11.2" lengthAdjust="spacing" textLength="94.4" x="646.4" y="259.0234">StarknetRpcNode</text></g><!--class MMFullNodeClient--><g id="elem_MMFullNodeClient"><rect codeLine="119" fill="#F1F1F1" height="25.6" id="MMFullNodeClient" rx="2" ry="2" style="stroke:#181818;stroke-width:0.4000000000000001;" width="125.6" x="618.8" y="315.5906"/><ellipse cx="630.8" cy="328.3906" fill="#ADD1B2" rx="8.8" ry="8.8" style="stroke:#181818;stroke-width:0.8000000000000002;"/><path d="M633.1785,332.9051 Q632.7137,333.1441 632.2023,333.2637 Q631.691,333.3832 631.1266,333.3832 Q629.1211,333.3832 628.0652,332.0617 Q627.0094,330.7402 627.0094,328.2434 Q627.0094,325.7398 628.0652,324.4184 Q629.1211,323.0969 631.1266,323.0969 Q631.691,323.0969 632.209,323.2164 Q632.727,323.3359 633.1785,323.575 L633.1785,325.7531 Q632.6738,325.2883 632.199,325.0725 Q631.7242,324.8566 631.2195,324.8566 Q630.1438,324.8566 629.5959,325.71 Q629.048,326.5633 629.048,328.2434 Q629.048,329.9168 629.5959,330.7701 Q630.1438,331.6234 631.2195,331.6234 Q631.7242,331.6234 632.199,331.4076 Q632.6738,331.1918 633.1785,330.727 Z " fill="#000000"/><text fill="#000000" font-family="sans-serif" font-size="11.2" lengthAdjust="spacing" textLength="100" x="642" y="332.6234">MMFullNodeClient</text></g><!--class SetOrderEvent--><g id="elem_SetOrderEvent"><rect codeLine="123" fill="#F1F1F1" height="25.6" id="SetOrderEvent" rx="2" ry="2" style="stroke:#181818;stroke-width:0.4000000000000001;" width="104" x="541.6" y="163.5906"/><ellipse cx="553.6" cy="176.3906" fill="#ADD1B2" rx="8.8" ry="8.8" style="stroke:#181818;stroke-width:0.8000000000000002;"/><path d="M555.9785,180.9051 Q555.5137,181.1441 555.0023,181.2637 Q554.491,181.3832 553.9266,181.3832 Q551.9211,181.3832 550.8652,180.0617 Q549.8094,178.7402 549.8094,176.2434 Q549.8094,173.7398 550.8652,172.4184 Q551.9211,171.0969 553.9266,171.0969 Q554.491,171.0969 555.009,171.2164 Q555.527,171.3359 555.9785,171.575 L555.9785,173.7531 Q555.4738,173.2883 554.999,173.0725 Q554.5242,172.8566 554.0195,172.8566 Q552.9438,172.8566 552.3959,173.71 Q551.848,174.5633 551.848,176.2434 Q551.848,177.9168 552.3959,178.7701 Q552.9438,179.6234 554.0195,179.6234 Q554.5242,179.6234 554.999,179.4076 Q555.4738,179.1918 555.9785,178.727 Z " fill="#000000"/><text fill="#000000" font-family="sans-serif" font-size="11.2" lengthAdjust="spacing" textLength="78.4" x="564.8" y="180.6234">SetOrderEvent</text></g><!--class Withdrawer--><g id="elem_Withdrawer"><rect codeLine="135" fill="#F1F1F1" height="25.6" id="Withdrawer" rx="2" ry="2" style="stroke:#181818;stroke-width:0.4000000000000001;" width="88" x="380" y="163.5906"/><ellipse cx="392" cy="176.3906" fill="#B4A7E5" rx="8.8" ry="8.8" style="stroke:#181818;stroke-width:0.8000000000000002;"/><path d="M388.7422,173.0027 L388.7422,171.2762 L394.6457,171.2762 L394.6457,173.0027 L392.6734,173.0027 L392.6734,179.4641 L394.6457,179.4641 L394.6457,181.1906 L388.7422,181.1906 L388.7422,179.4641 L390.7145,179.4641 L390.7145,173.0027 Z " fill="#000000"/><text fill="#000000" font-family="sans-serif" font-size="11.2" font-style="italic" lengthAdjust="spacing" textLength="62.4" x="403.2" y="180.6234">Withdrawer</text></g><!--class EthereumWithdrawer--><g id="elem_EthereumWithdrawer"><rect codeLine="142" fill="#F1F1F1" height="25.6" id="EthereumWithdrawer" rx="2" ry="2" style="stroke:#181818;stroke-width:0.4000000000000001;" width="140.8" x="182.4" y="241.9906"/><ellipse cx="194.4" cy="254.7906" fill="#ADD1B2" rx="8.8" ry="8.8" style="stroke:#181818;stroke-width:0.8000000000000002;"/><path d="M196.7785,259.3051 Q196.3137,259.5441 195.8023,259.6637 Q195.291,259.7832 194.7266,259.7832 Q192.7211,259.7832 191.6652,258.4617 Q190.6094,257.1402 190.6094,254.6434 Q190.6094,252.1398 191.6652,250.8184 Q192.7211,249.4969 194.7266,249.4969 Q195.291,249.4969 195.809,249.6164 Q196.327,249.7359 196.7785,249.975 L196.7785,252.1531 Q196.2738,251.6883 195.799,251.4725 Q195.3242,251.2566 194.8195,251.2566 Q193.7438,251.2566 193.1959,252.11 Q192.648,252.9633 192.648,254.6434 Q192.648,256.3168 193.1959,257.1701 Q193.7438,258.0234 194.8195,258.0234 Q195.3242,258.0234 195.799,257.8076 Q196.2738,257.5918 196.7785,257.127 Z " fill="#000000"/><text fill="#000000" font-family="sans-serif" font-size="11.2" lengthAdjust="spacing" textLength="115.2" x="205.6" y="259.0234">EthereumWithdrawer</text></g><!--class HerodotusWithdrawer--><g id="elem_HerodotusWithdrawer"><rect codeLine="147" fill="#F1F1F1" height="25.6" id="HerodotusWithdrawer" rx="2" ry="2" style="stroke:#181818;stroke-width:0.4000000000000001;" width="145.6" x="351.2" y="241.9906"/><ellipse cx="363.2" cy="254.7906" fill="#ADD1B2" rx="8.8" ry="8.8" style="stroke:#181818;stroke-width:0.8000000000000002;"/><path d="M365.5785,259.3051 Q365.1137,259.5441 364.6023,259.6637 Q364.091,259.7832 363.5266,259.7832 Q361.5211,259.7832 360.4652,258.4617 Q359.4094,257.1402 359.4094,254.6434 Q359.4094,252.1398 360.4652,250.8184 Q361.5211,249.4969 363.5266,249.4969 Q364.091,249.4969 364.609,249.6164 Q365.127,249.7359 365.5785,249.975 L365.5785,252.1531 Q365.0738,251.6883 364.599,251.4725 Q364.1242,251.2566 363.6195,251.2566 Q362.5438,251.2566 361.9959,252.11 Q361.448,252.9633 361.448,254.6434 Q361.448,256.3168 361.9959,257.1701 Q362.5438,258.0234 363.6195,258.0234 Q364.1242,258.0234 364.599,257.8076 Q365.0738,257.5918 365.5785,257.127 Z " fill="#000000"/><text fill="#000000" font-family="sans-serif" font-size="11.2" lengthAdjust="spacing" textLength="120" x="374.4" y="259.0234">HerodotusWithdrawer</text></g><!--class BlockDao--><g id="elem_BlockDao"><rect codeLine="155" fill="#F1F1F1" height="25.6" id="BlockDao" rx="2" ry="2" style="stroke:#181818;stroke-width:0.4000000000000001;" width="76" x="1294" y="241.9906"/><ellipse cx="1306" cy="254.7906" fill="#ADD1B2" rx="8.8" ry="8.8" style="stroke:#181818;stroke-width:0.8000000000000002;"/><path d="M1308.3785,259.3051 Q1307.9137,259.5441 1307.4023,259.6637 Q1306.891,259.7832 1306.3266,259.7832 Q1304.3211,259.7832 1303.2652,258.4617 Q1302.2094,257.1402 1302.2094,254.6434 Q1302.2094,252.1398 1303.2652,250.8184 Q1304.3211,249.4969 1306.3266,249.4969 Q1306.891,249.4969 1307.409,249.6164 Q1307.927,249.7359 1308.3785,249.975 L1308.3785,252.1531 Q1307.8738,251.6883 1307.399,251.4725 Q1306.9242,251.2566 1306.4195,251.2566 Q1305.3438,251.2566 1304.7959,252.11 Q1304.248,252.9633 1304.248,254.6434 Q1304.248,256.3168 1304.7959,257.1701 Q1305.3438,258.0234 1306.4195,258.0234 Q1306.9242,258.0234 1307.399,257.8076 Q1307.8738,257.5918 1308.3785,257.127 Z " fill="#000000"/><text fill="#000000" font-family="sans-serif" font-size="11.2" lengthAdjust="spacing" textLength="50.4" x="1317.2" y="259.0234">BlockDao</text></g><!--class ErrorDao--><g id="elem_ErrorDao"><rect codeLine="161" fill="#F1F1F1" height="25.6" id="ErrorDao" rx="2" ry="2" style="stroke:#181818;stroke-width:0.4000000000000001;" width="75.2" x="1190.4" y="241.9906"/><ellipse cx="1202.4" cy="254.7906" fill="#ADD1B2" rx="8.8" ry="8.8" style="stroke:#181818;stroke-width:0.8000000000000002;"/><path d="M1204.7785,259.3051 Q1204.3137,259.5441 1203.8023,259.6637 Q1203.291,259.7832 1202.7266,259.7832 Q1200.7211,259.7832 1199.6652,258.4617 Q1198.6094,257.1402 1198.6094,254.6434 Q1198.6094,252.1398 1199.6652,250.8184 Q1200.7211,249.4969 1202.7266,249.4969 Q1203.291,249.4969 1203.809,249.6164 Q1204.327,249.7359 1204.7785,249.975 L1204.7785,252.1531 Q1204.2738,251.6883 1203.799,251.4725 Q1203.3242,251.2566 1202.8195,251.2566 Q1201.7438,251.2566 1201.1959,252.11 Q1200.648,252.9633 1200.648,254.6434 Q1200.648,256.3168 1201.1959,257.1701 Q1201.7438,258.0234 1202.8195,258.0234 Q1203.3242,258.0234 1203.799,257.8076 Q1204.2738,257.5918 1204.7785,257.127 Z " fill="#000000"/><text fill="#000000" font-family="sans-serif" font-size="11.2" lengthAdjust="spacing" textLength="49.6" x="1213.6" y="259.0234">ErrorDao</text></g><!--class OrderDao--><g id="elem_OrderDao"><rect codeLine="166" fill="#F1F1F1" height="25.6" id="OrderDao" rx="2" ry="2" style="stroke:#181818;stroke-width:0.4000000000000001;" width="79.2" x="1082.8" y="241.9906"/><ellipse cx="1094.8" cy="254.7906" fill="#ADD1B2" rx="8.8" ry="8.8" style="stroke:#181818;stroke-width:0.8000000000000002;"/><path d="M1097.1785,259.3051 Q1096.7137,259.5441 1096.2023,259.6637 Q1095.691,259.7832 1095.1266,259.7832 Q1093.1211,259.7832 1092.0652,258.4617 Q1091.0094,257.1402 1091.0094,254.6434 Q1091.0094,252.1398 1092.0652,250.8184 Q1093.1211,249.4969 1095.1266,249.4969 Q1095.691,249.4969 1096.209,249.6164 Q1096.727,249.7359 1097.1785,249.975 L1097.1785,252.1531 Q1096.6738,251.6883 1096.199,251.4725 Q1095.7242,251.2566 1095.2195,251.2566 Q1094.1438,251.2566 1093.5959,252.11 Q1093.048,252.9633 1093.048,254.6434 Q1093.048,256.3168 1093.5959,257.1701 Q1094.1438,258.0234 1095.2195,258.0234 Q1095.7242,258.0234 1096.199,257.8076 Q1096.6738,257.5918 1097.1785,257.127 Z " fill="#000000"/><text fill="#000000" font-family="sans-serif" font-size="11.2" lengthAdjust="spacing" textLength="53.6" x="1106" y="259.0234">OrderDao</text></g><!--class Block--><g id="elem_Block"><rect codeLine="179" fill="#F1F1F1" height="25.6" id="Block" rx="2" ry="2" style="stroke:#181818;stroke-width:0.4000000000000001;" width="54.4" x="1496.8" y="62.7906"/><ellipse cx="1508.8" cy="75.5906" fill="#ADD1B2" rx="8.8" ry="8.8" style="stroke:#181818;stroke-width:0.8000000000000002;"/><path d="M1511.1785,80.1051 Q1510.7137,80.3441 1510.2023,80.4637 Q1509.691,80.5832 1509.1266,80.5832 Q1507.1211,80.5832 1506.0652,79.2617 Q1505.0094,77.9402 1505.0094,75.4434 Q1505.0094,72.9398 1506.0652,71.6184 Q1507.1211,70.2969 1509.1266,70.2969 Q1509.691,70.2969 1510.209,70.4164 Q1510.727,70.5359 1511.1785,70.775 L1511.1785,72.9531 Q1510.6738,72.4883 1510.199,72.2725 Q1509.7242,72.0566 1509.2195,72.0566 Q1508.1438,72.0566 1507.5959,72.91 Q1507.048,73.7633 1507.048,75.4434 Q1507.048,77.1168 1507.5959,77.9701 Q1508.1438,78.8234 1509.2195,78.8234 Q1509.7242,78.8234 1510.199,78.6076 Q1510.6738,78.3918 1511.1785,77.927 Z " fill="#000000"/><text fill="#000000" font-family="sans-serif" font-size="11.2" lengthAdjust="spacing" textLength="28.8" x="1520" y="79.8234">Block</text></g><!--class Error--><g id="elem_Error"><rect codeLine="185" fill="#F1F1F1" height="25.6" id="Error" rx="2" ry="2" style="stroke:#181818;stroke-width:0.4000000000000001;" width="53.6" x="1414.8" y="62.7906"/><ellipse cx="1426.8" cy="75.5906" fill="#ADD1B2" rx="8.8" ry="8.8" style="stroke:#181818;stroke-width:0.8000000000000002;"/><path d="M1429.1785,80.1051 Q1428.7137,80.3441 1428.2023,80.4637 Q1427.691,80.5832 1427.1266,80.5832 Q1425.1211,80.5832 1424.0652,79.2617 Q1423.0094,77.9402 1423.0094,75.4434 Q1423.0094,72.9398 1424.0652,71.6184 Q1425.1211,70.2969 1427.1266,70.2969 Q1427.691,70.2969 1428.209,70.4164 Q1428.727,70.5359 1429.1785,70.775 L1429.1785,72.9531 Q1428.6738,72.4883 1428.199,72.2725 Q1427.7242,72.0566 1427.2195,72.0566 Q1426.1438,72.0566 1425.5959,72.91 Q1425.048,73.7633 1425.048,75.4434 Q1425.048,77.1168 1425.5959,77.9701 Q1426.1438,78.8234 1427.2195,78.8234 Q1427.7242,78.8234 1428.199,78.6076 Q1428.6738,78.3918 1429.1785,77.927 Z " fill="#000000"/><text fill="#000000" font-family="sans-serif" font-size="11.2" lengthAdjust="spacing" textLength="28" x="1438" y="79.8234">Error</text></g><!--class Order--><g id="elem_Order"><rect codeLine="192" fill="#F1F1F1" height="25.6" id="Order" rx="2" ry="2" style="stroke:#181818;stroke-width:0.4000000000000001;" width="57.6" x="1422.4" y="163.5906"/><ellipse cx="1434.4" cy="176.3906" fill="#ADD1B2" rx="8.8" ry="8.8" style="stroke:#181818;stroke-width:0.8000000000000002;"/><path d="M1436.7785,180.9051 Q1436.3137,181.1441 1435.8023,181.2637 Q1435.291,181.3832 1434.7266,181.3832 Q1432.7211,181.3832 1431.6652,180.0617 Q1430.6094,178.7402 1430.6094,176.2434 Q1430.6094,173.7398 1431.6652,172.4184 Q1432.7211,171.0969 1434.7266,171.0969 Q1435.291,171.0969 1435.809,171.2164 Q1436.327,171.3359 1436.7785,171.575 L1436.7785,173.7531 Q1436.2738,173.2883 1435.799,173.0725 Q1435.3242,172.8566 1434.8195,172.8566 Q1433.7438,172.8566 1433.1959,173.71 Q1432.648,174.5633 1432.648,176.2434 Q1432.648,177.9168 1433.1959,178.7701 Q1433.7438,179.6234 1434.8195,179.6234 Q1435.3242,179.6234 1435.799,179.4076 Q1436.2738,179.1918 1436.7785,178.727 Z " fill="#000000"/><text fill="#000000" font-family="sans-serif" font-size="11.2" lengthAdjust="spacing" textLength="32" x="1445.6" y="180.6234">Order</text></g><!--class OrderStatus--><g id="elem_OrderStatus"><rect codeLine="215" fill="#F1F1F1" height="25.6" id="OrderStatus" rx="2" ry="2" style="stroke:#181818;stroke-width:0.4000000000000001;" width="91.2" x="1414.4" y="241.9906"/><ellipse cx="1426.4" cy="254.7906" fill="#EB937F" rx="8.8" ry="8.8" style="stroke:#181818;stroke-width:0.8000000000000002;"/><path d="M1429.6914,259.5906 L1423.5156,259.5906 L1423.5156,249.6762 L1429.6914,249.6762 L1429.6914,251.4027 L1425.4746,251.4027 L1425.4746,253.541 L1429.293,253.541 L1429.293,255.2676 L1425.4746,255.2676 L1425.4746,257.8641 L1429.6914,257.8641 Z " fill="#000000"/><text fill="#000000" font-family="sans-serif" font-size="11.2" lengthAdjust="spacing" textLength="65.6" x="1437.6" y="259.0234">OrderStatus</text></g><!--class MM--><g id="elem_MM"><rect codeLine="5" fill="#F1F1F1" height="25.6" id="MM" rx="2" ry="2" style="stroke:#181818;stroke-width:0.4000000000000001;" width="44.8" x="752.8" y="62.7906"/><ellipse cx="764.8" cy="75.5906" fill="#ADD1B2" rx="8.8" ry="8.8" style="stroke:#181818;stroke-width:0.8000000000000002;"/><path d="M767.1785,80.1051 Q766.7137,80.3441 766.2023,80.4637 Q765.691,80.5832 765.1266,80.5832 Q763.1211,80.5832 762.0652,79.2617 Q761.0094,77.9402 761.0094,75.4434 Q761.0094,72.9398 762.0652,71.6184 Q763.1211,70.2969 765.1266,70.2969 Q765.691,70.2969 766.209,70.4164 Q766.727,70.5359 767.1785,70.775 L767.1785,72.9531 Q766.6738,72.4883 766.199,72.2725 Q765.7242,72.0566 765.2195,72.0566 Q764.1438,72.0566 763.5959,72.91 Q763.048,73.7633 763.048,75.4434 Q763.048,77.1168 763.5959,77.9701 Q764.1438,78.8234 765.2195,78.8234 Q765.7242,78.8234 766.199,78.6076 Q766.6738,78.3918 767.1785,77.927 Z " fill="#000000"/><text fill="#000000" font-family="sans-serif" font-size="11.2" lengthAdjust="spacing" textLength="19.2" x="776" y="79.8234">MM</text></g><!--reverse link MM to Ethereum--><g id="link_MM_Ethereum"><path codeLine="46" d="M788.6702,96.7589 C801.3102,115.8789 820.152,144.3666 832.728,163.3826 " fill="none" id="MM-backto-Ethereum" style="stroke:#181818;stroke-width:0.8000000000000002;"/><polygon fill="#181818" points="783.376,88.7506,783.3537,94.5195,788.6702,96.7589,788.6925,90.99,783.376,88.7506" style="stroke:#181818;stroke-width:0.8000000000000002;"/></g><!--reverse link Ethereum to EthereumRpcNode--><g id="link_Ethereum_EthereumRpcNode"><path codeLine="53" d="M844.21,199.0115 C846.45,213.3475 848.64,227.3666 850.88,241.6786 " fill="none" id="Ethereum-backto-EthereumRpcNode" style="stroke:#181818;stroke-width:0.8000000000000002;"/><polygon fill="#181818" points="842.728,189.5266,840.3074,194.7631,844.21,199.0115,846.6306,193.7751,842.728,189.5266" style="stroke:#181818;stroke-width:0.8000000000000002;"/></g><!--reverse link MM to OrderService--><g id="link_MM_OrderService"><path codeLine="79" d="M807.5145,77.2767 C844.7065,78.5407 907.04,82.2626 928.8,94.7906 C956.488,110.7346 975.536,144.8466 984.24,163.2386 " fill="none" id="MM-backto-OrderService" style="stroke:#181818;stroke-width:0.8000000000000002;"/><polygon fill="#181818" points="797.92,76.9506,802.6085,80.3118,807.5145,77.2767,802.8259,73.9155,797.92,76.9506" style="stroke:#181818;stroke-width:0.8000000000000002;"/></g><!--reverse link MM to OverallFeeCalculator--><g id="link_MM_OverallFeeCalculator"><path codeLine="87" d="M743.0245,76.7162 C636.3925,77.8442 196.872,83.1666 169.6,94.7906 C135.688,109.2466 107.96,144.6626 95.04,163.4386 " fill="none" id="MM-backto-OverallFeeCalculator" style="stroke:#181818;stroke-width:0.8000000000000002;"/><polygon fill="#181818" points="752.624,76.6146,747.7904,73.4656,743.0245,76.7162,747.8581,79.8652,752.624,76.6146" style="stroke:#181818;stroke-width:0.8000000000000002;"/></g><!--reverse link MM to Starknet--><g id="link_MM_Starknet"><path codeLine="110" d="M761.7298,96.7589 C749.0898,115.8789 730.248,144.3666 717.672,163.3826 " fill="none" id="MM-backto-Starknet" style="stroke:#181818;stroke-width:0.8000000000000002;"/><polygon fill="#181818" points="767.024,88.7506,761.7075,90.99,761.7298,96.7589,767.0463,94.5195,767.024,88.7506" style="stroke:#181818;stroke-width:0.8000000000000002;"/></g><!--reverse link Starknet to StarknetRpcNode--><g id="link_Starknet_StarknetRpcNode"><path codeLine="117" d="M702.2392,198.6052 C697.3112,212.9412 692.352,227.3666 687.432,241.6786 " fill="none" id="Starknet-backto-StarknetRpcNode" style="stroke:#181818;stroke-width:0.8000000000000002;"/><polygon fill="#181818" points="705.36,189.5266,700.7734,193.0257,702.2392,198.6052,706.8258,195.1062,705.36,189.5266" style="stroke:#181818;stroke-width:0.8000000000000002;"/></g><!--reverse link StarknetRpcNode to MMFullNodeClient--><g id="link_StarknetRpcNode_MMFullNodeClient"><path codeLine="121" d="M682.7134,277.4042 C682.4174,290.6442 682.168,302.0546 681.872,315.3186 " fill="none" id="StarknetRpcNode-backto-MMFullNodeClient" style="stroke:#181818;stroke-width:0.8000000000000002;"/><polygon fill="#181818" points="682.928,267.8066,679.6215,272.5339,682.7134,277.4042,686.0199,272.6769,682.928,267.8066" style="stroke:#181818;stroke-width:0.8000000000000002;"/></g><!--reverse link MM to Withdrawer--><g id="link_MM_Withdrawer"><path codeLine="140" d="M743.1282,76.4946 C690.3282,76.8466 569.36,79.2626 528.8,94.7906 C489.536,109.8226 452.856,144.6546 435.128,163.2946 " fill="none" id="MM-backto-Withdrawer" style="stroke:#181818;stroke-width:0.8000000000000002;"/><polygon fill="#181818" points="752.728,76.4306,747.9068,73.2627,743.1282,76.4946,747.9494,79.6626,752.728,76.4306" style="stroke:#181818;stroke-width:0.8000000000000002;"/></g><!--reverse link Withdrawer to EthereumWithdrawer--><g id="link_Withdrawer_EthereumWithdrawer"><path codeLine="145" d="M365.7509,191.6744 C348.1189,195.3224 353.496,188.8626 336.8,195.5906 C309.288,206.6786 281.928,228.1506 266.224,241.7426 " fill="none" id="Withdrawer-backto-EthereumWithdrawer" style="stroke:#181818;stroke-width:0.8000000000000002;"/><polygon fill="none" points="379.808,188.5506,364.7096,186.9887,366.7922,196.3601,379.808,188.5506" style="stroke:#181818;stroke-width:0.8000000000000002;"/></g><!--reverse link Withdrawer to HerodotusWithdrawer--><g id="link_Withdrawer_HerodotusWithdrawer"><path codeLine="149" d="M424,203.9266 C424,218.2626 424,227.3666 424,241.6786 " fill="none" id="Withdrawer-backto-HerodotusWithdrawer" style="stroke:#181818;stroke-width:0.8000000000000002;"/><polygon fill="none" points="424,189.5266,419.2,203.9266,428.8,203.9266,424,189.5266" style="stroke:#181818;stroke-width:0.8000000000000002;"/></g><!--reverse link HerodotusWithdrawer to Herodotus--><g id="link_HerodotusWithdrawer_Herodotus"><path codeLine="150" d="M424,277.4066 C424,290.6466 424,302.0546 424,315.3186 " fill="none" id="HerodotusWithdrawer-backto-Herodotus" style="stroke:#181818;stroke-width:0.8000000000000002;"/><polygon fill="#181818" points="424,267.8066,420.8,272.6066,424,277.4066,427.2,272.6066,424,267.8066" style="stroke:#181818;stroke-width:0.8000000000000002;"/></g><!--reverse link MM to BlockDao--><g id="link_MM_BlockDao"><path codeLine="159" d="M807.5329,77.1451 C864.5329,78.5851 1002.728,83.1106 1050.4,94.7906 C1158.648,121.3026 1189.848,130.0706 1280,195.5906 C1297.896,208.5986 1314.088,228.7186 1323.488,241.6226 " fill="none" id="MM-backto-BlockDao" style="stroke:#181818;stroke-width:0.8000000000000002;"/><polygon fill="#181818" points="797.936,76.9026,802.6537,80.2228,807.5329,77.1451,802.8153,73.8249,797.936,76.9026" style="stroke:#181818;stroke-width:0.8000000000000002;"/></g><!--reverse link OrderService to ErrorDao--><g id="link_OrderService_ErrorDao"><path codeLine="164" d="M1047.5151,178.3118 C1094.5551,179.8078 1152.672,183.7186 1176,195.5906 C1196.328,205.9346 1212.368,227.8546 1220.992,241.7026 " fill="none" id="OrderService-backto-ErrorDao" style="stroke:#181818;stroke-width:0.8000000000000002;"/><polygon fill="#181818" points="1037.92,178.0066,1042.6159,181.3576,1047.5151,178.3118,1042.8193,174.9608,1037.92,178.0066" style="stroke:#181818;stroke-width:0.8000000000000002;"/></g><!--reverse link OrderService to OrderDao--><g id="link_OrderService_OrderDao"><path codeLine="175" d="M1019.2459,194.3334 C1044.0299,208.6694 1076.36,227.3666 1101.12,241.6786 " fill="none" id="OrderService-backto-OrderDao" style="stroke:#181818;stroke-width:0.8000000000000002;"/><polygon fill="#181818" points="1010.936,189.5266,1013.4887,194.7,1019.2459,194.3334,1016.6932,189.16,1010.936,189.5266" style="stroke:#181818;stroke-width:0.8000000000000002;"/></g><!--reverse link Error to Order--><g id="link_Error_Order"><path codeLine="213" d="M1443.7236,98.3061 C1445.5716,117.4261 1448.176,144.3666 1450.016,163.3826 " fill="none" id="Error-backto-Order" style="stroke:#181818;stroke-width:0.8000000000000002;"/><polygon fill="#181818" points="1442.8,88.7506,1440.0766,93.8362,1443.7236,98.3061,1446.4469,93.2205,1442.8,88.7506" style="stroke:#181818;stroke-width:0.8000000000000002;"/></g><!--reverse link Order to OrderStatus--><g id="link_Order_OrderStatus"><path codeLine="225" d="M1453.7071,199.0644 C1455.3471,213.4004 1456.952,227.3666 1458.592,241.6786 " fill="none" id="Order-backto-OrderStatus" style="stroke:#181818;stroke-width:0.8000000000000002;"/><polygon fill="#181818" points="1452.616,189.5266,1449.9823,194.6592,1453.7071,199.0644,1456.3408,193.9318,1452.616,189.5266" style="stroke:#181818;stroke-width:0.8000000000000002;"/></g><!--SRC=[rLZTRzis47_NNq7aIMxS0MkneJ2A0blYR0NoXRXh7uf0e2NQvaAB0aabCThyxpjI94LAyaUozM5vY2NwUFUxxpihgXX15nVebEAbm6jqmh2KoOeM1At9Uaw4J99SdscYRmb2eYxJ4NnMWkT4oeoBWeYCt9DIoJHycI16fHgZvamISKzpCa5N-dNMl8s1pvO_ebOPu_dT166vANFAVpg7jp5Q4S4Bhce97DUuMd51MfAPEz80Sq6m8XQVmlBEmhCGTWFR9dyBuCDHHMPx1g3annbgWIaZHOD8Pd_pUVe28FyUXhDC12TzMVJyPw0aKL64Pml1rndESr8f03dNtFVR31cwhC1yWdxNZwUOxqV_emni7JsaoVz02oLmAHVFoHrzwm5JbRtawbEIL3Y_mqk2B8KqPT0TWa94a7fj3g7ec58vZGyHoZAqnhI4agfMl93mRhyuRlKfICKbeAJ561LIPRWe01nUyxfK8q_-GDMg4FXX9_aOtMDMa_RM4iAOogoMBh6ie_LbGN9QKGXkmm82fEKYgZmhUK564pJdd2MjDhX-f8nYiHbIIKjZK7i1bGcPDE13InNHpJ73PKwsaQmm16fT5Z9jC9bl7Hn7P2lzJajcymq06b2josMdWRjSZ9c7c6dLIguLUtWxGL_8_2rSQipR4e61wDeZnxcYlCmMXAJ1-pRcIp1C9MXekSXefEJrSjMttHZfco1aq9AIb4K6oeU8KacN9SIDUXp2OX9hmKMa0uGKePLArMC6M5RTUq_cFymJhrw_zhcI3EJFJPLVmYsVHY3khN-4qgMrQlt7Iy2Ggq24pyDGa6MQD4IDm3zT-R6YZeE216NpdgGca5sjq24X6TVcaqhqRaY5uIFLCmUGRY6gE6DzIkkDfyH32ykHHnVEDb4r6zdFf8sKEDyT0VgEBdb9Na0Nz-UH_GOpW5HiCl88GvyCsVW0EmwwgUr5j5pkWj_IkzmMtHjZP8DiwzL5pHQK0UJ396btWv3CUwehhl6LxOO-3dOpSrtYcT1Dw1s8E-VhYX5rA7aXU5KTIjoul0CUd05flmOlGXyqCTwv3yMk4oxxf0tAQGwRE0hkwEIr9IHCaI1nxed0Z9qHSe9PNaD3ui8ca2-ylA4nHRU3pNMXk4Wlj3KE8DxWkUyavi8GaRNT0CEEVWEQ12C8515nLn8LZI2p-73d2AApsZ5ncvoP3fk1hwpr7ZX1vrHf75-FAkWI4DL7OtJKjFcZMoWJe9uj5eSCXOh_IEww5z2ongORANv7jlRHQ7tjAJtkuXmrM-tN6L76LLDzyRO_dRLz8YuJpncZR97lh22f-J-a12tiT_qfgpVZUKhNcXnbCoeCCggma2Iht_poQxCx5BoUCpZu-SsxbF476EBfSZKWN8VtDc27Z8bw_iXeUGzkZEQI779YWY0bs1X2-z4FDKEk7iovPWDoGozusZy3MB615WtSmFwCv91nOp30Xd5S3F4tWrC8Riy8ruvDZo7f_d79vNKoaElzSGbw7pESifnfz-yTdfm90i6-aeJYtH0LeBYuE0Df-lJ4oB8mOYOEekRLlH2f5EPNe92BzDRmhcxPNkg_w8Lyg_iwKXqYmJ-7gUuFxUBajJ73cIk-BkDX5h8m8MQ8M62Orhxux_pWPk8ahXA7hh1HsBoSHSwu92- -7yIYW6nNhmCbXoRudWaG-gQ7Nfe_jJdPDah8vJaOjjyPTs-g8RP0ulllmTW_ZDCF_ZsWmzm6w0tT49zN8Rs9c-37X0e21Xe9WHKHlNz_YXMUOqa-V33I6spkDnOVFBs26HJAOrHNXJPcH12-D0jVF5au4UtKDDLJNIZKTY4pxQNc_wGX6jbFop7QKyo-PJbrLfa1tYzOOzpskckNaMakz511iUlQdpOL-MgktDu6rBHqmxFVQdRITpQWxSmFMegittOQOT30pfnXMAsXcZBP3I9lS5iuZr4O694pYWohU04rVknpu85_RBhkOTJuwbioKCctrF5jLJoguMq5DroQN3F7nats9MRhrqa7CzxDxOxNEm_D5QpxCDhPG_tpfgzciKY_dxK20qD5qUYdi57ds2mIpgYDNtmWw2C2dSl6YJ64DVRrzFBqu-KVpVFDrSbqDdEldsv-kvoTJMzktC7PN-Td7y_FfwUE-dDmyxCzFhcwk3wVVh9lfpTNrzVcsOTfi9Or7ddw1m00]--></g></svg>