<?xml version="1.0" encoding="us-ascii" standalone="no"?><svg xmlns="http://www.w3.org/2000/svg" xmlns:xlink="http://www.w3.org/1999/xlink" contentStyleType="text/css" height="918px" preserveAspectRatio="none" style="width:1344px;height:918px;background:#FFFFFF;" version="1.1" viewBox="0 0 1344 918" width="1344px" zoomAndPan="magnify"><defs/><g><line style="stroke:#181818;stroke-width:1.0;stroke-dasharray:5.0,5.0;" x1="46" x2="46" y1="162.9766" y2="756.5664"/><line style="stroke:#181818;stroke-width:1.0;stroke-dasharray:5.0,5.0;" x1="211" x2="211" y1="162.9766" y2="756.5664"/><line style="stroke:#181818;stroke-width:1.0;stroke-dasharray:5.0,5.0;" x1="558" x2="558" y1="162.9766" y2="756.5664"/><line style="stroke:#181818;stroke-width:1.0;stroke-dasharray:5.0,5.0;" x1="906" x2="906" y1="162.9766" y2="756.5664"/><line style="stroke:#181818;stroke-width:1.0;stroke-dasharray:5.0,5.0;" x1="1272" x2="1272" y1="162.9766" y2="756.5664"/><text fill="#000000" font-family="sans-serif" font-size="28" lengthAdjust="spacing" textLength="62" x="10" y="157.0703">User</text><ellipse cx="47" cy="27" fill="#E2E2F0" rx="16" ry="16" style="stroke:#181818;stroke-width:1.0;"/><path d="M47,43 L47,97 M21,59 L73,59 M47,97 L21,127 M47,97 L73,127 " fill="none" style="stroke:#181818;stroke-width:1.0;"/><text fill="#000000" font-family="sans-serif" font-size="28" lengthAdjust="spacing" textLength="62" x="10" y="781.6367">User</text><ellipse cx="47" cy="804.543" fill="#E2E2F0" rx="16" ry="16" style="stroke:#181818;stroke-width:1.0;"/><path d="M47,820.543 L47,874.543 M21,836.543 L73,836.543 M47,874.543 L21,904.543 M47,874.543 L73,904.543 " fill="none" style="stroke:#181818;stroke-width:1.0;"/><text fill="#000000" font-family="sans-serif" font-size="28" lengthAdjust="spacing" textLength="96" x="157" y="157.0703">Escrow</text><ellipse cx="211" cy="98" fill="#800080" rx="24" ry="24" style="stroke:#181818;stroke-width:1.0;"/><line style="stroke:#181818;stroke-width:1.0;" x1="187" x2="235" y1="126" y2="126"/><text fill="#000000" font-family="sans-serif" font-size="28" lengthAdjust="spacing" textLength="96" x="157" y="781.6367">Escrow</text><ellipse cx="211" cy="819.543" fill="#800080" rx="24" ry="24" style="stroke:#181818;stroke-width:1.0;"/><line style="stroke:#181818;stroke-width:1.0;" x1="187" x2="235" y1="847.543" y2="847.543"/><text fill="#000000" font-family="sans-serif" font-size="28" lengthAdjust="spacing" textLength="234" x="436" y="157.0703">Payment Registry</text><ellipse cx="559" cy="98" fill="#0000FF" rx="24" ry="24" style="stroke:#181818;stroke-width:1.0;"/><line style="stroke:#181818;stroke-width:1.0;" x1="535" x2="583" y1="126" y2="126"/><text fill="#000000" font-family="sans-serif" font-size="28" lengthAdjust="spacing" textLength="234" x="436" y="781.6367">Payment Registry</text><ellipse cx="559" cy="819.543" fill="#0000FF" rx="24" ry="24" style="stroke:#181818;stroke-width:1.0;"/><line style="stroke:#181818;stroke-width:1.0;" x1="535" x2="583" y1="847.543" y2="847.543"/><text fill="#000000" font-family="sans-serif" font-size="28" lengthAdjust="spacing" textLength="222" x="790" y="157.0703">Order Processor</text><ellipse cx="907" cy="98" fill="#E2E2F0" rx="24" ry="24" style="stroke:#181818;stroke-width:1.0;"/><polygon fill="#181818" points="899,74,911,64,907,74,911,84,899,74" style="stroke:#181818;stroke-width:2.0;"/><text fill="#000000" font-family="sans-serif" font-size="28" lengthAdjust="spacing" textLength="222" x="790" y="781.6367">Order Processor</text><ellipse cx="907" cy="819.543" fill="#E2E2F0" rx="24" ry="24" style="stroke:#181818;stroke-width:1.0;"/><polygon fill="#181818" points="899,795.543,911,785.543,907,795.543,911,805.543,899,795.543" style="stroke:#181818;stroke-width:2.0;"/><text fill="#000000" font-family="sans-serif" font-size="28" lengthAdjust="spacing" textLength="126" x="1204" y="157.0703">Database</text><path d="M1237,58 C1237,38 1273,38 1273,38 C1273,38 1309,38 1309,58 L1309,110 C1309,130 1273,130 1273,130 C1273,130 1237,130 1237,110 L1237,58 " fill="#E2E2F0" style="stroke:#181818;stroke-width:3.0;"/><path d="M1237,58 C1237,78 1273,78 1273,78 C1273,78 1309,78 1309,58 " fill="none" style="stroke:#181818;stroke-width:3.0;"/><text fill="#000000" font-family="sans-serif" font-size="28" lengthAdjust="spacing" textLength="126" x="1204" y="781.6367">Database</text><path d="M1237,807.543 C1237,787.543 1273,787.543 1273,787.543 C1273,787.543 1309,787.543 1309,807.543 L1309,859.543 C1309,879.543 1273,879.543 1273,879.543 C1273,879.543 1237,879.543 1237,859.543 L1237,807.543 " fill="#E2E2F0" style="stroke:#181818;stroke-width:3.0;"/><path d="M1237,807.543 C1237,827.543 1273,827.543 1273,827.543 C1273,827.543 1309,827.543 1309,807.543 " fill="none" style="stroke:#181818;stroke-width:3.0;"/><polygon fill="#800080" points="187,217.5977,207,225.5977,187,233.5977,195,225.5977" style="stroke:#800080;stroke-width:2.0;"/><line style="stroke:#800080;stroke-width:2.0;" x1="47" x2="199" y1="225.5977" y2="225.5977"/><text fill="#000000" font-family="sans-serif" font-size="26" lengthAdjust="spacing" textLength="116" x="61" y="216.1133">Set Order</text><polygon fill="#800080" points="233,276.2188,213,284.2188,233,292.2188,225,284.2188" style="stroke:#800080;stroke-width:2.0;"/><line style="stroke:#800080;stroke-width:2.0;" x1="221" x2="905" y1="284.2188" y2="284.2188"/><text fill="#000000" font-family="sans-serif" font-size="26" lengthAdjust="spacing" textLength="134" x="245" y="274.7344">Gets Order</text><polygon fill="#181818" points="1249,334.8398,1269,342.8398,1249,350.8398,1257,342.8398" style="stroke:#181818;stroke-width:2.0;"/><line style="stroke:#181818;stroke-width:2.0;" x1="907" x2="1261" y1="342.8398" y2="342.8398"/><text fill="#000000" font-family="sans-serif" font-size="26" lengthAdjust="spacing" textLength="156" x="921" y="333.3555">Stores Order</text><line style="stroke:#181818;stroke-width:2.0;" x1="907" x2="991" y1="401.4609" y2="401.4609"/><line style="stroke:#181818;stroke-width:2.0;" x1="991" x2="991" y1="401.4609" y2="427.4609"/><line style="stroke:#181818;stroke-width:2.0;" x1="909" x2="991" y1="427.4609" y2="427.4609"/><polygon fill="#181818" points="929,419.4609,909,427.4609,929,435.4609,921,427.4609" style="stroke:#181818;stroke-width:2.0;"/><text fill="#000000" font-family="sans-serif" font-size="26" lengthAdjust="spacing" textLength="174" x="921" y="391.9766">Process Order</text><polygon fill="#0000FF" points="581,478.082,561,486.082,581,494.082,573,486.082" style="stroke:#0000FF;stroke-width:2.0;"/><line style="stroke:#0000FF;stroke-width:2.0;" x1="569" x2="905" y1="486.082" y2="486.082"/><text fill="#000000" font-family="sans-serif" font-size="26" lengthAdjust="spacing" textLength="198" x="593" y="476.5977">Transfers funds</text><polygon fill="#0000FF" points="69,536.7031,49,544.7031,69,552.7031,61,544.7031" style="stroke:#0000FF;stroke-width:2.0;"/><line style="stroke:#0000FF;stroke-width:2.0;" x1="57" x2="557" y1="544.7031" y2="544.7031"/><text fill="#000000" font-family="sans-serif" font-size="26" lengthAdjust="spacing" textLength="198" x="81" y="535.2188">Transfers funds</text><polygon fill="#0000FF" points="581,595.3242,561,603.3242,581,611.3242,573,603.3242" style="stroke:#0000FF;stroke-width:2.0;"/><line style="stroke:#0000FF;stroke-width:2.0;" x1="569" x2="905" y1="603.3242" y2="603.3242"/><text fill="#000000" font-family="sans-serif" font-size="26" lengthAdjust="spacing" textLength="300" x="593" y="593.8398">Sends proof of payment</text><polygon fill="#800080" points="233,653.9453,213,661.9453,233,669.9453,225,661.9453" style="stroke:#800080;stroke-width:2.0;"/><line style="stroke:#800080;stroke-width:2.0;" x1="221" x2="557" y1="661.9453" y2="661.9453"/><text fill="#000000" font-family="sans-serif" font-size="26" lengthAdjust="spacing" textLength="300" x="245" y="652.4609">Sends proof of payment</text><polygon fill="#181818" points="1249,712.5664,1269,720.5664,1249,728.5664,1257,720.5664" style="stroke:#181818;stroke-width:2.0;"/><line style="stroke:#181818;stroke-width:2.0;" x1="907" x2="1261" y1="720.5664" y2="720.5664"/><text fill="#000000" font-family="sans-serif" font-size="26" lengthAdjust="spacing" textLength="318" x="921" y="711.082">Store Order as completed</text><!--SRC=[RL11Ri903Bpx5LOuyu4SE85wp0gQ4-fXsJWLKeWZsn7Ax-k5q1Q2j5fPC-Fns34P2zPAWb6n1khjR1FkD0bVCxJ3rJ3AqD63AaASBbxZdhxFQZ8LMHRsk3fr8q7YteGxB2fft3G89r9bkQcg04sqU8fAk9qBW1hNntd8ryO7bdWWmri_L651Vf3fFtRpwvGRVHjwPlql7p6UJ7DSj_Ja9NvAxBKbKMp7lb5my4zHB_cbmu4Snq6OM_Gtt8yq6xqizrRvVfTxudoxn1VtC6e0VW00]--></g></svg>