<?xml version="1.0" encoding="us-ascii" standalone="no"?><svg xmlns="http://www.w3.org/2000/svg" xmlns:xlink="http://www.w3.org/1999/xlink" contentStyleType="text/css" height="858px" preserveAspectRatio="none" style="width:1104px;height:858px;background:#FFFFFF;" version="1.1" viewBox="0 0 1104 858" width="1104px" zoomAndPan="magnify"><defs/><g><line style="stroke:#181818;stroke-width:1.0;stroke-dasharray:5.0,5.0;" x1="46" x2="46" y1="162.9766" y2="697.9453"/><line style="stroke:#181818;stroke-width:1.0;stroke-dasharray:5.0,5.0;" x1="211" x2="211" y1="162.9766" y2="697.9453"/><line style="stroke:#181818;stroke-width:1.0;stroke-dasharray:5.0,5.0;" x1="407" x2="407" y1="162.9766" y2="697.9453"/><line style="stroke:#181818;stroke-width:1.0;stroke-dasharray:5.0,5.0;" x1="667" x2="667" y1="162.9766" y2="697.9453"/><line style="stroke:#181818;stroke-width:1.0;stroke-dasharray:5.0,5.0;" x1="1033" x2="1033" y1="162.9766" y2="697.9453"/><text fill="#000000" font-family="sans-serif" font-size="28" lengthAdjust="spacing" textLength="62" x="10" y="157.0703">User</text><ellipse cx="47" cy="27" fill="#E2E2F0" rx="16" ry="16" style="stroke:#181818;stroke-width:1.0;"/><path d="M47,43 L47,97 M21,59 L73,59 M47,97 L21,127 M47,97 L73,127 " fill="none" style="stroke:#181818;stroke-width:1.0;"/><text fill="#000000" font-family="sans-serif" font-size="28" lengthAdjust="spacing" textLength="62" x="10" y="723.0156">User</text><ellipse cx="47" cy="745.9219" fill="#E2E2F0" rx="16" ry="16" style="stroke:#181818;stroke-width:1.0;"/><path d="M47,761.9219 L47,815.9219 M21,777.9219 L73,777.9219 M47,815.9219 L21,845.9219 M47,815.9219 L73,845.9219 " fill="none" style="stroke:#181818;stroke-width:1.0;"/><text fill="#000000" font-family="sans-serif" font-size="28" lengthAdjust="spacing" textLength="96" x="157" y="157.0703">Escrow</text><ellipse cx="211" cy="98" fill="#800080" rx="24" ry="24" style="stroke:#181818;stroke-width:1.0;"/><line style="stroke:#181818;stroke-width:1.0;" x1="187" x2="235" y1="126" y2="126"/><text fill="#000000" font-family="sans-serif" font-size="28" lengthAdjust="spacing" textLength="96" x="157" y="723.0156">Escrow</text><ellipse cx="211" cy="760.9219" fill="#800080" rx="24" ry="24" style="stroke:#181818;stroke-width:1.0;"/><line style="stroke:#181818;stroke-width:1.0;" x1="187" x2="235" y1="788.9219" y2="788.9219"/><text fill="#000000" font-family="sans-serif" font-size="28" lengthAdjust="spacing" textLength="234" x="285" y="157.0703">Payment Registry</text><ellipse cx="408" cy="98" fill="#0000FF" rx="24" ry="24" style="stroke:#181818;stroke-width:1.0;"/><line style="stroke:#181818;stroke-width:1.0;" x1="384" x2="432" y1="126" y2="126"/><text fill="#000000" font-family="sans-serif" font-size="28" lengthAdjust="spacing" textLength="234" x="285" y="723.0156">Payment Registry</text><ellipse cx="408" cy="760.9219" fill="#0000FF" rx="24" ry="24" style="stroke:#181818;stroke-width:1.0;"/><line style="stroke:#181818;stroke-width:1.0;" x1="384" x2="432" y1="788.9219" y2="788.9219"/><text fill="#000000" font-family="sans-serif" font-size="28" lengthAdjust="spacing" textLength="222" x="551" y="157.0703">Order Processor</text><ellipse cx="668" cy="98" fill="#E2E2F0" rx="24" ry="24" style="stroke:#181818;stroke-width:1.0;"/><polygon fill="#181818" points="660,74,672,64,668,74,672,84,660,74" style="stroke:#181818;stroke-width:2.0;"/><text fill="#000000" font-family="sans-serif" font-size="28" lengthAdjust="spacing" textLength="222" x="551" y="723.0156">Order Processor</text><ellipse cx="668" cy="760.9219" fill="#E2E2F0" rx="24" ry="24" style="stroke:#181818;stroke-width:1.0;"/><polygon fill="#181818" points="660,736.9219,672,726.9219,668,736.9219,672,746.9219,660,736.9219" style="stroke:#181818;stroke-width:2.0;"/><text fill="#000000" font-family="sans-serif" font-size="28" lengthAdjust="spacing" textLength="126" x="965" y="157.0703">Database</text><path d="M998,58 C998,38 1034,38 1034,38 C1034,38 1070,38 1070,58 L1070,110 C1070,130 1034,130 1034,130 C1034,130 998,130 998,110 L998,58 " fill="#E2E2F0" style="stroke:#181818;stroke-width:3.0;"/><path d="M998,58 C998,78 1034,78 1034,78 C1034,78 1070,78 1070,58 " fill="none" style="stroke:#181818;stroke-width:3.0;"/><text fill="#000000" font-family="sans-serif" font-size="28" lengthAdjust="spacing" textLength="126" x="965" y="723.0156">Database</text><path d="M998,748.9219 C998,728.9219 1034,728.9219 1034,728.9219 C1034,728.9219 1070,728.9219 1070,748.9219 L1070,800.9219 C1070,820.9219 1034,820.9219 1034,820.9219 C1034,820.9219 998,820.9219 998,800.9219 L998,748.9219 " fill="#E2E2F0" style="stroke:#181818;stroke-width:3.0;"/><path d="M998,748.9219 C998,768.9219 1034,768.9219 1034,768.9219 C1034,768.9219 1070,768.9219 1070,748.9219 " fill="none" style="stroke:#181818;stroke-width:3.0;"/><polygon fill="#800080" points="187,217.5977,207,225.5977,187,233.5977,195,225.5977" style="stroke:#800080;stroke-width:2.0;"/><line style="stroke:#800080;stroke-width:2.0;" x1="47" x2="199" y1="225.5977" y2="225.5977"/><text fill="#000000" font-family="sans-serif" font-size="26" lengthAdjust="spacing" textLength="116" x="61" y="216.1133">Set Order</text><polygon fill="#800080" points="233,276.2188,213,284.2188,233,292.2188,225,284.2188" style="stroke:#800080;stroke-width:2.0;"/><line style="stroke:#800080;stroke-width:2.0;" x1="221" x2="666" y1="284.2188" y2="284.2188"/><text fill="#000000" font-family="sans-serif" font-size="26" lengthAdjust="spacing" textLength="120" x="245" y="274.7344">Get Order</text><polygon fill="#181818" points="1010,334.8398,1030,342.8398,1010,350.8398,1018,342.8398" style="stroke:#181818;stroke-width:2.0;"/><line style="stroke:#181818;stroke-width:2.0;" x1="668" x2="1022" y1="342.8398" y2="342.8398"/><text fill="#000000" font-family="sans-serif" font-size="26" lengthAdjust="spacing" textLength="142" x="682" y="333.3555">Store Order</text><line style="stroke:#181818;stroke-width:2.0;" x1="668" x2="752" y1="401.4609" y2="401.4609"/><line style="stroke:#181818;stroke-width:2.0;" x1="752" x2="752" y1="401.4609" y2="427.4609"/><line style="stroke:#181818;stroke-width:2.0;" x1="670" x2="752" y1="427.4609" y2="427.4609"/><polygon fill="#181818" points="690,419.4609,670,427.4609,690,435.4609,682,427.4609" style="stroke:#181818;stroke-width:2.0;"/><text fill="#000000" font-family="sans-serif" font-size="26" lengthAdjust="spacing" textLength="214" x="682" y="391.9766">Processing Order</text><polygon fill="#0000FF" points="430,478.082,410,486.082,430,494.082,422,486.082" style="stroke:#0000FF;stroke-width:2.0;"/><line style="stroke:#0000FF;stroke-width:2.0;" x1="418" x2="666" y1="486.082" y2="486.082"/><text fill="#000000" font-family="sans-serif" font-size="26" lengthAdjust="spacing" textLength="184" x="442" y="476.5977">Transfer funds</text><polygon fill="#0000FF" points="69,536.7031,49,544.7031,69,552.7031,61,544.7031" style="stroke:#0000FF;stroke-width:2.0;"/><line style="stroke:#0000FF;stroke-width:2.0;" x1="57" x2="406" y1="544.7031" y2="544.7031"/><text fill="#000000" font-family="sans-serif" font-size="26" lengthAdjust="spacing" textLength="140" x="81" y="535.2188">Send funds</text><polygon fill="#800080" points="233,595.3242,213,603.3242,233,611.3242,225,603.3242" style="stroke:#800080;stroke-width:2.0;"/><line style="stroke:#800080;stroke-width:2.0;" x1="221" x2="666" y1="603.3242" y2="603.3242"/><text fill="#000000" font-family="sans-serif" font-size="26" lengthAdjust="spacing" textLength="154" x="245" y="593.8398">Repay funds</text><polygon fill="#181818" points="1010,653.9453,1030,661.9453,1010,669.9453,1018,661.9453" style="stroke:#181818;stroke-width:2.0;"/><line style="stroke:#181818;stroke-width:2.0;" x1="668" x2="1022" y1="661.9453" y2="661.9453"/><text fill="#000000" font-family="sans-serif" font-size="26" lengthAdjust="spacing" textLength="318" x="682" y="652.4609">Store Order as completed</text><!--SRC=[TP0z3i8m38Ltdy8gCnVem0HYR5JeX1X2Ob2babHsAjJRuw3oKm5BPFdvFN-ETIaoDaACLh012gbD8sx4SRpbrWON_S1zHq-fC7QyQeqrNLf9F1PvpDIuE7K3WOiXSUomgDXhgE7eI2JoOweou6so9ok4wwa0Q71vc9OSLxgmn1qbVFYXCb_YTYQkNa7PfyVGJDItV4AquJ9BpRoQgUWbxja6EIlmUGXUG7llWIO31Jz9FuXgwktu8VzZob_WubMDYJp07G00]--></g></svg>