<?xml version="1.0" encoding="us-ascii" standalone="no"?><svg xmlns="http://www.w3.org/2000/svg" xmlns:xlink="http://www.w3.org/1999/xlink" contentStyleType="text/css" height="918px" preserveAspectRatio="none" style="width:1372px;height:918px;background:#FFFFFF;" version="1.1" viewBox="0 0 1372 918" width="1372px" zoomAndPan="magnify"><defs/><g><line style="stroke:#181818;stroke-width:1.0;stroke-dasharray:5.0,5.0;" x1="46" x2="46" y1="162.9766" y2="756.5664"/><line style="stroke:#181818;stroke-width:1.0;stroke-dasharray:5.0,5.0;" x1="225" x2="225" y1="162.9766" y2="756.5664"/><line style="stroke:#181818;stroke-width:1.0;stroke-dasharray:5.0,5.0;" x1="572" x2="572" y1="162.9766" y2="756.5664"/><line style="stroke:#181818;stroke-width:1.0;stroke-dasharray:5.0,5.0;" x1="920" x2="920" y1="162.9766" y2="756.5664"/><line style="stroke:#181818;stroke-width:1.0;stroke-dasharray:5.0,5.0;" x1="1300" x2="1300" y1="162.9766" y2="756.5664"/><text fill="#000000" font-family="sans-serif" font-size="28" lengthAdjust="spacing" textLength="62" x="10" y="157.0703">User</text><ellipse cx="47" cy="27" fill="#E2E2F0" rx="16" ry="16" style="stroke:#181818;stroke-width:1.0;"/><path d="M47,43 L47,97 M21,59 L73,59 M47,97 L21,127 M47,97 L73,127 " fill="none" style="stroke:#181818;stroke-width:1.0;"/><text fill="#000000" font-family="sans-serif" font-size="28" lengthAdjust="spacing" textLength="62" x="10" y="781.6367">User</text><ellipse cx="47" cy="804.543" fill="#E2E2F0" rx="16" ry="16" style="stroke:#181818;stroke-width:1.0;"/><path d="M47,820.543 L47,874.543 M21,836.543 L73,836.543 M47,874.543 L21,904.543 M47,874.543 L73,904.543 " fill="none" style="stroke:#181818;stroke-width:1.0;"/><text fill="#000000" font-family="sans-serif" font-size="28" lengthAdjust="spacing" textLength="96" x="171" y="157.0703">Escrow</text><ellipse cx="225" cy="98" fill="#800080" rx="24" ry="24" style="stroke:#181818;stroke-width:1.0;"/><line style="stroke:#181818;stroke-width:1.0;" x1="201" x2="249" y1="126" y2="126"/><text fill="#000000" font-family="sans-serif" font-size="28" lengthAdjust="spacing" textLength="96" x="171" y="781.6367">Escrow</text><ellipse cx="225" cy="819.543" fill="#800080" rx="24" ry="24" style="stroke:#181818;stroke-width:1.0;"/><line style="stroke:#181818;stroke-width:1.0;" x1="201" x2="249" y1="847.543" y2="847.543"/><text fill="#000000" font-family="sans-serif" font-size="28" lengthAdjust="spacing" textLength="234" x="450" y="157.0703">Payment Registry</text><ellipse cx="573" cy="98" fill="#0000FF" rx="24" ry="24" style="stroke:#181818;stroke-width:1.0;"/><line style="stroke:#181818;stroke-width:1.0;" x1="549" x2="597" y1="126" y2="126"/><text fill="#000000" font-family="sans-serif" font-size="28" lengthAdjust="spacing" textLength="234" x="450" y="781.6367">Payment Registry</text><ellipse cx="573" cy="819.543" fill="#0000FF" rx="24" ry="24" style="stroke:#181818;stroke-width:1.0;"/><line style="stroke:#181818;stroke-width:1.0;" x1="549" x2="597" y1="847.543" y2="847.543"/><text fill="#000000" font-family="sans-serif" font-size="28" lengthAdjust="spacing" textLength="222" x="804" y="157.0703">Order Processor</text><ellipse cx="921" cy="98" fill="#E2E2F0" rx="24" ry="24" style="stroke:#181818;stroke-width:1.0;"/><polygon fill="#181818" points="913,74,925,64,921,74,925,84,913,74" style="stroke:#181818;stroke-width:2.0;"/><text fill="#000000" font-family="sans-serif" font-size="28" lengthAdjust="spacing" textLength="222" x="804" y="781.6367">Order Processor</text><ellipse cx="921" cy="819.543" fill="#E2E2F0" rx="24" ry="24" style="stroke:#181818;stroke-width:1.0;"/><polygon fill="#181818" points="913,795.543,925,785.543,921,795.543,925,805.543,913,795.543" style="stroke:#181818;stroke-width:2.0;"/><text fill="#000000" font-family="sans-serif" font-size="28" lengthAdjust="spacing" textLength="126" x="1232" y="157.0703">Database</text><path d="M1265,58 C1265,38 1301,38 1301,38 C1301,38 1337,38 1337,58 L1337,110 C1337,130 1301,130 1301,130 C1301,130 1265,130 1265,110 L1265,58 " fill="#E2E2F0" style="stroke:#181818;stroke-width:3.0;"/><path d="M1265,58 C1265,78 1301,78 1301,78 C1301,78 1337,78 1337,58 " fill="none" style="stroke:#181818;stroke-width:3.0;"/><text fill="#000000" font-family="sans-serif" font-size="28" lengthAdjust="spacing" textLength="126" x="1232" y="781.6367">Database</text><path d="M1265,807.543 C1265,787.543 1301,787.543 1301,787.543 C1301,787.543 1337,787.543 1337,807.543 L1337,859.543 C1337,879.543 1301,879.543 1301,879.543 C1301,879.543 1265,879.543 1265,859.543 L1265,807.543 " fill="#E2E2F0" style="stroke:#181818;stroke-width:3.0;"/><path d="M1265,807.543 C1265,827.543 1301,827.543 1301,827.543 C1301,827.543 1337,827.543 1337,807.543 " fill="none" style="stroke:#181818;stroke-width:3.0;"/><polygon fill="#800080" points="201,217.5977,221,225.5977,201,233.5977,209,225.5977" style="stroke:#800080;stroke-width:2.0;"/><line style="stroke:#800080;stroke-width:2.0;" x1="47" x2="213" y1="225.5977" y2="225.5977"/><text fill="#000000" font-family="sans-serif" font-size="26" lengthAdjust="spacing" textLength="130" x="61" y="216.1133">Sets Order</text><polygon fill="#800080" points="247,276.2188,227,284.2188,247,292.2188,239,284.2188" style="stroke:#800080;stroke-width:2.0;"/><line style="stroke:#800080;stroke-width:2.0;" x1="235" x2="919" y1="284.2188" y2="284.2188"/><text fill="#000000" font-family="sans-serif" font-size="26" lengthAdjust="spacing" textLength="134" x="259" y="274.7344">Gets Order</text><polygon fill="#181818" points="1277,334.8398,1297,342.8398,1277,350.8398,1285,342.8398" style="stroke:#181818;stroke-width:2.0;"/><line style="stroke:#181818;stroke-width:2.0;" x1="921" x2="1289" y1="342.8398" y2="342.8398"/><text fill="#000000" font-family="sans-serif" font-size="26" lengthAdjust="spacing" textLength="156" x="935" y="333.3555">Stores Order</text><line style="stroke:#181818;stroke-width:2.0;" x1="921" x2="1005" y1="401.4609" y2="401.4609"/><line style="stroke:#181818;stroke-width:2.0;" x1="1005" x2="1005" y1="401.4609" y2="427.4609"/><line style="stroke:#181818;stroke-width:2.0;" x1="923" x2="1005" y1="427.4609" y2="427.4609"/><polygon fill="#181818" points="943,419.4609,923,427.4609,943,435.4609,935,427.4609" style="stroke:#181818;stroke-width:2.0;"/><text fill="#000000" font-family="sans-serif" font-size="26" lengthAdjust="spacing" textLength="202" x="935" y="391.9766">Processes Order</text><polygon fill="#0000FF" points="595,478.082,575,486.082,595,494.082,587,486.082" style="stroke:#0000FF;stroke-width:2.0;"/><line style="stroke:#0000FF;stroke-width:2.0;" x1="583" x2="919" y1="486.082" y2="486.082"/><text fill="#000000" font-family="sans-serif" font-size="26" lengthAdjust="spacing" textLength="198" x="607" y="476.5977">Transfers funds</text><polygon fill="#0000FF" points="69,536.7031,49,544.7031,69,552.7031,61,544.7031" style="stroke:#0000FF;stroke-width:2.0;"/><line style="stroke:#0000FF;stroke-width:2.0;" x1="57" x2="571" y1="544.7031" y2="544.7031"/><text fill="#000000" font-family="sans-serif" font-size="26" lengthAdjust="spacing" textLength="198" x="81" y="535.2188">Transfers funds</text><polygon fill="#0000FF" points="595,595.3242,575,603.3242,595,611.3242,587,603.3242" style="stroke:#0000FF;stroke-width:2.0;"/><line style="stroke:#0000FF;stroke-width:2.0;" x1="583" x2="919" y1="603.3242" y2="603.3242"/><text fill="#000000" font-family="sans-serif" font-size="26" lengthAdjust="spacing" textLength="300" x="607" y="593.8398">Sends proof of payment</text><polygon fill="#800080" points="247,653.9453,227,661.9453,247,669.9453,239,661.9453" style="stroke:#800080;stroke-width:2.0;"/><line style="stroke:#800080;stroke-width:2.0;" x1="235" x2="571" y1="661.9453" y2="661.9453"/><text fill="#000000" font-family="sans-serif" font-size="26" lengthAdjust="spacing" textLength="300" x="259" y="652.4609">Sends proof of payment</text><polygon fill="#181818" points="1277,712.5664,1297,720.5664,1277,728.5664,1285,720.5664" style="stroke:#181818;stroke-width:2.0;"/><line style="stroke:#181818;stroke-width:2.0;" x1="921" x2="1289" y1="720.5664" y2="720.5664"/><text fill="#000000" font-family="sans-serif" font-size="26" lengthAdjust="spacing" textLength="332" x="935" y="711.082">Stores Order as completed</text><!--SRC=[VP3Dgi9038NtUOfGrxv05wwkkEoWTdLnCKvJ4MfJaYdIjpUZLQaLOGWXvyoN7nyY2vPAWbwn16hZEGwurY1yJQKrBhfUkeQUKkRySB4SjtGwQvGXIpQtnSMnwGa2jr6umQoGog1EE90gozrLEAXyz4UlX7zZ0b3YydziSbXPmnnt5CsS052ucRgPggiNAlsqTMYgMioVSz0KcoOsg0sVurvygpM9OjstbO8Ltuvohiy9Ex8wTi9SextkSQSHzB7VL-VFRTBz0byC4ga2k040]--></g></svg>