<?xml version="1.0" encoding="us-ascii" standalone="no"?><svg xmlns="http://www.w3.org/2000/svg" xmlns:xlink="http://www.w3.org/1999/xlink" contentStyleType="text/css" height="2536px" preserveAspectRatio="none" style="width:1074px;height:2536px;background:#FFFFFF;" version="1.1" viewBox="0 0 1074 2536" width="1074px" zoomAndPan="magnify"><defs><filter height="300%" id="fxh3hkgs57z1s" width="300%" x="-1" y="-1"><feGaussianBlur result="blurOut" stdDeviation="4.0"/><feColorMatrix in="blurOut" result="blurOut2" type="matrix" values="0 0 0 0 0 0 0 0 0 0 0 0 0 0 0 0 0 0 .4 0"/><feOffset dx="8.0" dy="8.0" in="blurOut2" result="blurOut3"/><feBlend in="SourceGraphic" in2="blurOut3" mode="normal"/></filter></defs><g><rect fill="#FEFECE" filter="url(#fxh3hkgs57z1s)" height="80" rx="25" ry="25" style="stroke:#A80036;stroke-width:2.0;" width="132" x="490" y="250"/><text fill="#000000" font-family="sans-serif" font-size="28" lengthAdjust="spacing" textLength="112" x="500" y="300.582">Pending</text><rect fill="#FEFECE" filter="url(#fxh3hkgs57z1s)" height="80" rx="25" ry="25" style="stroke:#A80036;stroke-width:2.0;" width="168" x="472" y="528"/><text fill="#000000" font-family="sans-serif" font-size="28" lengthAdjust="spacing" textLength="148" x="482" y="578.582">Processing</text><rect fill="#FEFECE" filter="url(#fxh3hkgs57z1s)" height="80" rx="25" ry="25" style="stroke:#A80036;stroke-width:2.0;" width="192" x="14" y="1151.24"/><text fill="#000000" font-family="sans-serif" font-size="28" lengthAdjust="spacing" textLength="172" x="24" y="1201.822">Transferring</text><rect fill="#FEFECE" filter="url(#fxh3hkgs57z1s)" height="80" rx="25" ry="25" style="stroke:#A80036;stroke-width:2.0;" width="130" x="47" y="1429.24"/><text fill="#000000" font-family="sans-serif" font-size="28" lengthAdjust="spacing" textLength="110" x="57" y="1479.822">Fulfilled</text><rect fill="#FEFECE" filter="url(#fxh3hkgs57z1s)" height="80" rx="25" ry="25" style="stroke:#A80036;stroke-width:2.0;" width="124" x="72" y="1707.24"/><text fill="#000000" font-family="sans-serif" font-size="28" lengthAdjust="spacing" textLength="104" x="82" y="1757.822">Proving</text><rect fill="#FEFECE" filter="url(#fxh3hkgs57z1s)" height="80" rx="25" ry="25" style="stroke:#A80036;stroke-width:2.0;" width="114" x="113" y="1985.24"/><text fill="#000000" font-family="sans-serif" font-size="28" lengthAdjust="spacing" textLength="94" x="123" y="2035.822">Proved</text><rect fill="#90EE90" filter="url(#fxh3hkgs57z1s)" height="80" rx="25" ry="25" style="stroke:#A80036;stroke-width:2.0;" width="170" x="255" y="2263.24"/><text fill="#000000" font-family="sans-serif" font-size="28" lengthAdjust="spacing" textLength="150" x="265" y="2313.822">Completed</text><rect fill="#FFC0CB" filter="url(#fxh3hkgs57z1s)" height="80" rx="25" ry="25" style="stroke:#A80036;stroke-width:2.0;" width="140" x="544" y="1151.24"/><text fill="#000000" font-family="sans-serif" font-size="28" lengthAdjust="spacing" textLength="120" x="554" y="1201.822">Dropped</text><ellipse cx="556" cy="32" fill="#000000" filter="url(#fxh3hkgs57z1s)" rx="20" ry="20" style="stroke:#000000;stroke-width:2.0;"/><g id="elem_CheckFee"><polygon fill="#FEFECE" filter="url(#fxh3hkgs57z1s)" points="556,731.3,580,755.3,556,779.3,532,755.3,556,731.3" style="stroke:#A80036;stroke-width:3.0;"/></g><g id="elem_GMN14"><path d="M239,730 L239,780.6211 A0,0 0 0 0 239,780.6211 L461,780.6211 A0,0 0 0 0 461,780.6211 L461,766 L531,755.3 L461,750 L461,750 L441,730 L239,730 A0,0 0 0 0 239,730 " fill="#FBFB77" filter="url(#fxh3hkgs57z1s)" style="stroke:#A80036;stroke-width:2.0;"/><path d="M441,730 L441,750 L461,750 L441,730 " fill="#FBFB77" style="stroke:#A80036;stroke-width:2.0;"/><text fill="#000000" font-family="sans-serif" font-size="26" lengthAdjust="spacing" textLength="180" x="251" y="765.1367">Is fee enough?</text></g><g id="elem_CheckAmount"><polygon fill="#FEFECE" filter="url(#fxh3hkgs57z1s)" points="454,903.92,478,927.92,454,951.92,430,927.92,454,903.92" style="stroke:#A80036;stroke-width:3.0;"/></g><g id="elem_GMN18"><path d="M59,902.62 L59,953.2411 A0,0 0 0 0 59,953.2411 L361,953.2411 A0,0 0 0 0 361,953.2411 L361,938.62 L428.72,927.92 L361,922.62 L361,922.62 L341,902.62 L59,902.62 A0,0 0 0 0 59,902.62 " fill="#FBFB77" filter="url(#fxh3hkgs57z1s)" style="stroke:#A80036;stroke-width:2.0;"/><path d="M341,902.62 L341,922.62 L361,922.62 L341,902.62 " fill="#FBFB77" style="stroke:#A80036;stroke-width:2.0;"/><text fill="#000000" font-family="sans-serif" font-size="26" lengthAdjust="spacing" textLength="260" x="71" y="937.7567">amount &lt;= 0.1 ETH?</text></g><ellipse cx="518" cy="2487.24" fill="none" filter="url(#fxh3hkgs57z1s)" rx="22" ry="22" style="stroke:#000000;stroke-width:2.0;"/><ellipse cx="518" cy="2487.24" fill="#000000" rx="12" ry="12" style="stroke:#000000;stroke-width:2.0;"/><!--link *start* to Pending--><g id="link_*start*_Pending"><path d="M556,52.26 C556,93.44 556,182.24 556,237.76 " fill="none" id="*start*-to-Pending" style="stroke:#A80036;stroke-width:2.0;"/><polygon fill="#A80036" points="556,249.76,564,231.76,556,239.76,548,231.76,556,249.76" style="stroke:#A80036;stroke-width:2.0;"/><path d="M566,122 L566,172 L1056,172 L1056,142 L1036,122 L566,122 " fill="#FBFB77" filter="url(#fxh3hkgs57z1s)" style="stroke:#A80036;stroke-width:2.0;"/><path d="M1036,122 L1036,142 L1056,142 L1036,122 " fill="#FBFB77" style="stroke:#A80036;stroke-width:2.0;"/><text fill="#000000" font-family="sans-serif" font-size="26" lengthAdjust="spacing" textLength="448" x="578" y="157.1367">Creates a new order in the database</text></g><!--link Pending to Processing--><g id="link_Pending_Processing"><path d="M556,330.68 C556,382.9 556,463.4 556,515.52 " fill="none" id="Pending-to-Processing" style="stroke:#000000;stroke-width:2.0;"/><polygon fill="#000000" points="556,527.52,564,509.52,556,517.52,548,509.52,556,527.52" style="stroke:#000000;stroke-width:2.0;"/><path d="M566,400 L566,450 L1000,450 L1000,420 L980,400 L566,400 " fill="#FBFB77" filter="url(#fxh3hkgs57z1s)" style="stroke:#A80036;stroke-width:2.0;"/><path d="M980,400 L980,420 L1000,420 L980,400 " fill="#FBFB77" style="stroke:#A80036;stroke-width:2.0;"/><text fill="#000000" font-family="sans-serif" font-size="26" lengthAdjust="spacing" textLength="392" x="578" y="435.1367">MM Starts processing the order</text></g><!--link Processing to CheckFee--><g id="link_Processing_CheckFee"><path d="M556,608.88 C556,645.66 556,687.64 556,718.12 " fill="none" id="Processing-to-CheckFee" style="stroke:#000000;stroke-width:2.0;"/><polygon fill="#000000" points="556,730.12,564,712.12,556,720.12,548,712.12,556,730.12" style="stroke:#000000;stroke-width:2.0;"/></g><!--link CheckFee to CheckAmount--><g id="link_CheckFee_CheckAmount"><path d="M547.3,771.68 C528.04,803.54 488.129,869.4912 468.889,901.3112 " fill="none" id="CheckFee-to-CheckAmount" style="stroke:#000000;stroke-width:2.0;"/><polygon fill="#000000" points="462.68,911.58,478.8394,900.3162,467.8542,903.0227,465.1477,892.0375,462.68,911.58" style="stroke:#000000;stroke-width:2.0;"/></g><!--link CheckFee to Dropped--><g id="link_CheckFee_Dropped"><path d="M558.72,777.56 C567.74,844.78 595.2235,1049.3467 607.1835,1138.4467 " fill="none" id="CheckFee-to-Dropped" style="stroke:#FF0000;stroke-width:2.0;"/><polygon fill="#FF0000" points="608.78,1150.34,614.3142,1131.4357,607.4496,1140.4289,598.4564,1133.5643,608.78,1150.34" style="stroke:#FF0000;stroke-width:2.0;"/><text fill="#000000" font-family="sans-serif" font-size="26" lengthAdjust="spacing" textLength="32" x="586" y="938.0567">no</text></g><!--link CheckAmount to Transferring--><g id="link_CheckAmount_Transferring"><path d="M438,937.18 C426.5,942.18 410.5,948.74 396,953.24 C279.44,989.46 209.06,921.98 128,1013.24 C94.96,1050.44 94.8288,1099.1598 100.4488,1138.6398 " fill="none" id="CheckAmount-to-Transferring" style="stroke:#000000;stroke-width:2.0;"/><polygon fill="#000000" points="102.14,1150.52,107.5234,1131.5722,100.7307,1140.6198,91.6831,1133.8271,102.14,1150.52" style="stroke:#000000;stroke-width:2.0;"/><path d="M138,1023.24 L138,1073.24 L456,1073.24 L456,1043.24 L436,1023.24 L138,1023.24 " fill="#FBFB77" filter="url(#fxh3hkgs57z1s)" style="stroke:#A80036;stroke-width:2.0;"/><path d="M436,1023.24 L436,1043.24 L456,1043.24 L436,1023.24 " fill="#FBFB77" style="stroke:#A80036;stroke-width:2.0;"/><text fill="#000000" font-family="sans-serif" font-size="26" lengthAdjust="spacing" textLength="276" x="150" y="1058.3767">Transfers funds on L1</text></g><!--link CheckAmount to Dropped--><g id="link_CheckAmount_Dropped"><path d="M460.18,946.72 C471.66,976.92 498.04,1041.86 530,1091.24 C543.64,1112.3 553.3811,1124.7907 569.0811,1142.1907 " fill="none" id="CheckAmount-to-Dropped" style="stroke:#FF0000;stroke-width:2.0;"/><polygon fill="#FF0000" points="577.12,1151.1,571.0012,1132.3767,570.4209,1143.6756,559.1221,1143.0952,577.12,1151.1" style="stroke:#FF0000;stroke-width:2.0;"/><text fill="#000000" font-family="sans-serif" font-size="26" lengthAdjust="spacing" textLength="32" x="532" y="1062.3767">no</text></g><!--link Transferring to Fulfilled--><g id="link_Transferring_Fulfilled"><path d="M107.12,1231.38 C105.9,1249.5 104.6,1271.48 104,1291.24 C102.94,1325.9 102.58,1334.6 104,1369.24 C104.8,1389.02 105.4383,1399.0488 107.0783,1417.1688 " fill="none" id="Transferring-to-Fulfilled" style="stroke:#000000;stroke-width:2.0;"/><polygon fill="#000000" points="108.16,1429.12,114.5049,1410.4722,107.2586,1419.1607,98.5701,1411.9144,108.16,1429.12" style="stroke:#000000;stroke-width:2.0;"/><path d="M114,1301.24 L114,1351.24 L544,1351.24 L544,1321.24 L524,1301.24 L114,1301.24 " fill="#FBFB77" filter="url(#fxh3hkgs57z1s)" style="stroke:#A80036;stroke-width:2.0;"/><path d="M524,1301.24 L524,1321.24 L544,1321.24 L524,1301.24 " fill="#FBFB77" style="stroke:#A80036;stroke-width:2.0;"/><text fill="#000000" font-family="sans-serif" font-size="26" lengthAdjust="spacing" textLength="388" x="126" y="1336.3767">Waits for transfer confirmation</text></g><!--link Fulfilled to Proving--><g id="link_Fulfilled_Proving"><path d="M115.1,1509.92 C119.3,1562.14 125.7561,1642.6788 129.9561,1694.7988 " fill="none" id="Fulfilled-to-Proving" style="stroke:#000000;stroke-width:2.0;"/><polygon fill="#000000" points="130.92,1706.76,137.4483,1688.1756,130.1168,1696.7923,121.5,1689.4607,130.92,1706.76" style="stroke:#000000;stroke-width:2.0;"/><path d="M136,1579.24 L136,1629.24 L464,1629.24 L464,1599.24 L444,1579.24 L136,1579.24 " fill="#FBFB77" filter="url(#fxh3hkgs57z1s)" style="stroke:#A80036;stroke-width:2.0;"/><path d="M444,1579.24 L444,1599.24 L464,1599.24 L444,1579.24 " fill="#FBFB77" style="stroke:#A80036;stroke-width:2.0;"/><text fill="#000000" font-family="sans-serif" font-size="26" lengthAdjust="spacing" textLength="286" x="148" y="1614.3767">Send proof of payment</text></g><!--link Proving to Proved--><g id="link_Proving_Proved"><path d="M130.12,1788.04 C127.46,1823.92 125.7,1878.62 134,1925.24 C137.62,1945.58 140.6344,1956.1261 147.8744,1973.9061 " fill="none" id="Proving-to-Proved" style="stroke:#000000;stroke-width:2.0;"/><polygon fill="#000000" points="152.4,1985.02,153.0209,1965.3321,148.6287,1975.7584,138.2024,1971.3662,152.4,1985.02" style="stroke:#000000;stroke-width:2.0;"/><path d="M144,1857.24 L144,1907.24 L544,1907.24 L544,1877.24 L524,1857.24 L144,1857.24 " fill="#FBFB77" filter="url(#fxh3hkgs57z1s)" style="stroke:#A80036;stroke-width:2.0;"/><path d="M524,1857.24 L524,1877.24 L544,1877.24 L524,1857.24 " fill="#FBFB77" style="stroke:#A80036;stroke-width:2.0;"/><text fill="#000000" font-family="sans-serif" font-size="26" lengthAdjust="spacing" textLength="358" x="156" y="1892.3767">Waits for proof confirmation</text></g><!--link Proved to Completed--><g id="link_Proved_Completed"><path d="M184.22,2066.04 C198.6,2102.9 222.82,2159.08 252,2203.24 C265.86,2224.22 275.8166,2236.5595 292.0566,2253.7395 " fill="none" id="Proved-to-Completed" style="stroke:#000000;stroke-width:2.0;"/><polygon fill="#000000" points="300.3,2262.46,293.7486,2243.8837,293.4305,2255.1929,282.1213,2254.8748,300.3,2262.46" style="stroke:#000000;stroke-width:2.0;"/><path d="M262,2135.24 L262,2185.24 L544,2185.24 L544,2155.24 L524,2135.24 L262,2135.24 " fill="#FBFB77" filter="url(#fxh3hkgs57z1s)" style="stroke:#A80036;stroke-width:2.0;"/><path d="M524,2135.24 L524,2155.24 L544,2155.24 L524,2135.24 " fill="#FBFB77" style="stroke:#A80036;stroke-width:2.0;"/><text fill="#000000" font-family="sans-serif" font-size="26" lengthAdjust="spacing" textLength="240" x="274" y="2170.3767">Order is completed</text></g><!--link Completed to *end*--><g id="link_Completed_*end*"><path d="M377.74,2343.42 C416.94,2383.04 467.8014,2434.4683 495.0014,2461.9683 " fill="none" id="Completed-to-*end*" style="stroke:#A80036;stroke-width:2.0;"/><polygon fill="#A80036" points="503.44,2470.5,496.4699,2452.0767,496.4078,2463.3903,485.0943,2463.3282,503.44,2470.5" style="stroke:#A80036;stroke-width:2.0;"/></g><!--link Dropped to *end*--><g id="link_Dropped_*end*"><path d="M614,1231.36 C614,1284.3 614,1383.04 614,1467.24 C614,1467.24 614,1467.24 614,2305.24 C614,2373.24 568.1199,2431.6444 541.1199,2461.0244 " fill="none" id="Dropped-to-*end*" style="stroke:#A80036;stroke-width:2.0;"/><polygon fill="#A80036" points="533,2469.86,551.0702,2462.0198,539.7665,2462.497,539.2894,2451.1934,533,2469.86" style="stroke:#A80036;stroke-width:2.0;"/></g><!--SRC=[VPDDIyD048Rl-oi6UXCYzYgr8jMYO55emKFfOPkT94kItR2xgVJVE_dS9As5N3Rlp3FVDfKAZBR84YaGC2_S6GJQqCZ2IQqOsphk4BvH2QdYxcLqYDRw7pl3bOtG6FzhNMQHp38KtkSq8fnwQQNp8aE70cQPZ1CN6qJLQgz65qMb55AbZEtl3X28ODadf3GPQGLP9GEi39AN1GuAVq4RWGQeGfSW2ExuaLEbv0cL6sCjX8ZxsJ7ZONgeoBwu2Nop0KhAE0j5RrEZwpW3RbjMWc6wHeJ58aoq376vR8WPHWvqr1iG6k33GaIsg7GP9yyUDc2zvBfKxZQkiQc9l3L_WeVxERpjtWTKN-Iu-3wbFlbWghOHl87PpmoAIk-6zKX161lcF0eosfP9ZpkDkb4gOIlbS-xpdZAl1Xxonv7zKax2_d19Ousq0TSwGwXL94tEwpFmi-qH5rjpkbBEjdAaRQ7nq5VmSuxKky46DcwNh5ifDhn_yckS9rFj3cpA_6eEn1Aii_0aVvRrnT7fiQxFGVl-0m00]--></g></svg>