<?xml version="1.0" encoding="us-ascii" standalone="no"?><svg xmlns="http://www.w3.org/2000/svg" xmlns:xlink="http://www.w3.org/1999/xlink" contentStyleType="text/css" height="2790px" preserveAspectRatio="none" style="width:884px;height:2790px;background:#FFFFFF;" version="1.1" viewBox="0 0 884 2790" width="884px" zoomAndPan="magnify"><defs><filter height="300%" id="f1xmgrrt1f2ha5" width="300%" x="-1" y="-1"><feGaussianBlur result="blurOut" stdDeviation="4.0"/><feColorMatrix in="blurOut" result="blurOut2" type="matrix" values="0 0 0 0 0 0 0 0 0 0 0 0 0 0 0 0 0 0 .4 0"/><feOffset dx="8.0" dy="8.0" in="blurOut2" result="blurOut3"/><feBlend in="SourceGraphic" in2="blurOut3" mode="normal"/></filter></defs><g><g id="Pending"><rect fill="#FEFECE" filter="url(#f1xmgrrt1f2ha5)" height="100" rx="25" ry="25" style="stroke:#A80036;stroke-width:2.0;" width="152" x="291" y="250"/><line style="stroke:#A80036;stroke-width:2.0;" x1="291" x2="443" y1="302.9766" y2="302.9766"/><text fill="#000000" font-family="sans-serif" font-size="28" lengthAdjust="spacing" textLength="112" x="311" y="287.0703">Pending</text></g><g id="Processing"><rect fill="#FEFECE" filter="url(#f1xmgrrt1f2ha5)" height="100" rx="25" ry="25" style="stroke:#A80036;stroke-width:2.0;" width="188" x="273" y="548"/><line style="stroke:#A80036;stroke-width:2.0;" x1="273" x2="461" y1="600.9766" y2="600.9766"/><text fill="#000000" font-family="sans-serif" font-size="28" lengthAdjust="spacing" textLength="148" x="293" y="585.0703">Processing</text></g><g id="Transferring"><rect fill="#FEFECE" filter="url(#f1xmgrrt1f2ha5)" height="100" rx="25" ry="25" style="stroke:#A80036;stroke-width:2.0;" width="212" x="37" y="1304"/><line style="stroke:#A80036;stroke-width:2.0;" x1="37" x2="249" y1="1356.9766" y2="1356.9766"/><text fill="#000000" font-family="sans-serif" font-size="28" lengthAdjust="spacing" textLength="172" x="57" y="1341.0703">Transferring</text></g><g id="Fulfilled"><rect fill="#FEFECE" filter="url(#f1xmgrrt1f2ha5)" height="100" rx="25" ry="25" style="stroke:#A80036;stroke-width:2.0;" width="150" x="14" y="1602"/><line style="stroke:#A80036;stroke-width:2.0;" x1="14" x2="164" y1="1654.9766" y2="1654.9766"/><text fill="#000000" font-family="sans-serif" font-size="28" lengthAdjust="spacing" textLength="110" x="34" y="1639.0703">Fulfilled</text></g><g id="Proving"><rect fill="#FEFECE" filter="url(#f1xmgrrt1f2ha5)" height="100" rx="25" ry="25" style="stroke:#A80036;stroke-width:2.0;" width="144" x="39" y="1900"/><line style="stroke:#A80036;stroke-width:2.0;" x1="39" x2="183" y1="1952.9766" y2="1952.9766"/><text fill="#000000" font-family="sans-serif" font-size="28" lengthAdjust="spacing" textLength="104" x="59" y="1937.0703">Proving</text></g><g id="Proved"><rect fill="#FEFECE" filter="url(#f1xmgrrt1f2ha5)" height="100" rx="25" ry="25" style="stroke:#A80036;stroke-width:2.0;" width="134" x="80" y="2198"/><line style="stroke:#A80036;stroke-width:2.0;" x1="80" x2="214" y1="2250.9766" y2="2250.9766"/><text fill="#000000" font-family="sans-serif" font-size="28" lengthAdjust="spacing" textLength="94" x="100" y="2235.0703">Proved</text></g><g id="Completed"><rect fill="#90EE90" filter="url(#f1xmgrrt1f2ha5)" height="100" rx="25" ry="25" style="stroke:#A80036;stroke-width:2.0;" width="190" x="218" y="2496"/><line style="stroke:#A80036;stroke-width:2.0;" x1="218" x2="408" y1="2548.9766" y2="2548.9766"/><text fill="#000000" font-family="sans-serif" font-size="28" lengthAdjust="spacing" textLength="150" x="238" y="2533.0703">Completed</text></g><g id="Dropped"><rect fill="#FFC0CB" filter="url(#f1xmgrrt1f2ha5)" height="100" rx="25" ry="25" style="stroke:#A80036;stroke-width:2.0;" width="160" x="405" y="972"/><line style="stroke:#A80036;stroke-width:2.0;" x1="405" x2="565" y1="1024.9766" y2="1024.9766"/><text fill="#000000" font-family="sans-serif" font-size="28" lengthAdjust="spacing" textLength="120" x="425" y="1009.0703">Dropped</text></g><ellipse cx="367" cy="32" fill="#000000" filter="url(#f1xmgrrt1f2ha5)" rx="20" ry="20" style="stroke:#000000;stroke-width:2.0;"/><g id="elem_CheckFee"><polygon fill="#FEFECE" filter="url(#f1xmgrrt1f2ha5)" points="367,770,391,794,367,818,343,794,367,770" style="stroke:#A80036;stroke-width:3.0;"/></g><g id="elem_CheckAmount"><polygon fill="#FEFECE" filter="url(#f1xmgrrt1f2ha5)" points="249,998,273,1022,249,1046,225,1022,249,998" style="stroke:#A80036;stroke-width:3.0;"/></g><ellipse cx="491" cy="2740" fill="none" filter="url(#f1xmgrrt1f2ha5)" rx="22" ry="22" style="stroke:#000000;stroke-width:2.0;"/><ellipse cx="491" cy="2740" fill="#000000" rx="12" ry="12" style="stroke:#000000;stroke-width:2.0;"/><!--link *start* to Pending--><g id="link_*start*_Pending"><path d="M367,52.98 C367,93.66 367,178.28 367,237.3 " fill="none" id="*start*-to-Pending" style="stroke:#A80036;stroke-width:2.0;"/><polygon fill="#A80036" points="367,249.3,375,231.3,367,239.3,359,231.3,367,249.3" style="stroke:#A80036;stroke-width:2.0;"/><path d="M377,122 L377,172 L867,172 L867,142 L847,122 L377,122 " fill="#FBFB77" filter="url(#f1xmgrrt1f2ha5)" style="stroke:#A80036;stroke-width:2.0;"/><path d="M847,122 L847,142 L867,142 L847,122 " fill="#FBFB77" style="stroke:#A80036;stroke-width:2.0;"/><text fill="#000000" font-family="sans-serif" font-size="26" lengthAdjust="spacing" textLength="448" x="389" y="157.1367">Creates a new order in the database</text></g><!--link Pending to Processing--><g id="link_Pending_Processing"><path d="M367,350.54 C367,405.02 367,480.88 367,535.38 " fill="none" id="Pending-to-Processing" style="stroke:#000000;stroke-width:2.0;"/><polygon fill="#000000" points="367,547.38,375,529.38,367,537.38,359,529.38,367,547.38" style="stroke:#000000;stroke-width:2.0;"/><path d="M377,420 L377,470 L811,470 L811,440 L791,420 L377,420 " fill="#FBFB77" filter="url(#f1xmgrrt1f2ha5)" style="stroke:#A80036;stroke-width:2.0;"/><path d="M791,420 L791,440 L811,440 L791,420 " fill="#FBFB77" style="stroke:#A80036;stroke-width:2.0;"/><text fill="#000000" font-family="sans-serif" font-size="26" lengthAdjust="spacing" textLength="392" x="389" y="455.1367">MM Starts processing the order</text></g><!--link Processing to CheckFee--><g id="link_Processing_CheckFee"><path d="M367,648.94 C367,687.38 367,727.2 367,756.76 " fill="none" id="Processing-to-CheckFee" style="stroke:#000000;stroke-width:2.0;"/><polygon fill="#000000" points="367,768.76,375,750.76,367,758.76,359,750.76,367,768.76" style="stroke:#000000;stroke-width:2.0;"/></g><!--link CheckFee to CheckAmount--><g id="link_CheckFee_CheckAmount"><path d="M349.22,800.9 C319.28,810.22 259.64,833.68 235,878 C212.36,918.7 225.9983,965.0845 237.2583,992.7645 " fill="none" id="CheckFee-to-CheckAmount" style="stroke:#000000;stroke-width:2.0;"/><polygon fill="#000000" points="241.78,1003.88,242.4078,984.1923,238.0119,994.6171,227.5871,990.2212,241.78,1003.88" style="stroke:#000000;stroke-width:2.0;"/><text fill="#000000" font-family="sans-serif" font-size="26" lengthAdjust="spacing" textLength="186" x="237" y="905.1367">[fee is enough]</text></g><!--link CheckFee to Dropped--><g id="link_CheckFee_Dropped"><path d="M379.28,806.42 C395.6,820.9 424.3,848.66 441,878 C457.46,906.94 465.6629,931.1002 472.5829,959.5402 " fill="none" id="CheckFee-to-Dropped" style="stroke:#FF0000;stroke-width:2.0;"/><polygon fill="#FF0000" points="475.42,971.2,478.9376,951.8189,473.0558,961.4835,463.3912,955.6017,475.42,971.2" style="stroke:#FF0000;stroke-width:2.0;"/></g><!--link CheckAmount to Transferring--><g id="link_CheckAmount_Transferring"><path d="M240.18,1038.14 C227.94,1058.28 205.92,1096.7 193,1132 C172,1189.38 160.0326,1246.69 152.3326,1291.95 " fill="none" id="CheckAmount-to-Transferring" style="stroke:#000000;stroke-width:2.0;"/><polygon fill="#000000" points="150.32,1303.78,161.2256,1287.3767,151.9972,1293.9217,145.4522,1284.6932,150.32,1303.78" style="stroke:#000000;stroke-width:2.0;"/><text fill="#000000" font-family="sans-serif" font-size="26" lengthAdjust="spacing" textLength="266" x="233" y="1159.1367">[amount &lt;= 0.1 ETH]</text><path d="M203,1176.6211 L203,1226.6211 L521,1226.6211 L521,1196.6211 L501,1176.6211 L203,1176.6211 " fill="#FBFB77" filter="url(#f1xmgrrt1f2ha5)" style="stroke:#A80036;stroke-width:2.0;"/><path d="M501,1176.6211 L501,1196.6211 L521,1196.6211 L501,1176.6211 " fill="#FBFB77" style="stroke:#A80036;stroke-width:2.0;"/><text fill="#000000" font-family="sans-serif" font-size="26" lengthAdjust="spacing" textLength="276" x="215" y="1211.7578">Transfers funds on L1</text></g><!--link CheckAmount to Dropped--><g id="link_CheckAmount_Dropped"><path d="M273.9,1022 C317.32,1022 348.76,1022 392.18,1022 " fill="none" id="CheckAmount-to-Dropped" style="stroke:#FF0000;stroke-width:2.0;"/><polygon fill="#FF0000" points="404.18,1022,386.18,1014,394.18,1022,386.18,1030,404.18,1022" style="stroke:#FF0000;stroke-width:2.0;"/></g><!--link Transferring to Fulfilled--><g id="link_Transferring_Fulfilled"><path d="M107.86,1404.7 C97.04,1422.48 86.52,1443.32 81,1464 C68.84,1509.6 71.3096,1551.8235 77.2496,1589.8835 " fill="none" id="Transferring-to-Fulfilled" style="stroke:#000000;stroke-width:2.0;"/><polygon fill="#000000" points="79.1,1601.74,84.2287,1582.7217,77.558,1591.8596,68.42,1585.1889,79.1,1601.74" style="stroke:#000000;stroke-width:2.0;"/><path d="M91,1474 L91,1524 L521,1524 L521,1494 L501,1474 L91,1474 " fill="#FBFB77" filter="url(#f1xmgrrt1f2ha5)" style="stroke:#A80036;stroke-width:2.0;"/><path d="M501,1474 L501,1494 L521,1494 L501,1474 " fill="#FBFB77" style="stroke:#A80036;stroke-width:2.0;"/><text fill="#000000" font-family="sans-serif" font-size="26" lengthAdjust="spacing" textLength="388" x="103" y="1509.1367">Waits for transfer confirmation</text></g><!--link Fulfilled to Proving--><g id="link_Fulfilled_Proving"><path d="M92.64,1702.54 C96.7,1757.02 102.3842,1832.9135 106.4642,1887.4135 " fill="none" id="Fulfilled-to-Proving" style="stroke:#000000;stroke-width:2.0;"/><polygon fill="#000000" points="107.36,1899.38,113.9939,1880.833,106.6135,1889.4079,98.0386,1882.0275,107.36,1899.38" style="stroke:#000000;stroke-width:2.0;"/><path d="M113,1772 L113,1822 L441,1822 L441,1792 L421,1772 L113,1772 " fill="#FBFB77" filter="url(#f1xmgrrt1f2ha5)" style="stroke:#A80036;stroke-width:2.0;"/><path d="M421,1772 L421,1792 L441,1792 L421,1772 " fill="#FBFB77" style="stroke:#A80036;stroke-width:2.0;"/><text fill="#000000" font-family="sans-serif" font-size="26" lengthAdjust="spacing" textLength="286" x="125" y="1807.1367">Send proof of payment</text></g><!--link Proving to Proved--><g id="link_Proving_Proved"><path d="M106.76,2000.52 C104.5,2038.24 103.5,2091.78 111,2138 C114.22,2157.9 116.5835,2167.7721 123.0835,2186.0721 " fill="none" id="Proving-to-Proved" style="stroke:#000000;stroke-width:2.0;"/><polygon fill="#000000" points="127.1,2197.38,128.6139,2177.7405,123.753,2187.9568,113.5367,2183.0958,127.1,2197.38" style="stroke:#000000;stroke-width:2.0;"/><path d="M121,2070 L121,2120 L521,2120 L521,2090 L501,2070 L121,2070 " fill="#FBFB77" filter="url(#f1xmgrrt1f2ha5)" style="stroke:#A80036;stroke-width:2.0;"/><path d="M501,2070 L501,2090 L521,2090 L501,2070 " fill="#FBFB77" style="stroke:#A80036;stroke-width:2.0;"/><text fill="#000000" font-family="sans-serif" font-size="26" lengthAdjust="spacing" textLength="358" x="133" y="2105.1367">Waits for proof confirmation</text></g><!--link Proved to Completed--><g id="link_Proved_Completed"><path d="M164.48,2298.22 C179.32,2336.74 202.42,2391.46 229,2436 C241.18,2456.4 249.1675,2467.9665 263.5075,2485.9065 " fill="none" id="Proved-to-Completed" style="stroke:#000000;stroke-width:2.0;"/><polygon fill="#000000" points="271,2495.28,266.0102,2476.2248,264.7562,2487.4688,253.5122,2486.2148,271,2495.28" style="stroke:#000000;stroke-width:2.0;"/><path d="M239,2368 L239,2418 L521,2418 L521,2388 L501,2368 L239,2368 " fill="#FBFB77" filter="url(#f1xmgrrt1f2ha5)" style="stroke:#A80036;stroke-width:2.0;"/><path d="M501,2368 L501,2388 L521,2388 L501,2368 " fill="#FBFB77" style="stroke:#A80036;stroke-width:2.0;"/><text fill="#000000" font-family="sans-serif" font-size="26" lengthAdjust="spacing" textLength="240" x="251" y="2403.1367">Order is completed</text></g><!--link Completed to *end*--><g id="link_Completed_*end*"><path d="M358.84,2596.92 C397.98,2638.72 443.6164,2687.4221 468.7764,2714.2821 " fill="none" id="Completed-to-*end*" style="stroke:#A80036;stroke-width:2.0;"/><polygon fill="#A80036" points="476.98,2723.04,470.5132,2704.4341,470.1437,2715.7417,458.836,2715.3722,476.98,2723.04" style="stroke:#A80036;stroke-width:2.0;"/></g><!--link Dropped to *end*--><g id="link_Dropped_*end*"><path d="M517.54,1072.88 C528.28,1090.86 539.4,1111.76 547,1132 C582.06,1225.34 591,1252.28 591,1352 C591,1352 591,1352 591,2548 C591,2620.32 541.661,2683.2689 513.841,2713.8089 " fill="none" id="Dropped-to-*end*" style="stroke:#A80036;stroke-width:2.0;"/><polygon fill="#A80036" points="505.76,2722.68,523.7956,2714.7607,512.4942,2715.2874,511.9675,2703.986,505.76,2722.68" style="stroke:#A80036;stroke-width:2.0;"/></g><!--SRC=[VPF1QyCW5CRl_XKFUXjqhDVH5KQtiiFA1Yti47AmyPb84WrgElRVJniJaxGRv68-lz_xzFbCAIHePP2GWwKMuHCb4pBlLrfbQ4pySTHK6evQnr-xjkAYgf15ptb2E0_ILjLDXHOPB2gH5pRNY39eBrerZLSQ8Kj2ahiKbcov6G99vJOf2PMN0ROQdSi01OdVe3H33Uueja1WrD8JTKToJl0sGWB44PF5gQ9PcNfoFDmClj-32wMjWMROSq5VweouuLW5PkKE4TRhh50Ymyrch3pNgfLsBCRAqqGzY0p4QpdG7Y7XJXS6KAesBr8oCkbaeP5vIxZL80Rl13hkgAVIaFO97kvNy7fyI-UtqpiCy5OouvNtLRoKIQKRIIO59r7YIvfL_AB2zO8h3JQO8LEI2rrJAvGSDMH0NBNwVAFF1szqBLOStDVGdngb7J-RpdRD-YzYn_iZNsUUjRMVYZdpetlLni7w7P4KP-ao9cvUI3z2ox3-1G00]--></g></svg>