<?xml version="1.0" encoding="us-ascii" standalone="no"?><svg xmlns="http://www.w3.org/2000/svg" xmlns:xlink="http://www.w3.org/1999/xlink" contentStyleType="text/css" height="2578px" preserveAspectRatio="none" style="width:1054px;height:2578px;background:#FFFFFF;" version="1.1" viewBox="0 0 1054 2578" width="1054px" zoomAndPan="magnify"><defs><filter height="300%" id="ffptxd9gwyqeb" width="300%" x="-1" y="-1"><feGaussianBlur result="blurOut" stdDeviation="4.0"/><feColorMatrix in="blurOut" result="blurOut2" type="matrix" values="0 0 0 0 0 0 0 0 0 0 0 0 0 0 0 0 0 0 .4 0"/><feOffset dx="8.0" dy="8.0" in="blurOut2" result="blurOut3"/><feBlend in="SourceGraphic" in2="blurOut3" mode="normal"/></filter></defs><g><rect fill="#FEFECE" filter="url(#ffptxd9gwyqeb)" height="80" rx="25" ry="25" style="stroke:#A80036;stroke-width:2.0;" width="132" x="470" y="260.62"/><text fill="#000000" font-family="sans-serif" font-size="28" lengthAdjust="spacing" textLength="112" x="480" y="311.202">Pending</text><rect fill="#FEFECE" filter="url(#ffptxd9gwyqeb)" height="80" rx="25" ry="25" style="stroke:#A80036;stroke-width:2.0;" width="168" x="452" y="538.62"/><text fill="#000000" font-family="sans-serif" font-size="28" lengthAdjust="spacing" textLength="148" x="462" y="589.202">Processing</text><rect fill="#FEFECE" filter="url(#ffptxd9gwyqeb)" height="80" rx="25" ry="25" style="stroke:#A80036;stroke-width:2.0;" width="192" x="14" y="1193.86"/><text fill="#000000" font-family="sans-serif" font-size="28" lengthAdjust="spacing" textLength="172" x="24" y="1244.442">Transferring</text><rect fill="#FEFECE" filter="url(#ffptxd9gwyqeb)" height="80" rx="25" ry="25" style="stroke:#A80036;stroke-width:2.0;" width="130" x="47" y="1471.86"/><text fill="#000000" font-family="sans-serif" font-size="28" lengthAdjust="spacing" textLength="110" x="57" y="1522.442">Fulfilled</text><rect fill="#FEFECE" filter="url(#ffptxd9gwyqeb)" height="80" rx="25" ry="25" style="stroke:#A80036;stroke-width:2.0;" width="124" x="72" y="1749.86"/><text fill="#000000" font-family="sans-serif" font-size="28" lengthAdjust="spacing" textLength="104" x="82" y="1800.442">Proving</text><rect fill="#FEFECE" filter="url(#ffptxd9gwyqeb)" height="80" rx="25" ry="25" style="stroke:#A80036;stroke-width:2.0;" width="114" x="113" y="2027.86"/><text fill="#000000" font-family="sans-serif" font-size="28" lengthAdjust="spacing" textLength="94" x="123" y="2078.442">Proved</text><rect fill="#90EE90" filter="url(#ffptxd9gwyqeb)" height="80" rx="25" ry="25" style="stroke:#A80036;stroke-width:2.0;" width="170" x="255" y="2305.86"/><text fill="#000000" font-family="sans-serif" font-size="28" lengthAdjust="spacing" textLength="150" x="265" y="2356.442">Completed</text><rect fill="#FFC0CB" filter="url(#ffptxd9gwyqeb)" height="80" rx="25" ry="25" style="stroke:#A80036;stroke-width:2.0;" width="140" x="544" y="1193.86"/><text fill="#000000" font-family="sans-serif" font-size="28" lengthAdjust="spacing" textLength="120" x="554" y="1244.442">Dropped</text><g id="elem_N1"><path d="M626,12 L626,62.6211 L938,62.6211 L938,32 L918,12 L626,12 " fill="#FBFB77" filter="url(#ffptxd9gwyqeb)" style="stroke:#A80036;stroke-width:2.0;"/><path d="M918,12 L918,32 L938,32 L918,12 " fill="#FBFB77" style="stroke:#A80036;stroke-width:2.0;"/><text fill="#000000" font-family="sans-serif" font-size="26" lengthAdjust="spacing" textLength="270" x="638" y="47.1367">User sets a new order</text></g><ellipse cx="536" cy="37.3" fill="#000000" filter="url(#ffptxd9gwyqeb)" rx="20" ry="20" style="stroke:#000000;stroke-width:2.0;"/><g id="elem_CheckFee"><polygon fill="#FEFECE" filter="url(#ffptxd9gwyqeb)" points="536,741.92,560,765.92,536,789.92,512,765.92,536,741.92" style="stroke:#A80036;stroke-width:3.0;"/></g><g id="elem_GMN15"><path d="M631,740.62 L631,757.92 L560.94,765.92 L631,773.92 L631,791.2411 A0,0 0 0 0 631,791.2411 L853,791.2411 A0,0 0 0 0 853,791.2411 L853,760.62 L833,740.62 L631,740.62 A0,0 0 0 0 631,740.62 " fill="#FBFB77" filter="url(#ffptxd9gwyqeb)" style="stroke:#A80036;stroke-width:2.0;"/><path d="M833,740.62 L833,760.62 L853,760.62 L833,740.62 " fill="#FBFB77" style="stroke:#A80036;stroke-width:2.0;"/><text fill="#000000" font-family="sans-serif" font-size="26" lengthAdjust="spacing" textLength="180" x="643" y="775.7567">Is fee enough?</text></g><g id="elem_CheckAmount"><polygon fill="#FEFECE" filter="url(#ffptxd9gwyqeb)" points="454,946.54,478,970.54,454,994.54,430,970.54,454,946.54" style="stroke:#A80036;stroke-width:3.0;"/></g><g id="elem_GMN19"><path d="M59,945.24 L59,995.8611 A0,0 0 0 0 59,995.8611 L361,995.8611 A0,0 0 0 0 361,995.8611 L361,981.24 L428.72,970.54 L361,965.24 L361,965.24 L341,945.24 L59,945.24 A0,0 0 0 0 59,945.24 " fill="#FBFB77" filter="url(#ffptxd9gwyqeb)" style="stroke:#A80036;stroke-width:2.0;"/><path d="M341,945.24 L341,965.24 L361,965.24 L341,945.24 " fill="#FBFB77" style="stroke:#A80036;stroke-width:2.0;"/><text fill="#000000" font-family="sans-serif" font-size="26" lengthAdjust="spacing" textLength="260" x="71" y="980.3767">amount &lt;= 0.1 ETH?</text></g><ellipse cx="518" cy="2529.86" fill="none" filter="url(#ffptxd9gwyqeb)" rx="22" ry="22" style="stroke:#000000;stroke-width:2.0;"/><ellipse cx="518" cy="2529.86" fill="#000000" rx="12" ry="12" style="stroke:#000000;stroke-width:2.0;"/><!--link *start* to Pending--><g id="link_*start*_Pending"><path d="M536,57.96 C536,100.22 536,192.04 536,248.52 " fill="none" id="*start*-to-Pending" style="stroke:#A80036;stroke-width:2.0;"/><polygon fill="#A80036" points="536,260.52,544,242.52,536,250.52,528,242.52,536,260.52" style="stroke:#A80036;stroke-width:2.0;"/><path d="M546,132.62 L546,182.62 L1036,182.62 L1036,152.62 L1016,132.62 L546,132.62 " fill="#FBFB77" filter="url(#ffptxd9gwyqeb)" style="stroke:#A80036;stroke-width:2.0;"/><path d="M1016,132.62 L1016,152.62 L1036,152.62 L1016,132.62 " fill="#FBFB77" style="stroke:#A80036;stroke-width:2.0;"/><text fill="#000000" font-family="sans-serif" font-size="26" lengthAdjust="spacing" textLength="448" x="558" y="167.7567">Creates a new order in the database</text></g><!--link Pending to Processing--><g id="link_Pending_Processing"><path d="M536,341.3 C536,393.52 536,474.02 536,526.14 " fill="none" id="Pending-to-Processing" style="stroke:#000000;stroke-width:2.0;"/><polygon fill="#000000" points="536,538.14,544,520.14,536,528.14,528,520.14,536,538.14" style="stroke:#000000;stroke-width:2.0;"/><path d="M546,410.62 L546,460.62 L880,460.62 L880,430.62 L860,410.62 L546,410.62 " fill="#FBFB77" filter="url(#ffptxd9gwyqeb)" style="stroke:#A80036;stroke-width:2.0;"/><path d="M860,410.62 L860,430.62 L880,430.62 L860,410.62 " fill="#FBFB77" style="stroke:#A80036;stroke-width:2.0;"/><text fill="#000000" font-family="sans-serif" font-size="26" lengthAdjust="spacing" textLength="292" x="558" y="445.7567">Starts processing order</text></g><!--link Processing to CheckFee--><g id="link_Processing_CheckFee"><path d="M536,619.5 C536,656.28 536,698.26 536,728.74 " fill="none" id="Processing-to-CheckFee" style="stroke:#000000;stroke-width:2.0;"/><polygon fill="#000000" points="536,740.74,544,722.74,536,730.74,528,722.74,536,740.74" style="stroke:#000000;stroke-width:2.0;"/></g><!--link CheckFee to CheckAmount--><g id="link_CheckFee_CheckAmount"><path d="M529.28,784.34 C513.84,822.16 480.4404,903.8721 465.1204,941.3521 " fill="none" id="CheckFee-to-CheckAmount" style="stroke:#000000;stroke-width:2.0;"/><polygon fill="#000000" points="460.58,952.46,474.7958,938.8251,464.3636,943.2034,459.9853,932.7713,460.58,952.46" style="stroke:#000000;stroke-width:2.0;"/><text fill="#000000" font-family="sans-serif" font-size="26" lengthAdjust="spacing" textLength="42" x="502" y="878.3767">yes</text></g><!--link CheckFee to Dropped--><g id="link_CheckFee_Dropped"><path d="M542.22,784.94 C548.12,801.62 556.8,827.88 562,851.24 C589.48,974.6 603.7069,1111.9263 609.8069,1181.1663 " fill="none" id="CheckFee-to-Dropped" style="stroke:#FF0000;stroke-width:2.0;"/><polygon fill="#FF0000" points="610.86,1193.12,617.2495,1174.4874,609.9824,1183.1586,601.3112,1175.8915,610.86,1193.12" style="stroke:#FF0000;stroke-width:2.0;"/><text fill="#000000" font-family="sans-serif" font-size="26" lengthAdjust="spacing" textLength="32" x="590" y="980.6767">no</text></g><!--link CheckAmount to Transferring--><g id="link_CheckAmount_Transferring"><path d="M438,979.8 C426.5,984.8 410.5,991.36 396,995.86 C279.44,1032.08 209.06,964.6 128,1055.86 C94.96,1093.06 94.8288,1141.7798 100.4488,1181.2598 " fill="none" id="CheckAmount-to-Transferring" style="stroke:#000000;stroke-width:2.0;"/><polygon fill="#000000" points="102.14,1193.14,107.5234,1174.1922,100.7307,1183.2398,91.6831,1176.4471,102.14,1193.14" style="stroke:#000000;stroke-width:2.0;"/><path d="M138,1065.86 L138,1115.86 L456,1115.86 L456,1085.86 L436,1065.86 L138,1065.86 " fill="#FBFB77" filter="url(#ffptxd9gwyqeb)" style="stroke:#A80036;stroke-width:2.0;"/><path d="M436,1065.86 L436,1085.86 L456,1085.86 L436,1065.86 " fill="#FBFB77" style="stroke:#A80036;stroke-width:2.0;"/><text fill="#000000" font-family="sans-serif" font-size="26" lengthAdjust="spacing" textLength="276" x="150" y="1100.9967">Transfers funds on L1</text></g><!--link CheckAmount to Dropped--><g id="link_CheckAmount_Dropped"><path d="M460.18,989.34 C471.66,1019.54 498.04,1084.48 530,1133.86 C543.64,1154.92 553.3811,1167.4107 569.0811,1184.8107 " fill="none" id="CheckAmount-to-Dropped" style="stroke:#FF0000;stroke-width:2.0;"/><polygon fill="#FF0000" points="577.12,1193.72,571.0012,1174.9967,570.4209,1186.2956,559.1221,1185.7152,577.12,1193.72" style="stroke:#FF0000;stroke-width:2.0;"/><text fill="#000000" font-family="sans-serif" font-size="26" lengthAdjust="spacing" textLength="32" x="532" y="1104.9967">no</text></g><!--link Transferring to Fulfilled--><g id="link_Transferring_Fulfilled"><path d="M107.12,1274 C105.9,1292.12 104.6,1314.1 104,1333.86 C102.94,1368.52 102.58,1377.22 104,1411.86 C104.8,1431.64 105.4383,1441.6688 107.0783,1459.7888 " fill="none" id="Transferring-to-Fulfilled" style="stroke:#000000;stroke-width:2.0;"/><polygon fill="#000000" points="108.16,1471.74,114.5049,1453.0922,107.2586,1461.7807,98.5701,1454.5344,108.16,1471.74" style="stroke:#000000;stroke-width:2.0;"/><path d="M114,1343.86 L114,1393.86 L544,1393.86 L544,1363.86 L524,1343.86 L114,1343.86 " fill="#FBFB77" filter="url(#ffptxd9gwyqeb)" style="stroke:#A80036;stroke-width:2.0;"/><path d="M524,1343.86 L524,1363.86 L544,1363.86 L524,1343.86 " fill="#FBFB77" style="stroke:#A80036;stroke-width:2.0;"/><text fill="#000000" font-family="sans-serif" font-size="26" lengthAdjust="spacing" textLength="388" x="126" y="1378.9967">Waits for transfer confirmation</text></g><!--link Fulfilled to Proving--><g id="link_Fulfilled_Proving"><path d="M115.1,1552.54 C119.3,1604.76 125.7561,1685.2988 129.9561,1737.4188 " fill="none" id="Fulfilled-to-Proving" style="stroke:#000000;stroke-width:2.0;"/><polygon fill="#000000" points="130.92,1749.38,137.4483,1730.7956,130.1168,1739.4123,121.5,1732.0807,130.92,1749.38" style="stroke:#000000;stroke-width:2.0;"/><path d="M136,1621.86 L136,1671.86 L464,1671.86 L464,1641.86 L444,1621.86 L136,1621.86 " fill="#FBFB77" filter="url(#ffptxd9gwyqeb)" style="stroke:#A80036;stroke-width:2.0;"/><path d="M444,1621.86 L444,1641.86 L464,1641.86 L444,1621.86 " fill="#FBFB77" style="stroke:#A80036;stroke-width:2.0;"/><text fill="#000000" font-family="sans-serif" font-size="26" lengthAdjust="spacing" textLength="286" x="148" y="1656.9967">Send proof of payment</text></g><!--link Proving to Proved--><g id="link_Proving_Proved"><path d="M130.12,1830.66 C127.46,1866.54 125.7,1921.24 134,1967.86 C137.62,1988.2 140.6344,1998.7461 147.8744,2016.5261 " fill="none" id="Proving-to-Proved" style="stroke:#000000;stroke-width:2.0;"/><polygon fill="#000000" points="152.4,2027.64,153.0209,2007.9521,148.6287,2018.3784,138.2024,2013.9862,152.4,2027.64" style="stroke:#000000;stroke-width:2.0;"/><path d="M144,1899.86 L144,1949.86 L544,1949.86 L544,1919.86 L524,1899.86 L144,1899.86 " fill="#FBFB77" filter="url(#ffptxd9gwyqeb)" style="stroke:#A80036;stroke-width:2.0;"/><path d="M524,1899.86 L524,1919.86 L544,1919.86 L524,1899.86 " fill="#FBFB77" style="stroke:#A80036;stroke-width:2.0;"/><text fill="#000000" font-family="sans-serif" font-size="26" lengthAdjust="spacing" textLength="358" x="156" y="1934.9967">Waits for proof confirmation</text></g><!--link Proved to Completed--><g id="link_Proved_Completed"><path d="M184.22,2108.66 C198.6,2145.52 222.82,2201.7 252,2245.86 C265.86,2266.84 275.8166,2279.1795 292.0566,2296.3595 " fill="none" id="Proved-to-Completed" style="stroke:#000000;stroke-width:2.0;"/><polygon fill="#000000" points="300.3,2305.08,293.7486,2286.5037,293.4305,2297.8129,282.1213,2297.4948,300.3,2305.08" style="stroke:#000000;stroke-width:2.0;"/><path d="M262,2177.86 L262,2227.86 L544,2227.86 L544,2197.86 L524,2177.86 L262,2177.86 " fill="#FBFB77" filter="url(#ffptxd9gwyqeb)" style="stroke:#A80036;stroke-width:2.0;"/><path d="M524,2177.86 L524,2197.86 L544,2197.86 L524,2177.86 " fill="#FBFB77" style="stroke:#A80036;stroke-width:2.0;"/><text fill="#000000" font-family="sans-serif" font-size="26" lengthAdjust="spacing" textLength="240" x="274" y="2212.9967">Order is completed</text></g><!--link Completed to *end*--><g id="link_Completed_*end*"><path d="M377.74,2386.04 C416.94,2425.66 467.8014,2477.0883 495.0014,2504.5883 " fill="none" id="Completed-to-*end*" style="stroke:#A80036;stroke-width:2.0;"/><polygon fill="#A80036" points="503.44,2513.12,496.4699,2494.6967,496.4078,2506.0103,485.0943,2505.9482,503.44,2513.12" style="stroke:#A80036;stroke-width:2.0;"/></g><!--link Dropped to *end*--><g id="link_Dropped_*end*"><path d="M614,1273.98 C614,1326.92 614,1425.66 614,1509.86 C614,1509.86 614,1509.86 614,2347.86 C614,2415.86 568.1199,2474.2644 541.1199,2503.6444 " fill="none" id="Dropped-to-*end*" style="stroke:#A80036;stroke-width:2.0;"/><polygon fill="#A80036" points="533,2512.48,551.0702,2504.6398,539.7665,2505.117,539.2894,2493.8134,533,2512.48" style="stroke:#A80036;stroke-width:2.0;"/></g><!--SRC=[VPDDIyD048Rl-ok6zYPKxBNKYbIBWgXWnKFfOPkT94kJtJ2xhVJVEsa-DabLo2KxypxpxVRQ05c78jKA0VF2dq2XYqWNNbiZn8UN7k4TZT8cQVx8HkXSU5YJD2v6el2qEcInpZ9KGNFi4OwjQMdp8aEF2iQPJbAV4AAfRGzaYwAq5DhiXJ2MtqQV3WaSUWSI37w39OKq0kdWTIesLrkOgCcYpVciiGQoaW2m96HmJmhS19yYAEdbJd8pM0cbJ8WQmiJDU9V9QByjoQ7-0PoJ9awhQ1sg01rWNNAAqNw52FDvb5eTuM9HeQXi0DYuzM0emBE3c9tHs4EItWLQ1tQVsuFn5xmCuu2hVCv4MRlVmitr51xNJnrgAAzVTfjIc_raQAspcC49NSUDDcD2LNeryvnnA26wcYwhjq-35ZSsRid1A5TQNgOX-HvI_H6to-_N6DPs4FPBQXviR0byBOR8cbXJBi-74YRS8YwMvlZRnfH2tXUU4N-5FEN88-eiO2MxPFsNOiNx8xzAF1XjSu93vbjr7uvXZKSWXSCz7nnVdcZwFAd_Vm00]--></g></svg>