<?xml version="1.0" encoding="us-ascii" standalone="no"?><svg xmlns="http://www.w3.org/2000/svg" xmlns:xlink="http://www.w3.org/1999/xlink" contentStyleType="text/css" height="1130.4px" preserveAspectRatio="none" style="width:2047px;height:1130px;background:#FFFFFF;" version="1.1" viewBox="0 0 2047 1130" width="2047.2px" zoomAndPan="magnify"><defs/><g><rect fill="#EBC7FF" height="1086.0609" style="stroke:#181818;stroke-width:1.2;" width="158.4" x="115.2" y="14.4"/><text fill="#000000" font-family="sans-serif" font-size="31.2" font-weight="bold" lengthAdjust="spacing" textLength="134.4" x="122.4" y="44.5641">Starknet</text><rect fill="#99E6FF" height="1086.0609" style="stroke:#181818;stroke-width:1.2;" width="314.4" x="459.6" y="14.4"/><text fill="#000000" font-family="sans-serif" font-size="31.2" font-weight="bold" lengthAdjust="spacing" textLength="158.4" x="532.8" y="44.5641">Ethereum</text><rect fill="#DDDDDD" height="1086.0609" style="stroke:#181818;stroke-width:1.2;" width="1142.4" x="891.6" y="14.4"/><text fill="#000000" font-family="sans-serif" font-size="31.2" font-weight="bold" lengthAdjust="spacing" textLength="223.2" x="1351.2" y="44.5641">Market Maker</text><line style="stroke:#181818;stroke-width:1.2;stroke-dasharray:5.0,5.0;" x1="55.2" x2="55.2" y1="210.7172" y2="1114.8609"/><line style="stroke:#181818;stroke-width:1.2;stroke-dasharray:5.0,5.0;" x1="194.4" x2="194.4" y1="210.7172" y2="1114.8609"/><line style="stroke:#181818;stroke-width:1.2;stroke-dasharray:5.0,5.0;" x1="615.6" x2="615.6" y1="210.7172" y2="1114.8609"/><line style="stroke:#181818;stroke-width:1.2;stroke-dasharray:5.0,5.0;" x1="1033.2" x2="1033.2" y1="210.7172" y2="1114.8609"/><line style="stroke:#181818;stroke-width:1.2;stroke-dasharray:5.0,5.0;" x1="1513.2" x2="1513.2" y1="210.7172" y2="1114.8609"/><line style="stroke:#181818;stroke-width:1.2;stroke-dasharray:5.0,5.0;" x1="1940.4" x2="1940.4" y1="210.7172" y2="1114.8609"/><text fill="#000000" font-family="sans-serif" font-size="33.6" lengthAdjust="spacing" textLength="74.4" x="12" y="203.6297">User</text><ellipse cx="56.4" cy="47.5453" fill="#E2E2F0" rx="19.2" ry="19.2" style="stroke:#181818;stroke-width:1.2;"/><path d="M56.4,66.7453 L56.4,131.5453 M25.2,85.9453 L87.6,85.9453 M56.4,131.5453 L25.2,167.5453 M56.4,131.5453 L87.6,167.5453 " fill="none" style="stroke:#181818;stroke-width:1.2;"/><text fill="#000000" font-family="sans-serif" font-size="33.6" lengthAdjust="spacing" textLength="115.2" x="129.6" y="203.6297">Escrow</text><ellipse cx="194.4" cy="132.7453" fill="#800080" rx="28.8" ry="28.8" style="stroke:#181818;stroke-width:1.2;"/><line style="stroke:#181818;stroke-width:1.2;" x1="165.6" x2="223.2" y1="166.3453" y2="166.3453"/><text fill="#000000" font-family="sans-serif" font-size="33.6" lengthAdjust="spacing" textLength="280.8" x="469.2" y="203.6297">Payment Registry</text><ellipse cx="616.8" cy="132.7453" fill="#0000FF" rx="28.8" ry="28.8" style="stroke:#181818;stroke-width:1.2;"/><line style="stroke:#181818;stroke-width:1.2;" x1="588" x2="645.6" y1="166.3453" y2="166.3453"/><text fill="#000000" font-family="sans-serif" font-size="33.6" lengthAdjust="spacing" textLength="252" x="901.2" y="203.6297">Order Executor</text><ellipse cx="1034.4" cy="132.7453" fill="#E2E2F0" rx="28.8" ry="28.8" style="stroke:#181818;stroke-width:1.2;"/><polygon fill="#181818" points="1024.8,103.9453,1039.2,91.9453,1034.4,103.9453,1039.2,115.9453,1024.8,103.9453" style="stroke:#181818;stroke-width:2.4;"/><text fill="#000000" font-family="sans-serif" font-size="33.6" lengthAdjust="spacing" textLength="628.8" x="1191.6" y="203.6297">Order from Accepted Blocks Processor</text><ellipse cx="1513.2" cy="132.7453" fill="#E2E2F0" rx="28.8" ry="28.8" style="stroke:#181818;stroke-width:1.2;"/><polygon fill="#181818" points="1503.6,103.9453,1518,91.9453,1513.2,103.9453,1518,115.9453,1503.6,103.9453" style="stroke:#181818;stroke-width:2.4;"/><text fill="#000000" font-family="sans-serif" font-size="33.6" lengthAdjust="spacing" textLength="151.2" x="1858.8" y="203.6297">Database</text><path d="M1898.4,84.7453 C1898.4,60.7453 1941.6,60.7453 1941.6,60.7453 C1941.6,60.7453 1984.8,60.7453 1984.8,84.7453 L1984.8,147.1453 C1984.8,171.1453 1941.6,171.1453 1941.6,171.1453 C1941.6,171.1453 1898.4,171.1453 1898.4,147.1453 L1898.4,84.7453 " fill="#E2E2F0" style="stroke:#181818;stroke-width:3.5999999999999996;"/><path d="M1898.4,84.7453 C1898.4,108.7453 1941.6,108.7453 1941.6,108.7453 C1941.6,108.7453 1984.8,108.7453 1984.8,84.7453 " fill="none" style="stroke:#181818;stroke-width:3.5999999999999996;"/><path d="M67.2,246.7172 L67.2,342.7172 L439.2,342.7172 L439.2,270.7172 L415.2,246.7172 L67.2,246.7172 " fill="#FEFFDD" style="stroke:#181818;stroke-width:1.2;"/><path d="M415.2,246.7172 L415.2,270.7172 L439.2,270.7172 L415.2,246.7172 " fill="#FEFFDD" style="stroke:#181818;stroke-width:1.2;"/><text fill="#000000" font-family="sans-serif" font-size="31.2" lengthAdjust="spacing" textLength="302.4" x="81.6" y="288.8812">Order already exists</text><text fill="#000000" font-family="sans-serif" font-size="31.2" lengthAdjust="spacing" textLength="312" x="91.2" y="325.6266">in an accepted block</text><polygon fill="#800080" points="220.8,397.7531,196.8,407.3531,220.8,416.9531,211.2,407.3531" style="stroke:#800080;stroke-width:2.4;"/><line style="stroke:#800080;stroke-width:2.4;" x1="206.4" x2="1510.8" y1="407.3531" y2="407.3531"/><text fill="#000000" font-family="sans-serif" font-size="31.2" lengthAdjust="spacing" textLength="516" x="235.2" y="395.9719">Gets Orders from Accepted Blocks</text><polygon fill="#181818" points="1912.8,468.0984,1936.8,477.6984,1912.8,487.2984,1922.4,477.6984" style="stroke:#181818;stroke-width:2.4;"/><line style="stroke:#181818;stroke-width:2.4;" x1="1513.2" x2="1927.2" y1="477.6984" y2="477.6984"/><text fill="#000000" font-family="sans-serif" font-size="31.2" lengthAdjust="spacing" textLength="328.8" x="1530" y="466.3172">Stores missing orders</text><polygon fill="#181818" points="1060.8,538.4438,1036.8,548.0437,1060.8,557.6438,1051.2,548.0437" style="stroke:#181818;stroke-width:2.4;"/><line style="stroke:#181818;stroke-width:2.4;" x1="1046.4" x2="1510.8" y1="548.0437" y2="548.0437"/><text fill="#000000" font-family="sans-serif" font-size="31.2" lengthAdjust="spacing" textLength="372" x="1075.2" y="536.6625">Processes missing Order</text><line style="stroke:#181818;stroke-width:2.4;" x1="1034.4" x2="1135.2" y1="618.3891" y2="618.3891"/><line style="stroke:#181818;stroke-width:2.4;" x1="1135.2" x2="1135.2" y1="618.3891" y2="649.5891"/><line style="stroke:#181818;stroke-width:2.4;" x1="1036.8" x2="1135.2" y1="649.5891" y2="649.5891"/><polygon fill="#181818" points="1060.8,639.9891,1036.8,649.5891,1060.8,659.1891,1051.2,649.5891" style="stroke:#181818;stroke-width:2.4;"/><text fill="#000000" font-family="sans-serif" font-size="31.2" lengthAdjust="spacing" textLength="242.4" x="1051.2" y="607.0078">Processes Order</text><polygon fill="#0000FF" points="643.2,710.3344,619.2,719.9344,643.2,729.5344,633.6,719.9344" style="stroke:#0000FF;stroke-width:2.4;"/><line style="stroke:#0000FF;stroke-width:2.4;" x1="628.8" x2="1032" y1="719.9344" y2="719.9344"/><text fill="#000000" font-family="sans-serif" font-size="31.2" lengthAdjust="spacing" textLength="237.6" x="657.6" y="708.5531">Transfers funds</text><polygon fill="#0000FF" points="82.8,780.6797,58.8,790.2797,82.8,799.8797,73.2,790.2797" style="stroke:#0000FF;stroke-width:2.4;"/><line style="stroke:#0000FF;stroke-width:2.4;" x1="68.4" x2="614.4" y1="790.2797" y2="790.2797"/><text fill="#000000" font-family="sans-serif" font-size="31.2" lengthAdjust="spacing" textLength="237.6" x="97.2" y="778.8984">Transfers funds</text><polygon fill="#0000FF" points="643.2,851.025,619.2,860.625,643.2,870.225,633.6,860.625" style="stroke:#0000FF;stroke-width:2.4;"/><line style="stroke:#0000FF;stroke-width:2.4;" x1="628.8" x2="1032" y1="860.625" y2="860.625"/><text fill="#000000" font-family="sans-serif" font-size="31.2" lengthAdjust="spacing" textLength="360" x="657.6" y="849.2438">Sends proof of payment</text><polygon fill="#800080" points="220.8,921.3703,196.8,930.9703,220.8,940.5703,211.2,930.9703" style="stroke:#800080;stroke-width:2.4;"/><line style="stroke:#800080;stroke-width:2.4;" x1="206.4" x2="614.4" y1="930.9703" y2="930.9703"/><text fill="#000000" font-family="sans-serif" font-size="31.2" lengthAdjust="spacing" textLength="360" x="235.2" y="919.5891">Sends proof of payment</text><polygon fill="#800080" points="1005.6,991.7156,1029.6,1001.3156,1005.6,1010.9156,1015.2,1001.3156" style="stroke:#800080;stroke-width:2.4;"/><line style="stroke:#800080;stroke-width:2.4;" x1="194.4" x2="1020" y1="1001.3156" y2="1001.3156"/><text fill="#000000" font-family="sans-serif" font-size="31.2" lengthAdjust="spacing" textLength="168" x="211.2" y="989.9344">Send funds</text><polygon fill="#181818" points="1912.8,1062.0609,1936.8,1071.6609,1912.8,1081.2609,1922.4,1071.6609" style="stroke:#181818;stroke-width:2.4;"/><line style="stroke:#181818;stroke-width:2.4;" x1="1034.4" x2="1927.2" y1="1071.6609" y2="1071.6609"/><text fill="#000000" font-family="sans-serif" font-size="31.2" lengthAdjust="spacing" textLength="398.4" x="1051.2" y="1060.2797">Stores Order as completed</text><!--SRC=[TL4xRuCm4DxzAqumTssL394I5NMAG4apHHsCEH8KiD6TKSE_xs78gqsH1-JxNlVvM1K8fNC-TsUbZNS4EqO2pR1JSWTRh-baqKECkNahIuNMLxw7X0svxm6NGDnsrDOeem86dO6N-2CITWt4inc-tdXHflj6_c63XuezzT6WaMqWpklkKI9QYxKuh_K9ALB6MK-kXYYbGX8cPpITv0tyDFizBiari3G6Muy5h6fdJc93pY3pH5gkCbLehtFD2E_JppM1iiuZK7KuUd2bj07oZTgw9jH53tYM3JWCeBAWvLmCyy4mQ0qoIgpWPJ_rzBMGpkRmWPv7GNwQTYGjhic4ifLzaQ6fc2jx01V85roQ2MBQy0uK75Jw378RxKFx4amUOWwVf2sN8LTd2rPoUKFi_ix_AcnbSuQMd3GdfntVV19wQE4VPF803Ba7v9tXisAcvs4mhX6cTAb-0000]--></g></svg>