<?xml version="1.0" encoding="us-ascii" standalone="no"?><svg xmlns="http://www.w3.org/2000/svg" xmlns:xlink="http://www.w3.org/1999/xlink" contentStyleType="text/css" height="942px" preserveAspectRatio="none" style="width:1712px;height:942px;background:#FFFFFF;" version="1.1" viewBox="0 0 1712 942" width="1712px" zoomAndPan="magnify"><defs/><g><rect fill="#EBC7FF" height="905.0508" style="stroke:#181818;stroke-width:1.0;" width="132" x="96" y="12"/><text fill="#000000" font-family="sans-serif" font-size="26" font-weight="bold" lengthAdjust="spacing" textLength="112" x="102" y="37.1367">Starknet</text><rect fill="#99E6FF" height="905.0508" style="stroke:#181818;stroke-width:1.0;" width="262" x="383" y="12"/><text fill="#000000" font-family="sans-serif" font-size="26" font-weight="bold" lengthAdjust="spacing" textLength="132" x="444" y="37.1367">Ethereum</text><rect fill="#DDDDDD" height="905.0508" style="stroke:#181818;stroke-width:1.0;" width="964" x="737" y="12"/><text fill="#000000" font-family="sans-serif" font-size="26" font-weight="bold" lengthAdjust="spacing" textLength="186" x="1126" y="37.1367">Market Maker</text><line style="stroke:#181818;stroke-width:1.0;stroke-dasharray:5.0,5.0;" x1="46" x2="46" y1="175.5977" y2="929.0508"/><line style="stroke:#181818;stroke-width:1.0;stroke-dasharray:5.0,5.0;" x1="162" x2="162" y1="175.5977" y2="929.0508"/><line style="stroke:#181818;stroke-width:1.0;stroke-dasharray:5.0,5.0;" x1="513" x2="513" y1="175.5977" y2="929.0508"/><line style="stroke:#181818;stroke-width:1.0;stroke-dasharray:5.0,5.0;" x1="861" x2="861" y1="175.5977" y2="929.0508"/><line style="stroke:#181818;stroke-width:1.0;stroke-dasharray:5.0,5.0;" x1="1267" x2="1267" y1="175.5977" y2="929.0508"/><line style="stroke:#181818;stroke-width:1.0;stroke-dasharray:5.0,5.0;" x1="1623" x2="1623" y1="175.5977" y2="929.0508"/><text fill="#000000" font-family="sans-serif" font-size="28" lengthAdjust="spacing" textLength="62" x="10" y="169.6914">User</text><ellipse cx="47" cy="39.6211" fill="#E2E2F0" rx="16" ry="16" style="stroke:#181818;stroke-width:1.0;"/><path d="M47,55.6211 L47,109.6211 M21,71.6211 L73,71.6211 M47,109.6211 L21,139.6211 M47,109.6211 L73,139.6211 " fill="none" style="stroke:#181818;stroke-width:1.0;"/><text fill="#000000" font-family="sans-serif" font-size="28" lengthAdjust="spacing" textLength="96" x="108" y="169.6914">Escrow</text><ellipse cx="162" cy="110.6211" fill="#800080" rx="24" ry="24" style="stroke:#181818;stroke-width:1.0;"/><line style="stroke:#181818;stroke-width:1.0;" x1="138" x2="186" y1="138.6211" y2="138.6211"/><text fill="#000000" font-family="sans-serif" font-size="28" lengthAdjust="spacing" textLength="234" x="391" y="169.6914">Payment Registry</text><ellipse cx="514" cy="110.6211" fill="#0000FF" rx="24" ry="24" style="stroke:#181818;stroke-width:1.0;"/><line style="stroke:#181818;stroke-width:1.0;" x1="490" x2="538" y1="138.6211" y2="138.6211"/><text fill="#000000" font-family="sans-serif" font-size="28" lengthAdjust="spacing" textLength="222" x="745" y="169.6914">Order Processor</text><ellipse cx="862" cy="110.6211" fill="#E2E2F0" rx="24" ry="24" style="stroke:#181818;stroke-width:1.0;"/><polygon fill="#181818" points="854,86.6211,866,76.6211,862,86.6211,866,96.6211,854,86.6211" style="stroke:#181818;stroke-width:2.0;"/><text fill="#000000" font-family="sans-serif" font-size="28" lengthAdjust="spacing" textLength="524" x="999" y="169.6914">Order from Accepted Blocks Processor</text><ellipse cx="1267" cy="110.6211" fill="#E2E2F0" rx="24" ry="24" style="stroke:#181818;stroke-width:1.0;"/><polygon fill="#181818" points="1259,86.6211,1271,76.6211,1267,86.6211,1271,96.6211,1259,86.6211" style="stroke:#181818;stroke-width:2.0;"/><text fill="#000000" font-family="sans-serif" font-size="28" lengthAdjust="spacing" textLength="126" x="1555" y="169.6914">Database</text><path d="M1588,70.6211 C1588,50.6211 1624,50.6211 1624,50.6211 C1624,50.6211 1660,50.6211 1660,70.6211 L1660,122.6211 C1660,142.6211 1624,142.6211 1624,142.6211 C1624,142.6211 1588,142.6211 1588,122.6211 L1588,70.6211 " fill="#E2E2F0" style="stroke:#181818;stroke-width:3.0;"/><path d="M1588,70.6211 C1588,90.6211 1624,90.6211 1624,90.6211 C1624,90.6211 1660,90.6211 1660,70.6211 " fill="none" style="stroke:#181818;stroke-width:3.0;"/><path d="M56,205.5977 L56,285.5977 L366,285.5977 L366,225.5977 L346,205.5977 L56,205.5977 " fill="#FEFFDD" style="stroke:#181818;stroke-width:1.0;"/><path d="M346,205.5977 L346,225.5977 L366,225.5977 L346,205.5977 " fill="#FEFFDD" style="stroke:#181818;stroke-width:1.0;"/><text fill="#000000" font-family="sans-serif" font-size="26" lengthAdjust="spacing" textLength="252" x="68" y="240.7344">Order already exists</text><text fill="#000000" font-family="sans-serif" font-size="26" lengthAdjust="spacing" textLength="260" x="76" y="271.3555">in an accepted block</text><polygon fill="#800080" points="184,331.4609,164,339.4609,184,347.4609,176,339.4609" style="stroke:#800080;stroke-width:2.0;"/><line style="stroke:#800080;stroke-width:2.0;" x1="172" x2="1265" y1="339.4609" y2="339.4609"/><text fill="#000000" font-family="sans-serif" font-size="26" lengthAdjust="spacing" textLength="430" x="196" y="329.9766">Gets Orders from Accepted Blocks</text><polygon fill="#181818" points="1600,390.082,1620,398.082,1600,406.082,1608,398.082" style="stroke:#181818;stroke-width:2.0;"/><line style="stroke:#181818;stroke-width:2.0;" x1="1267" x2="1612" y1="398.082" y2="398.082"/><text fill="#000000" font-family="sans-serif" font-size="26" lengthAdjust="spacing" textLength="274" x="1281" y="388.5977">Stores missing orders</text><polygon fill="#181818" points="884,448.7031,864,456.7031,884,464.7031,876,456.7031" style="stroke:#181818;stroke-width:2.0;"/><line style="stroke:#181818;stroke-width:2.0;" x1="872" x2="1265" y1="456.7031" y2="456.7031"/><text fill="#000000" font-family="sans-serif" font-size="26" lengthAdjust="spacing" textLength="310" x="896" y="447.2188">Processes missing Order</text><line style="stroke:#181818;stroke-width:2.0;" x1="862" x2="946" y1="515.3242" y2="515.3242"/><line style="stroke:#181818;stroke-width:2.0;" x1="946" x2="946" y1="515.3242" y2="541.3242"/><line style="stroke:#181818;stroke-width:2.0;" x1="864" x2="946" y1="541.3242" y2="541.3242"/><polygon fill="#181818" points="884,533.3242,864,541.3242,884,549.3242,876,541.3242" style="stroke:#181818;stroke-width:2.0;"/><text fill="#000000" font-family="sans-serif" font-size="26" lengthAdjust="spacing" textLength="202" x="876" y="505.8398">Processes Order</text><polygon fill="#0000FF" points="536,591.9453,516,599.9453,536,607.9453,528,599.9453" style="stroke:#0000FF;stroke-width:2.0;"/><line style="stroke:#0000FF;stroke-width:2.0;" x1="524" x2="860" y1="599.9453" y2="599.9453"/><text fill="#000000" font-family="sans-serif" font-size="26" lengthAdjust="spacing" textLength="198" x="548" y="590.4609">Transfers funds</text><polygon fill="#0000FF" points="69,650.5664,49,658.5664,69,666.5664,61,658.5664" style="stroke:#0000FF;stroke-width:2.0;"/><line style="stroke:#0000FF;stroke-width:2.0;" x1="57" x2="512" y1="658.5664" y2="658.5664"/><text fill="#000000" font-family="sans-serif" font-size="26" lengthAdjust="spacing" textLength="198" x="81" y="649.082">Transfers funds</text><polygon fill="#0000FF" points="536,709.1875,516,717.1875,536,725.1875,528,717.1875" style="stroke:#0000FF;stroke-width:2.0;"/><line style="stroke:#0000FF;stroke-width:2.0;" x1="524" x2="860" y1="717.1875" y2="717.1875"/><text fill="#000000" font-family="sans-serif" font-size="26" lengthAdjust="spacing" textLength="300" x="548" y="707.7031">Sends proof of payment</text><polygon fill="#800080" points="184,767.8086,164,775.8086,184,783.8086,176,775.8086" style="stroke:#800080;stroke-width:2.0;"/><line style="stroke:#800080;stroke-width:2.0;" x1="172" x2="512" y1="775.8086" y2="775.8086"/><text fill="#000000" font-family="sans-serif" font-size="26" lengthAdjust="spacing" textLength="300" x="196" y="766.3242">Sends proof of payment</text><polygon fill="#800080" points="838,826.4297,858,834.4297,838,842.4297,846,834.4297" style="stroke:#800080;stroke-width:2.0;"/><line style="stroke:#800080;stroke-width:2.0;" x1="162" x2="850" y1="834.4297" y2="834.4297"/><text fill="#000000" font-family="sans-serif" font-size="26" lengthAdjust="spacing" textLength="140" x="176" y="824.9453">Send funds</text><polygon fill="#181818" points="1600,885.0508,1620,893.0508,1600,901.0508,1608,893.0508" style="stroke:#181818;stroke-width:2.0;"/><line style="stroke:#181818;stroke-width:2.0;" x1="862" x2="1612" y1="893.0508" y2="893.0508"/><text fill="#000000" font-family="sans-serif" font-size="26" lengthAdjust="spacing" textLength="332" x="876" y="883.5664">Stores Order as completed</text><!--SRC=[TL4xRuCm4DxzAqumTssL394IDUeKWP9cYZeOSoGeOACxeuP_tyEGTuey8D_tydU7CaSedFEPEobjl2FOCX9eXgsIEzXuJKUB7cBCp4THABI-z1qisP3xxN5BY9kMcWfbb4Elq_EM_e24RGtnP8BlLrwKwgwMVrZZlcHFNTHhf6k8iwgzbuXMOYtEAtr4YfHnrfEh84eebuGfEOFCZe90aZxE2t8rp8t1ncCEYygP8p-GvejKvThhJ3F2v_XpYQ2iymXKxWyUN25rW7o3jgu8TTu1dkG970PGMj1opePPRnYqUXabLl2s6ulwcKbfK_X2puCWlqmxa6QNP4BPo8AGeIwPIxi75yXdN98AOdpX3IWugEGLv3hQXVebc6nY2j-aBHSXLsjpLd9vHMoVvyyA6tavGqDEcfFJ34iVXUvQ-0Uvl0E6t3tonl1LCUDw68ohXIbTgZy0]--></g></svg>