<?xml version="1.0" encoding="us-ascii" standalone="no"?><svg xmlns="http://www.w3.org/2000/svg" xmlns:xlink="http://www.w3.org/1999/xlink" contentStyleType="text/css" height="1149.6px" preserveAspectRatio="none" style="width:1924px;height:1149px;background:#FFFFFF;" version="1.1" viewBox="0 0 1924 1149" width="1924.8px" zoomAndPan="magnify"><defs/><g><rect fill="#EBC7FF" height="1105.2609" style="stroke:#181818;stroke-width:1.2;" width="148.8" x="195.6" y="14.4"/><text fill="#000000" font-family="sans-serif" font-size="31.2" font-weight="bold" lengthAdjust="spacing" textLength="40.8" x="244.8" y="44.5641">L2</text><rect fill="#99E6FF" height="1105.2609" style="stroke:#181818;stroke-width:1.2;" width="314.4" x="530.4" y="14.4"/><text fill="#000000" font-family="sans-serif" font-size="31.2" font-weight="bold" lengthAdjust="spacing" textLength="158.4" x="603.6" y="44.5641">Ethereum</text><rect fill="#DDDDDD" height="1105.2609" style="stroke:#181818;stroke-width:1.2;" width="948" x="962.4" y="14.4"/><text fill="#000000" font-family="sans-serif" font-size="31.2" font-weight="bold" lengthAdjust="spacing" textLength="223.2" x="1324.8" y="44.5641">Market Maker</text><line style="stroke:#181818;stroke-width:1.2;stroke-dasharray:5.0,5.0;" x1="55.2" x2="55.2" y1="210.7172" y2="1134.0609"/><line style="stroke:#181818;stroke-width:1.2;stroke-dasharray:5.0,5.0;" x1="270" x2="270" y1="210.7172" y2="1134.0609"/><line style="stroke:#181818;stroke-width:1.2;stroke-dasharray:5.0,5.0;" x1="686.4" x2="686.4" y1="210.7172" y2="1134.0609"/><line style="stroke:#181818;stroke-width:1.2;stroke-dasharray:5.0,5.0;" x1="1104" x2="1104" y1="210.7172" y2="1134.0609"/><line style="stroke:#181818;stroke-width:1.2;stroke-dasharray:5.0,5.0;" x1="1494" x2="1494" y1="210.7172" y2="1134.0609"/><line style="stroke:#181818;stroke-width:1.2;stroke-dasharray:5.0,5.0;" x1="1816.8" x2="1816.8" y1="210.7172" y2="1134.0609"/><text fill="#000000" font-family="sans-serif" font-size="33.6" lengthAdjust="spacing" textLength="74.4" x="12" y="203.6297">User</text><ellipse cx="56.4" cy="47.5453" fill="#E2E2F0" rx="19.2" ry="19.2" style="stroke:#181818;stroke-width:1.2;"/><path d="M56.4,66.7453 L56.4,131.5453 M25.2,85.9453 L87.6,85.9453 M56.4,131.5453 L25.2,167.5453 M56.4,131.5453 L87.6,167.5453 " fill="none" style="stroke:#181818;stroke-width:1.2;"/><text fill="#000000" font-family="sans-serif" font-size="33.6" lengthAdjust="spacing" textLength="115.2" x="205.2" y="203.6297">Escrow</text><ellipse cx="270" cy="132.7453" fill="#800080" rx="28.8" ry="28.8" style="stroke:#181818;stroke-width:1.2;"/><line style="stroke:#181818;stroke-width:1.2;" x1="241.2" x2="298.8" y1="166.3453" y2="166.3453"/><text fill="#000000" font-family="sans-serif" font-size="33.6" lengthAdjust="spacing" textLength="280.8" x="540" y="203.6297">Payment Registry</text><ellipse cx="687.6" cy="132.7453" fill="#0000FF" rx="28.8" ry="28.8" style="stroke:#181818;stroke-width:1.2;"/><line style="stroke:#181818;stroke-width:1.2;" x1="658.8" x2="716.4" y1="166.3453" y2="166.3453"/><text fill="#000000" font-family="sans-serif" font-size="33.6" lengthAdjust="spacing" textLength="252" x="972" y="203.6297">Order Executor</text><ellipse cx="1105.2" cy="132.7453" fill="#E2E2F0" rx="28.8" ry="28.8" style="stroke:#181818;stroke-width:1.2;"/><polygon fill="#181818" points="1095.6,103.9453,1110,91.9453,1105.2,103.9453,1110,115.9453,1095.6,103.9453" style="stroke:#181818;stroke-width:2.4;"/><text fill="#000000" font-family="sans-serif" font-size="33.6" lengthAdjust="spacing" textLength="374.4" x="1299.6" y="203.6297">Failed Order Processor</text><ellipse cx="1494" cy="132.7453" fill="#E2E2F0" rx="28.8" ry="28.8" style="stroke:#181818;stroke-width:1.2;"/><polygon fill="#181818" points="1484.4,103.9453,1498.8,91.9453,1494,103.9453,1498.8,115.9453,1484.4,103.9453" style="stroke:#181818;stroke-width:2.4;"/><text fill="#000000" font-family="sans-serif" font-size="33.6" lengthAdjust="spacing" textLength="151.2" x="1735.2" y="203.6297">Database</text><path d="M1774.8,84.7453 C1774.8,60.7453 1818,60.7453 1818,60.7453 C1818,60.7453 1861.2,60.7453 1861.2,84.7453 L1861.2,147.1453 C1861.2,171.1453 1818,171.1453 1818,171.1453 C1818,171.1453 1774.8,171.1453 1774.8,147.1453 L1774.8,84.7453 " fill="#E2E2F0" style="stroke:#181818;stroke-width:3.5999999999999996;"/><path d="M1774.8,84.7453 C1774.8,108.7453 1818,108.7453 1818,108.7453 C1818,108.7453 1861.2,108.7453 1861.2,84.7453 " fill="none" style="stroke:#181818;stroke-width:3.5999999999999996;"/><polygon fill="#800080" points="241.2,276.2625,265.2,285.8625,241.2,295.4625,250.8,285.8625" style="stroke:#800080;stroke-width:2.4;"/><line style="stroke:#800080;stroke-width:2.4;" x1="56.4" x2="255.6" y1="285.8625" y2="285.8625"/><text fill="#000000" font-family="sans-serif" font-size="31.2" lengthAdjust="spacing" textLength="156" x="73.2" y="274.4813">Sets Order</text><polygon fill="#800080" points="296.4,346.6078,272.4,356.2078,296.4,365.8078,286.8,356.2078" style="stroke:#800080;stroke-width:2.4;"/><line style="stroke:#800080;stroke-width:2.4;" x1="282" x2="1102.8" y1="356.2078" y2="356.2078"/><text fill="#000000" font-family="sans-serif" font-size="31.2" lengthAdjust="spacing" textLength="160.8" x="310.8" y="344.8266">Gets Order</text><line style="stroke:#181818;stroke-width:2.4;" x1="1105.2" x2="1206" y1="426.5531" y2="426.5531"/><line style="stroke:#181818;stroke-width:2.4;" x1="1206" x2="1206" y1="426.5531" y2="457.7531"/><line style="stroke:#181818;stroke-width:2.4;" x1="1136.4" x2="1206" y1="457.7531" y2="457.7531"/><line style="stroke:#181818;stroke-width:4.8;" x1="1119.6" x2="1143.6" y1="445.7531" y2="469.7531"/><line style="stroke:#181818;stroke-width:4.8;" x1="1119.6" x2="1143.6" y1="469.7531" y2="445.7531"/><text fill="#000000" font-family="sans-serif" font-size="31.2" lengthAdjust="spacing" textLength="242.4" x="1122" y="415.1719">Processes Order</text><polygon fill="#181818" points="1789.2,518.4984,1813.2,528.0984,1789.2,537.6984,1798.8,528.0984" style="stroke:#181818;stroke-width:2.4;"/><line style="stroke:#181818;stroke-width:2.4;" x1="1105.2" x2="1803.6" y1="528.0984" y2="528.0984"/><text fill="#000000" font-family="sans-serif" font-size="31.2" lengthAdjust="spacing" textLength="556.8" x="1122" y="516.7172">Stores Order as failed due to an error</text><polygon fill="#181818" points="1789.2,588.8438,1813.2,598.4438,1789.2,608.0437,1798.8,598.4438" style="stroke:#181818;stroke-width:2.4;"/><line style="stroke:#181818;stroke-width:2.4;" x1="1494" x2="1803.6" y1="598.4438" y2="598.4438"/><text fill="#000000" font-family="sans-serif" font-size="31.2" lengthAdjust="spacing" textLength="266.4" x="1510.8" y="587.0625">Gets failed orders</text><polygon fill="#181818" points="1131.6,659.1891,1107.6,668.7891,1131.6,678.3891,1122,668.7891" style="stroke:#181818;stroke-width:2.4;"/><line style="stroke:#181818;stroke-width:2.4;" x1="1117.2" x2="1491.6" y1="668.7891" y2="668.7891"/><text fill="#000000" font-family="sans-serif" font-size="31.2" lengthAdjust="spacing" textLength="331.2" x="1146" y="657.4078">Processes failed order</text><polygon fill="#0000FF" points="714,729.5344,690,739.1344,714,748.7344,704.4,739.1344" style="stroke:#0000FF;stroke-width:2.4;"/><line style="stroke:#0000FF;stroke-width:2.4;" x1="699.6" x2="1102.8" y1="739.1344" y2="739.1344"/><text fill="#000000" font-family="sans-serif" font-size="31.2" lengthAdjust="spacing" textLength="237.6" x="728.4" y="727.7531">Transfers funds</text><polygon fill="#0000FF" points="82.8,799.8797,58.8,809.4797,82.8,819.0797,73.2,809.4797" style="stroke:#0000FF;stroke-width:2.4;"/><line style="stroke:#0000FF;stroke-width:2.4;" x1="68.4" x2="685.2" y1="809.4797" y2="809.4797"/><text fill="#000000" font-family="sans-serif" font-size="31.2" lengthAdjust="spacing" textLength="237.6" x="97.2" y="798.0984">Transfers funds</text><polygon fill="#0000FF" points="714,870.225,690,879.825,714,889.425,704.4,879.825" style="stroke:#0000FF;stroke-width:2.4;"/><line style="stroke:#0000FF;stroke-width:2.4;" x1="699.6" x2="1102.8" y1="879.825" y2="879.825"/><text fill="#000000" font-family="sans-serif" font-size="31.2" lengthAdjust="spacing" textLength="360" x="728.4" y="868.4438">Sends proof of payment</text><polygon fill="#800080" points="296.4,940.5703,272.4,950.1703,296.4,959.7703,286.8,950.1703" style="stroke:#800080;stroke-width:2.4;"/><line style="stroke:#800080;stroke-width:2.4;" x1="282" x2="685.2" y1="950.1703" y2="950.1703"/><text fill="#000000" font-family="sans-serif" font-size="31.2" lengthAdjust="spacing" textLength="360" x="310.8" y="938.7891">Sends proof of payment</text><polygon fill="#800080" points="1076.4,1010.9156,1100.4,1020.5156,1076.4,1030.1156,1086,1020.5156" style="stroke:#800080;stroke-width:2.4;"/><line style="stroke:#800080;stroke-width:2.4;" x1="270" x2="1090.8" y1="1020.5156" y2="1020.5156"/><text fill="#000000" font-family="sans-serif" font-size="31.2" lengthAdjust="spacing" textLength="168" x="286.8" y="1009.1344">Send funds</text><polygon fill="#181818" points="1789.2,1081.2609,1813.2,1090.8609,1789.2,1100.4609,1798.8,1090.8609" style="stroke:#181818;stroke-width:2.4;"/><line style="stroke:#181818;stroke-width:2.4;" x1="1105.2" x2="1803.6" y1="1090.8609" y2="1090.8609"/><text fill="#000000" font-family="sans-serif" font-size="31.2" lengthAdjust="spacing" textLength="398.4" x="1122" y="1079.4797">Stores Order as completed</text><!--SRC=[VL4xJyCm4DxzAqx9pC80QeTEf2nKZLeo8GR7lj2eQIuwEwBzzvmRzn62a3nOzprztjKMeIBo9HsLDfuO2eSCsa6XP0PlZv1YQPwhIc7hQt-2p1ccxy388ErwxXeKo49m28hCxv2nFq0wc-7JJPVa-dIGEspmgtQUJqdmo3UGbaq_jaXMclVeOQNto8aor7gc1f8rM-cM7T7qqlIiN-StUAdh1YqCh9p9e7EHjXIUrLwNsY6ynCirKnNmy17VyhcGTyrXYzuDJcgTJz3NCReuIWyPnqmSOTUuu2grBsYeLGsDRO_W2NGBo4oibXFXEJ2oAQZTXVGh-9uJcuVrIc_Pz1pUMRUk4ZbKVMkTak6DKKpngSDMbkQWOw8Av7J3fqQZNolyavcDYEVwWNaN-E_A31r4wT6g7m00]--></g></svg>