<?xml version="1.0" encoding="us-ascii" standalone="no"?><svg xmlns="http://www.w3.org/2000/svg" xmlns:xlink="http://www.w3.org/1999/xlink" contentStyleType="text/css" height="1140px" preserveAspectRatio="none" style="width:7006px;height:1140px;background:#FFFFFF;" version="1.1" viewBox="0 0 7006 1140" width="7006px" zoomAndPan="magnify"><defs/><g><text fill="#000000" font-family="sans-serif" font-size="28" font-weight="bold" lengthAdjust="spacing" textLength="272" x="3353" y="47.0703">MM Diagram Class</text><!--cluster services--><g id="cluster_services"><path d="M17,184.9766 L135,184.9766 A7.5,7.5 0 0 1 140,189.9766 L154,229.9531 L6987,229.9531 A5,5 0 0 1 6992,234.9531 L6992,1121.9766 A5,5 0 0 1 6987,1126.9766 L17,1126.9766 A5,5 0 0 1 12,1121.9766 L12,189.9766 A5,5 0 0 1 17,184.9766 " fill="none" style="stroke:#000000;stroke-width:3.0;"/><line style="stroke:#000000;stroke-width:3.0;" x1="12" x2="154" y1="229.9531" y2="229.9531"/><text fill="#000000" font-family="sans-serif" font-size="28" font-weight="bold" lengthAdjust="spacing" textLength="116" x="20" y="216.0469">services</text></g><!--cluster ethereum--><g id="cluster_ethereum"><path d="M65,270.9766 L203,270.9766 A7.5,7.5 0 0 1 208,275.9766 L222,315.9531 L435,315.9531 A5,5 0 0 1 440,320.9531 L440,675.9766 A5,5 0 0 1 435,680.9766 L65,680.9766 A5,5 0 0 1 60,675.9766 L60,275.9766 A5,5 0 0 1 65,270.9766 " fill="none" style="stroke:#000000;stroke-width:3.0;"/><line style="stroke:#000000;stroke-width:3.0;" x1="60" x2="222" y1="315.9531" y2="315.9531"/><text fill="#000000" font-family="sans-serif" font-size="28" font-weight="bold" lengthAdjust="spacing" textLength="136" x="68" y="302.0469">ethereum</text></g><!--cluster starknet--><g id="cluster_starknet"><path d="M493,270.9766 L615,270.9766 A7.5,7.5 0 0 1 620,275.9766 L634,315.9531 L863,315.9531 A5,5 0 0 1 868,320.9531 L868,889.9766 A5,5 0 0 1 863,894.9766 L493,894.9766 A5,5 0 0 1 488,889.9766 L488,275.9766 A5,5 0 0 1 493,270.9766 " fill="none" style="stroke:#000000;stroke-width:3.0;"/><line style="stroke:#000000;stroke-width:3.0;" x1="488" x2="634" y1="315.9531" y2="315.9531"/><text fill="#000000" font-family="sans-serif" font-size="28" font-weight="bold" lengthAdjust="spacing" textLength="120" x="496" y="302.0469">starknet</text></g><!--cluster zksync--><g id="cluster_zksync"><path d="M921,270.9766 L1021,270.9766 A7.5,7.5 0 0 1 1026,275.9766 L1040,315.9531 L1375,315.9531 A5,5 0 0 1 1380,320.9531 L1380,675.9766 A5,5 0 0 1 1375,680.9766 L921,680.9766 A5,5 0 0 1 916,675.9766 L916,275.9766 A5,5 0 0 1 921,270.9766 " fill="none" style="stroke:#000000;stroke-width:3.0;"/><line style="stroke:#000000;stroke-width:3.0;" x1="916" x2="1040" y1="315.9531" y2="315.9531"/><text fill="#000000" font-family="sans-serif" font-size="28" font-weight="bold" lengthAdjust="spacing" textLength="98" x="924" y="302.0469">zksync</text></g><!--cluster executors--><g id="cluster_executors"><path d="M3047,514.9766 L3187,514.9766 A7.5,7.5 0 0 1 3192,519.9766 L3206,559.9531 L3365,559.9531 A5,5 0 0 1 3370,564.9531 L3370,675.9766 A5,5 0 0 1 3365,680.9766 L3047,680.9766 A5,5 0 0 1 3042,675.9766 L3042,519.9766 A5,5 0 0 1 3047,514.9766 " fill="none" style="stroke:#000000;stroke-width:3.0;"/><line style="stroke:#000000;stroke-width:3.0;" x1="3042" x2="3206" y1="559.9531" y2="559.9531"/><text fill="#000000" font-family="sans-serif" font-size="28" font-weight="bold" lengthAdjust="spacing" textLength="138" x="3050" y="546.0469">executors</text></g><!--cluster fee_calculators--><g id="cluster_fee_calculators"><path d="M2323,728.9766 L2539,728.9766 A7.5,7.5 0 0 1 2544,733.9766 L2558,773.9531 L3159,773.9531 A5,5 0 0 1 3164,778.9531 L3164,1073.9766 A5,5 0 0 1 3159,1078.9766 L2323,1078.9766 A5,5 0 0 1 2318,1073.9766 L2318,733.9766 A5,5 0 0 1 2323,728.9766 " fill="none" style="stroke:#000000;stroke-width:3.0;"/><line style="stroke:#000000;stroke-width:3.0;" x1="2318" x2="2558" y1="773.9531" y2="773.9531"/><text fill="#000000" font-family="sans-serif" font-size="28" font-weight="bold" lengthAdjust="spacing" textLength="214" x="2326" y="760.0469">fee_calculators</text></g><!--cluster indexers--><g id="cluster_indexers"><path d="M1433,514.9766 L1557,514.9766 A7.5,7.5 0 0 1 1562,519.9766 L1576,559.9531 L2265,559.9531 A5,5 0 0 1 2270,564.9531 L2270,889.9766 A5,5 0 0 1 2265,894.9766 L1433,894.9766 A5,5 0 0 1 1428,889.9766 L1428,519.9766 A5,5 0 0 1 1433,514.9766 " fill="none" style="stroke:#000000;stroke-width:3.0;"/><line style="stroke:#000000;stroke-width:3.0;" x1="1428" x2="1576" y1="559.9531" y2="559.9531"/><text fill="#000000" font-family="sans-serif" font-size="28" font-weight="bold" lengthAdjust="spacing" textLength="122" x="1436" y="546.0469">indexers</text></g><!--cluster payment_claimer--><g id="cluster_payment_claimer"><path d="M3217,728.9766 L3463,728.9766 A7.5,7.5 0 0 1 3468,733.9766 L3482,773.9531 L4789,773.9531 A5,5 0 0 1 4794,778.9531 L4794,1073.9766 A5,5 0 0 1 4789,1078.9766 L3217,1078.9766 A5,5 0 0 1 3212,1073.9766 L3212,733.9766 A5,5 0 0 1 3217,728.9766 " fill="none" style="stroke:#000000;stroke-width:3.0;"/><line style="stroke:#000000;stroke-width:3.0;" x1="3212" x2="3482" y1="773.9531" y2="773.9531"/><text fill="#000000" font-family="sans-serif" font-size="28" font-weight="bold" lengthAdjust="spacing" textLength="244" x="3220" y="760.0469">payment_claimer</text></g><!--cluster processors--><g id="cluster_processors"><path d="M2339,270.9766 L2497,270.9766 A7.5,7.5 0 0 1 2502,275.9766 L2516,315.9531 L3689,315.9531 A5,5 0 0 1 3694,320.9531 L3694,431.9766 A5,5 0 0 1 3689,436.9766 L2339,436.9766 A5,5 0 0 1 2334,431.9766 L2334,275.9766 A5,5 0 0 1 2339,270.9766 " fill="none" style="stroke:#000000;stroke-width:3.0;"/><line style="stroke:#000000;stroke-width:3.0;" x1="2334" x2="2516" y1="315.9531" y2="315.9531"/><text fill="#000000" font-family="sans-serif" font-size="28" font-weight="bold" lengthAdjust="spacing" textLength="156" x="2342" y="302.0469">processors</text></g><!--cluster senders--><g id="cluster_senders"><path d="M4847,728.9766 L4961,728.9766 A7.5,7.5 0 0 1 4966,733.9766 L4980,773.9531 L5193,773.9531 A5,5 0 0 1 5198,778.9531 L5198,889.9766 A5,5 0 0 1 5193,894.9766 L4847,894.9766 A5,5 0 0 1 4842,889.9766 L4842,733.9766 A5,5 0 0 1 4847,728.9766 " fill="none" style="stroke:#000000;stroke-width:3.0;"/><line style="stroke:#000000;stroke-width:3.0;" x1="4842" x2="4980" y1="773.9531" y2="773.9531"/><text fill="#000000" font-family="sans-serif" font-size="28" font-weight="bold" lengthAdjust="spacing" textLength="112" x="4850" y="760.0469">senders</text></g><!--cluster persistence--><g id="cluster_persistence"><path d="M6162,504.9766 C6162,484.9766 6553,484.9766 6553,484.9766 C6553,484.9766 6944,484.9766 6944,504.9766 L6944,660.9766 C6944,680.9766 6553,680.9766 6553,680.9766 C6553,680.9766 6162,680.9766 6162,660.9766 L6162,504.9766 " fill="none" style="stroke:#181818;stroke-width:2.0;"/><path d="M6162,504.9766 C6162,524.9766 6553,524.9766 6553,524.9766 C6553,524.9766 6944,524.9766 6944,504.9766 " fill="none" style="stroke:#181818;stroke-width:2.0;"/><text fill="#000000" font-family="sans-serif" font-size="28" font-weight="bold" lengthAdjust="spacing" textLength="164" x="6471" y="556.0469">persistence</text></g><!--cluster models--><g id="cluster_models"><path d="M5251,270.9766 L5359,270.9766 A7.5,7.5 0 0 1 5364,275.9766 L5378,315.9531 L6109,315.9531 A5,5 0 0 1 6114,320.9531 L6114,889.9766 A5,5 0 0 1 6109,894.9766 L5251,894.9766 A5,5 0 0 1 5246,889.9766 L5246,275.9766 A5,5 0 0 1 5251,270.9766 " fill="none" style="stroke:#000000;stroke-width:3.0;"/><line style="stroke:#000000;stroke-width:3.0;" x1="5246" x2="5378" y1="315.9531" y2="315.9531"/><text fill="#000000" font-family="sans-serif" font-size="28" font-weight="bold" lengthAdjust="spacing" textLength="106" x="5254" y="302.0469">models</text></g><!--class Herodotus--><g id="elem_Herodotus"><rect codeLine="40" fill="#F1F1F1" height="64" id="Herodotus" rx="5" ry="5" style="stroke:#181818;stroke-width:1.0;" width="208" x="6280" y="340.9766"/><ellipse cx="6310" cy="372.9766" fill="#ADD1B2" rx="22" ry="22" style="stroke:#181818;stroke-width:2.0;"/><path d="M6315.9463,384.2627 Q6314.7842,384.8604 6313.5059,385.1592 Q6312.2275,385.458 6310.8164,385.458 Q6305.8027,385.458 6303.1631,382.1543 Q6300.5234,378.8506 6300.5234,372.6084 Q6300.5234,366.3496 6303.1631,363.0459 Q6305.8027,359.7422 6310.8164,359.7422 Q6312.2275,359.7422 6313.5225,360.041 Q6314.8174,360.3398 6315.9463,360.9375 L6315.9463,366.3828 Q6314.6846,365.2207 6313.4976,364.6812 Q6312.3105,364.1416 6311.0488,364.1416 Q6308.3594,364.1416 6306.9897,366.2749 Q6305.6201,368.4082 6305.6201,372.6084 Q6305.6201,376.792 6306.9897,378.9253 Q6308.3594,381.0586 6311.0488,381.0586 Q6312.3105,381.0586 6313.4976,380.519 Q6314.6846,379.9795 6315.9463,378.8174 Z " fill="#000000"/><text fill="#000000" font-family="sans-serif" font-size="28" lengthAdjust="spacing" textLength="144" x="6338" y="383.5586">Herodotus</text></g><!--class OrderService--><g id="elem_OrderService"><rect codeLine="46" fill="#F1F1F1" height="64" id="OrderService" rx="5" ry="5" style="stroke:#181818;stroke-width:1.0;" width="240" x="6560" y="340.9766"/><ellipse cx="6590" cy="372.9766" fill="#ADD1B2" rx="22" ry="22" style="stroke:#181818;stroke-width:2.0;"/><path d="M6595.9463,384.2627 Q6594.7842,384.8604 6593.5059,385.1592 Q6592.2275,385.458 6590.8164,385.458 Q6585.8027,385.458 6583.1631,382.1543 Q6580.5234,378.8506 6580.5234,372.6084 Q6580.5234,366.3496 6583.1631,363.0459 Q6585.8027,359.7422 6590.8164,359.7422 Q6592.2275,359.7422 6593.5225,360.041 Q6594.8174,360.3398 6595.9463,360.9375 L6595.9463,366.3828 Q6594.6846,365.2207 6593.4976,364.6812 Q6592.3105,364.1416 6591.0488,364.1416 Q6588.3594,364.1416 6586.9897,366.2749 Q6585.6201,368.4082 6585.6201,372.6084 Q6585.6201,376.792 6586.9897,378.9253 Q6588.3594,381.0586 6591.0488,381.0586 Q6592.3105,381.0586 6593.4976,380.519 Q6594.6846,379.9795 6595.9463,378.8174 Z " fill="#000000"/><text fill="#000000" font-family="sans-serif" font-size="28" lengthAdjust="spacing" textLength="176" x="6618" y="383.5586">OrderService</text></g><!--class Ethereum--><g id="elem_Ethereum"><rect codeLine="11" fill="#F1F1F1" height="64" id="Ethereum" rx="5" ry="5" style="stroke:#181818;stroke-width:1.0;" width="196" x="152" y="340.9766"/><ellipse cx="182" cy="372.9766" fill="#ADD1B2" rx="22" ry="22" style="stroke:#181818;stroke-width:2.0;"/><path d="M187.9463,384.2627 Q186.7842,384.8604 185.5059,385.1592 Q184.2275,385.458 182.8164,385.458 Q177.8027,385.458 175.1631,382.1543 Q172.5234,378.8506 172.5234,372.6084 Q172.5234,366.3496 175.1631,363.0459 Q177.8027,359.7422 182.8164,359.7422 Q184.2275,359.7422 185.5225,360.041 Q186.8174,360.3398 187.9463,360.9375 L187.9463,366.3828 Q186.6846,365.2207 185.4976,364.6812 Q184.3105,364.1416 183.0488,364.1416 Q180.3594,364.1416 178.9897,366.2749 Q177.6201,368.4082 177.6201,372.6084 Q177.6201,376.792 178.9897,378.9253 Q180.3594,381.0586 183.0488,381.0586 Q184.3105,381.0586 185.4976,380.519 Q186.6846,379.9795 187.9463,378.8174 Z " fill="#000000"/><text fill="#000000" font-family="sans-serif" font-size="28" lengthAdjust="spacing" textLength="132" x="210" y="383.5586">Ethereum</text></g><!--class EthereumRpcNode--><g id="elem_EthereumRpcNode"><rect codeLine="33" fill="#F1F1F1" height="64" id="EthereumRpcNode" rx="5" ry="5" style="stroke:#181818;stroke-width:1.0;" width="318" x="91" y="584.9766"/><ellipse cx="121" cy="616.9766" fill="#ADD1B2" rx="22" ry="22" style="stroke:#181818;stroke-width:2.0;"/><path d="M126.9463,628.2627 Q125.7842,628.8604 124.5059,629.1592 Q123.2275,629.458 121.8164,629.458 Q116.8027,629.458 114.1631,626.1543 Q111.5234,622.8506 111.5234,616.6084 Q111.5234,610.3496 114.1631,607.0459 Q116.8027,603.7422 121.8164,603.7422 Q123.2275,603.7422 124.5225,604.041 Q125.8174,604.3398 126.9463,604.9375 L126.9463,610.3828 Q125.6846,609.2207 124.4976,608.6812 Q123.3105,608.1416 122.0488,608.1416 Q119.3594,608.1416 117.9897,610.2749 Q116.6201,612.4082 116.6201,616.6084 Q116.6201,620.792 117.9897,622.9253 Q119.3594,625.0586 122.0488,625.0586 Q123.3105,625.0586 124.4976,624.519 Q125.6846,623.9795 126.9463,622.8174 Z " fill="#000000"/><text fill="#000000" font-family="sans-serif" font-size="28" lengthAdjust="spacing" textLength="254" x="149" y="627.5586">EthereumRpcNode</text></g><!--class Starknet--><g id="elem_Starknet"><rect codeLine="67" fill="#F1F1F1" height="64" id="Starknet" rx="5" ry="5" style="stroke:#181818;stroke-width:1.0;" width="178" x="589" y="340.9766"/><ellipse cx="619" cy="372.9766" fill="#ADD1B2" rx="22" ry="22" style="stroke:#181818;stroke-width:2.0;"/><path d="M624.9463,384.2627 Q623.7842,384.8604 622.5059,385.1592 Q621.2275,385.458 619.8164,385.458 Q614.8027,385.458 612.1631,382.1543 Q609.5234,378.8506 609.5234,372.6084 Q609.5234,366.3496 612.1631,363.0459 Q614.8027,359.7422 619.8164,359.7422 Q621.2275,359.7422 622.5225,360.041 Q623.8174,360.3398 624.9463,360.9375 L624.9463,366.3828 Q623.6846,365.2207 622.4976,364.6812 Q621.3105,364.1416 620.0488,364.1416 Q617.3594,364.1416 615.9897,366.2749 Q614.6201,368.4082 614.6201,372.6084 Q614.6201,376.792 615.9897,378.9253 Q617.3594,381.0586 620.0488,381.0586 Q621.3105,381.0586 622.4976,380.519 Q623.6846,379.9795 624.9463,378.8174 Z " fill="#000000"/><text fill="#000000" font-family="sans-serif" font-size="28" lengthAdjust="spacing" textLength="114" x="647" y="383.5586">Starknet</text></g><!--class StarknetRpcNode--><g id="elem_StarknetRpcNode"><rect codeLine="83" fill="#F1F1F1" height="64" id="StarknetRpcNode" rx="5" ry="5" style="stroke:#181818;stroke-width:1.0;" width="300" x="528" y="584.9766"/><ellipse cx="558" cy="616.9766" fill="#ADD1B2" rx="22" ry="22" style="stroke:#181818;stroke-width:2.0;"/><path d="M563.9463,628.2627 Q562.7842,628.8604 561.5059,629.1592 Q560.2275,629.458 558.8164,629.458 Q553.8027,629.458 551.1631,626.1543 Q548.5234,622.8506 548.5234,616.6084 Q548.5234,610.3496 551.1631,607.0459 Q553.8027,603.7422 558.8164,603.7422 Q560.2275,603.7422 561.5225,604.041 Q562.8174,604.3398 563.9463,604.9375 L563.9463,610.3828 Q562.6846,609.2207 561.4976,608.6812 Q560.3105,608.1416 559.0488,608.1416 Q556.3594,608.1416 554.9897,610.2749 Q553.6201,612.4082 553.6201,616.6084 Q553.6201,620.792 554.9897,622.9253 Q556.3594,625.0586 559.0488,625.0586 Q560.3105,625.0586 561.4976,624.519 Q562.6846,623.9795 563.9463,622.8174 Z " fill="#000000"/><text fill="#000000" font-family="sans-serif" font-size="28" lengthAdjust="spacing" textLength="236" x="586" y="627.5586">StarknetRpcNode</text></g><!--class MMFullNodeClient--><g id="elem_MMFullNodeClient"><rect codeLine="89" fill="#F1F1F1" height="64" id="MMFullNodeClient" rx="5" ry="5" style="stroke:#181818;stroke-width:1.0;" width="314" x="521" y="798.9766"/><ellipse cx="551" cy="830.9766" fill="#ADD1B2" rx="22" ry="22" style="stroke:#181818;stroke-width:2.0;"/><path d="M556.9463,842.2627 Q555.7842,842.8604 554.5059,843.1592 Q553.2275,843.458 551.8164,843.458 Q546.8027,843.458 544.1631,840.1543 Q541.5234,836.8506 541.5234,830.6084 Q541.5234,824.3496 544.1631,821.0459 Q546.8027,817.7422 551.8164,817.7422 Q553.2275,817.7422 554.5225,818.041 Q555.8174,818.3398 556.9463,818.9375 L556.9463,824.3828 Q555.6846,823.2207 554.4976,822.6812 Q553.3105,822.1416 552.0488,822.1416 Q549.3594,822.1416 547.9897,824.2749 Q546.6201,826.4082 546.6201,830.6084 Q546.6201,834.792 547.9897,836.9253 Q549.3594,839.0586 552.0488,839.0586 Q553.3105,839.0586 554.4976,838.519 Q555.6846,837.9795 556.9463,836.8174 Z " fill="#000000"/><text fill="#000000" font-family="sans-serif" font-size="28" lengthAdjust="spacing" textLength="250" x="579" y="841.5586">MMFullNodeClient</text></g><!--class Zksync--><g id="elem_Zksync"><rect codeLine="94" fill="#F1F1F1" height="64" id="Zksync" rx="5" ry="5" style="stroke:#181818;stroke-width:1.0;" width="156" x="1070" y="340.9766"/><ellipse cx="1100" cy="372.9766" fill="#ADD1B2" rx="22" ry="22" style="stroke:#181818;stroke-width:2.0;"/><path d="M1105.9463,384.2627 Q1104.7842,384.8604 1103.5059,385.1592 Q1102.2275,385.458 1100.8164,385.458 Q1095.8027,385.458 1093.1631,382.1543 Q1090.5234,378.8506 1090.5234,372.6084 Q1090.5234,366.3496 1093.1631,363.0459 Q1095.8027,359.7422 1100.8164,359.7422 Q1102.2275,359.7422 1103.5225,360.041 Q1104.8174,360.3398 1105.9463,360.9375 L1105.9463,366.3828 Q1104.6846,365.2207 1103.4976,364.6812 Q1102.3105,364.1416 1101.0488,364.1416 Q1098.3594,364.1416 1096.9897,366.2749 Q1095.6201,368.4082 1095.6201,372.6084 Q1095.6201,376.792 1096.9897,378.9253 Q1098.3594,381.0586 1101.0488,381.0586 Q1102.3105,381.0586 1103.4976,380.519 Q1104.6846,379.9795 1105.9463,378.8174 Z " fill="#000000"/><text fill="#000000" font-family="sans-serif" font-size="28" lengthAdjust="spacing" textLength="92" x="1128" y="383.5586">Zksync</text></g><!--class EthereumAsyncRpcNode--><g id="elem_EthereumAsyncRpcNode"><rect codeLine="103" fill="#F1F1F1" height="64" id="EthereumAsyncRpcNode" rx="5" ry="5" style="stroke:#181818;stroke-width:1.0;" width="398" x="949" y="584.9766"/><ellipse cx="979" cy="616.9766" fill="#ADD1B2" rx="22" ry="22" style="stroke:#181818;stroke-width:2.0;"/><path d="M984.9463,628.2627 Q983.7842,628.8604 982.5059,629.1592 Q981.2275,629.458 979.8164,629.458 Q974.8027,629.458 972.1631,626.1543 Q969.5234,622.8506 969.5234,616.6084 Q969.5234,610.3496 972.1631,607.0459 Q974.8027,603.7422 979.8164,603.7422 Q981.2275,603.7422 982.5225,604.041 Q983.8174,604.3398 984.9463,604.9375 L984.9463,610.3828 Q983.6846,609.2207 982.4976,608.6812 Q981.3105,608.1416 980.0488,608.1416 Q977.3594,608.1416 975.9897,610.2749 Q974.6201,612.4082 974.6201,616.6084 Q974.6201,620.792 975.9897,622.9253 Q977.3594,625.0586 980.0488,625.0586 Q981.3105,625.0586 982.4976,624.519 Q983.6846,623.9795 984.9463,622.8174 Z " fill="#000000"/><text fill="#000000" font-family="sans-serif" font-size="28" lengthAdjust="spacing" textLength="334" x="1007" y="627.5586">EthereumAsyncRpcNode</text></g><!--class OrderExecutor--><g id="elem_OrderExecutor"><rect codeLine="111" fill="#F1F1F1" height="64" id="OrderExecutor" rx="5" ry="5" style="stroke:#181818;stroke-width:1.0;" width="266" x="3073" y="584.9766"/><ellipse cx="3103" cy="616.9766" fill="#ADD1B2" rx="22" ry="22" style="stroke:#181818;stroke-width:2.0;"/><path d="M3108.9463,628.2627 Q3107.7842,628.8604 3106.5059,629.1592 Q3105.2275,629.458 3103.8164,629.458 Q3098.8027,629.458 3096.1631,626.1543 Q3093.5234,622.8506 3093.5234,616.6084 Q3093.5234,610.3496 3096.1631,607.0459 Q3098.8027,603.7422 3103.8164,603.7422 Q3105.2275,603.7422 3106.5225,604.041 Q3107.8174,604.3398 3108.9463,604.9375 L3108.9463,610.3828 Q3107.6846,609.2207 3106.4976,608.6812 Q3105.3105,608.1416 3104.0488,608.1416 Q3101.3594,608.1416 3099.9897,610.2749 Q3098.6201,612.4082 3098.6201,616.6084 Q3098.6201,620.792 3099.9897,622.9253 Q3101.3594,625.0586 3104.0488,625.0586 Q3105.3105,625.0586 3106.4976,624.519 Q3107.6846,623.9795 3108.9463,622.8174 Z " fill="#000000"/><text fill="#000000" font-family="sans-serif" font-size="28" lengthAdjust="spacing" textLength="202" x="3131" y="627.5586">OrderExecutor</text></g><!--class FeeCalculator--><g id="elem_FeeCalculator"><rect codeLine="127" fill="#F1F1F1" height="64" id="FeeCalculator" rx="5" ry="5" style="stroke:#181818;stroke-width:1.0;" width="252" x="2834" y="798.9766"/><ellipse cx="2864" cy="830.9766" fill="#A9DCDF" rx="22" ry="22" style="stroke:#181818;stroke-width:2.0;"/><path d="M2864.2266,821.6729 L2861.9189,831.8164 L2866.5508,831.8164 Z M2861.2383,817.1904 L2867.2314,817.1904 L2873.9219,841.9766 L2869.0244,841.9766 L2867.4971,835.8506 L2860.9395,835.8506 L2859.4453,841.9766 L2854.5479,841.9766 Z " fill="#000000"/><text fill="#000000" font-family="sans-serif" font-size="28" font-style="italic" lengthAdjust="spacing" textLength="188" x="2892" y="841.5586">FeeCalculator</text></g><!--class StarknetFeeCalculator--><g id="elem_StarknetFeeCalculator"><rect codeLine="134" fill="#F1F1F1" height="64" id="StarknetFeeCalculator" rx="5" ry="5" style="stroke:#181818;stroke-width:1.0;" width="366" x="2351" y="982.9766"/><ellipse cx="2381" cy="1014.9766" fill="#ADD1B2" rx="22" ry="22" style="stroke:#181818;stroke-width:2.0;"/><path d="M2386.9463,1026.2627 Q2385.7842,1026.8604 2384.5059,1027.1592 Q2383.2275,1027.458 2381.8164,1027.458 Q2376.8027,1027.458 2374.1631,1024.1543 Q2371.5234,1020.8506 2371.5234,1014.6084 Q2371.5234,1008.3496 2374.1631,1005.0459 Q2376.8027,1001.7422 2381.8164,1001.7422 Q2383.2275,1001.7422 2384.5225,1002.041 Q2385.8174,1002.3398 2386.9463,1002.9375 L2386.9463,1008.3828 Q2385.6846,1007.2207 2384.4976,1006.6812 Q2383.3105,1006.1416 2382.0488,1006.1416 Q2379.3594,1006.1416 2377.9897,1008.2749 Q2376.6201,1010.4082 2376.6201,1014.6084 Q2376.6201,1018.792 2377.9897,1020.9253 Q2379.3594,1023.0586 2382.0488,1023.0586 Q2383.3105,1023.0586 2384.4976,1022.519 Q2385.6846,1021.9795 2386.9463,1020.8174 Z " fill="#000000"/><text fill="#000000" font-family="sans-serif" font-size="28" lengthAdjust="spacing" textLength="302" x="2409" y="1025.5586">StarknetFeeCalculator</text></g><!--class ZksyncFeeCalculator--><g id="elem_ZksyncFeeCalculator"><rect codeLine="137" fill="#F1F1F1" height="64" id="ZksyncFeeCalculator" rx="5" ry="5" style="stroke:#181818;stroke-width:1.0;" width="344" x="2788" y="982.9766"/><ellipse cx="2818" cy="1014.9766" fill="#ADD1B2" rx="22" ry="22" style="stroke:#181818;stroke-width:2.0;"/><path d="M2823.9463,1026.2627 Q2822.7842,1026.8604 2821.5059,1027.1592 Q2820.2275,1027.458 2818.8164,1027.458 Q2813.8027,1027.458 2811.1631,1024.1543 Q2808.5234,1020.8506 2808.5234,1014.6084 Q2808.5234,1008.3496 2811.1631,1005.0459 Q2813.8027,1001.7422 2818.8164,1001.7422 Q2820.2275,1001.7422 2821.5225,1002.041 Q2822.8174,1002.3398 2823.9463,1002.9375 L2823.9463,1008.3828 Q2822.6846,1007.2207 2821.4976,1006.6812 Q2820.3105,1006.1416 2819.0488,1006.1416 Q2816.3594,1006.1416 2814.9897,1008.2749 Q2813.6201,1010.4082 2813.6201,1014.6084 Q2813.6201,1018.792 2814.9897,1020.9253 Q2816.3594,1023.0586 2819.0488,1023.0586 Q2820.3105,1023.0586 2821.4976,1022.519 Q2822.6846,1021.9795 2823.9463,1020.8174 Z " fill="#000000"/><text fill="#000000" font-family="sans-serif" font-size="28" lengthAdjust="spacing" textLength="280" x="2846" y="1025.5586">ZksyncFeeCalculator</text></g><!--class OrderIndexer--><g id="elem_OrderIndexer"><rect codeLine="144" fill="#F1F1F1" height="64" id="OrderIndexer" rx="5" ry="5" style="stroke:#181818;stroke-width:1.0;" width="250" x="1941" y="584.9766"/><ellipse cx="1971" cy="616.9766" fill="#A9DCDF" rx="22" ry="22" style="stroke:#181818;stroke-width:2.0;"/><path d="M1971.2266,607.6729 L1968.9189,617.8164 L1973.5508,617.8164 Z M1968.2383,603.1904 L1974.2314,603.1904 L1980.9219,627.9766 L1976.0244,627.9766 L1974.4971,621.8506 L1967.9395,621.8506 L1966.4453,627.9766 L1961.5479,627.9766 Z " fill="#000000"/><text fill="#000000" font-family="sans-serif" font-size="28" font-style="italic" lengthAdjust="spacing" textLength="186" x="1999" y="627.5586">OrderIndexer</text></g><!--class StarknetOrderIndexer--><g id="elem_StarknetOrderIndexer"><rect codeLine="153" fill="#F1F1F1" height="64" id="StarknetOrderIndexer" rx="5" ry="5" style="stroke:#181818;stroke-width:1.0;" width="364" x="1460" y="798.9766"/><ellipse cx="1490" cy="830.9766" fill="#ADD1B2" rx="22" ry="22" style="stroke:#181818;stroke-width:2.0;"/><path d="M1495.9463,842.2627 Q1494.7842,842.8604 1493.5059,843.1592 Q1492.2275,843.458 1490.8164,843.458 Q1485.8027,843.458 1483.1631,840.1543 Q1480.5234,836.8506 1480.5234,830.6084 Q1480.5234,824.3496 1483.1631,821.0459 Q1485.8027,817.7422 1490.8164,817.7422 Q1492.2275,817.7422 1493.5225,818.041 Q1494.8174,818.3398 1495.9463,818.9375 L1495.9463,824.3828 Q1494.6846,823.2207 1493.4976,822.6812 Q1492.3105,822.1416 1491.0488,822.1416 Q1488.3594,822.1416 1486.9897,824.2749 Q1485.6201,826.4082 1485.6201,830.6084 Q1485.6201,834.792 1486.9897,836.9253 Q1488.3594,839.0586 1491.0488,839.0586 Q1492.3105,839.0586 1493.4976,838.519 Q1494.6846,837.9795 1495.9463,836.8174 Z " fill="#000000"/><text fill="#000000" font-family="sans-serif" font-size="28" lengthAdjust="spacing" textLength="300" x="1518" y="841.5586">StarknetOrderIndexer</text></g><!--class ZksyncOrderIndexer--><g id="elem_ZksyncOrderIndexer"><rect codeLine="156" fill="#F1F1F1" height="64" id="ZksyncOrderIndexer" rx="5" ry="5" style="stroke:#181818;stroke-width:1.0;" width="342" x="1895" y="798.9766"/><ellipse cx="1925" cy="830.9766" fill="#ADD1B2" rx="22" ry="22" style="stroke:#181818;stroke-width:2.0;"/><path d="M1930.9463,842.2627 Q1929.7842,842.8604 1928.5059,843.1592 Q1927.2275,843.458 1925.8164,843.458 Q1920.8027,843.458 1918.1631,840.1543 Q1915.5234,836.8506 1915.5234,830.6084 Q1915.5234,824.3496 1918.1631,821.0459 Q1920.8027,817.7422 1925.8164,817.7422 Q1927.2275,817.7422 1928.5225,818.041 Q1929.8174,818.3398 1930.9463,818.9375 L1930.9463,824.3828 Q1929.6846,823.2207 1928.4976,822.6812 Q1927.3105,822.1416 1926.0488,822.1416 Q1923.3594,822.1416 1921.9897,824.2749 Q1920.6201,826.4082 1920.6201,830.6084 Q1920.6201,834.792 1921.9897,836.9253 Q1923.3594,839.0586 1926.0488,839.0586 Q1927.3105,839.0586 1928.4976,838.519 Q1929.6846,837.9795 1930.9463,836.8174 Z " fill="#000000"/><text fill="#000000" font-family="sans-serif" font-size="28" lengthAdjust="spacing" textLength="278" x="1953" y="841.5586">ZksyncOrderIndexer</text></g><!--class PaymentClaimer--><g id="elem_PaymentClaimer"><rect codeLine="161" fill="#F1F1F1" height="64" id="PaymentClaimer" rx="5" ry="5" style="stroke:#181818;stroke-width:1.0;" width="286" x="3583" y="798.9766"/><ellipse cx="3613" cy="830.9766" fill="#A9DCDF" rx="22" ry="22" style="stroke:#181818;stroke-width:2.0;"/><path d="M3613.2266,821.6729 L3610.9189,831.8164 L3615.5508,831.8164 Z M3610.2383,817.1904 L3616.2314,817.1904 L3622.9219,841.9766 L3618.0244,841.9766 L3616.4971,835.8506 L3609.9395,835.8506 L3608.4453,841.9766 L3603.5479,841.9766 Z " fill="#000000"/><text fill="#000000" font-family="sans-serif" font-size="28" font-style="italic" lengthAdjust="spacing" textLength="222" x="3641" y="841.5586">PaymentClaimer</text></g><!--class EthereumPaymentClaimer--><g id="elem_EthereumPaymentClaimer"><rect codeLine="169" fill="#F1F1F1" height="64" id="EthereumPaymentClaimer" rx="5" ry="5" style="stroke:#181818;stroke-width:1.0;" width="418" x="3245" y="982.9766"/><ellipse cx="3275" cy="1014.9766" fill="#ADD1B2" rx="22" ry="22" style="stroke:#181818;stroke-width:2.0;"/><path d="M3280.9463,1026.2627 Q3279.7842,1026.8604 3278.5059,1027.1592 Q3277.2275,1027.458 3275.8164,1027.458 Q3270.8027,1027.458 3268.1631,1024.1543 Q3265.5234,1020.8506 3265.5234,1014.6084 Q3265.5234,1008.3496 3268.1631,1005.0459 Q3270.8027,1001.7422 3275.8164,1001.7422 Q3277.2275,1001.7422 3278.5225,1002.041 Q3279.8174,1002.3398 3280.9463,1002.9375 L3280.9463,1008.3828 Q3279.6846,1007.2207 3278.4976,1006.6812 Q3277.3105,1006.1416 3276.0488,1006.1416 Q3273.3594,1006.1416 3271.9897,1008.2749 Q3270.6201,1010.4082 3270.6201,1014.6084 Q3270.6201,1018.792 3271.9897,1020.9253 Q3273.3594,1023.0586 3276.0488,1023.0586 Q3277.3105,1023.0586 3278.4976,1022.519 Q3279.6846,1021.9795 3280.9463,1020.8174 Z " fill="#000000"/><text fill="#000000" font-family="sans-serif" font-size="28" lengthAdjust="spacing" textLength="354" x="3303" y="1025.5586">EthereumPaymentClaimer</text></g><!--class Ethereum2ZksyncPaymentClaimer--><g id="elem_Ethereum2ZksyncPaymentClaimer"><rect codeLine="173" fill="#F1F1F1" height="64" id="Ethereum2ZksyncPaymentClaimer" rx="5" ry="5" style="stroke:#181818;stroke-width:1.0;" width="528" x="3734" y="982.9766"/><ellipse cx="3764" cy="1014.9766" fill="#ADD1B2" rx="22" ry="22" style="stroke:#181818;stroke-width:2.0;"/><path d="M3769.9463,1026.2627 Q3768.7842,1026.8604 3767.5059,1027.1592 Q3766.2275,1027.458 3764.8164,1027.458 Q3759.8027,1027.458 3757.1631,1024.1543 Q3754.5234,1020.8506 3754.5234,1014.6084 Q3754.5234,1008.3496 3757.1631,1005.0459 Q3759.8027,1001.7422 3764.8164,1001.7422 Q3766.2275,1001.7422 3767.5225,1002.041 Q3768.8174,1002.3398 3769.9463,1002.9375 L3769.9463,1008.3828 Q3768.6846,1007.2207 3767.4976,1006.6812 Q3766.3105,1006.1416 3765.0488,1006.1416 Q3762.3594,1006.1416 3760.9897,1008.2749 Q3759.6201,1010.4082 3759.6201,1014.6084 Q3759.6201,1018.792 3760.9897,1020.9253 Q3762.3594,1023.0586 3765.0488,1023.0586 Q3766.3105,1023.0586 3767.4976,1022.519 Q3768.6846,1021.9795 3769.9463,1020.8174 Z " fill="#000000"/><text fill="#000000" font-family="sans-serif" font-size="28" lengthAdjust="spacing" textLength="464" x="3792" y="1025.5586">Ethereum2ZksyncPaymentClaimer</text></g><!--class HerodotusPaymentClaimer--><g id="elem_HerodotusPaymentClaimer"><rect codeLine="177" fill="#F1F1F1" height="64" id="HerodotusPaymentClaimer" rx="5" ry="5" style="stroke:#181818;stroke-width:1.0;" width="430" x="4333" y="982.9766"/><ellipse cx="4363" cy="1014.9766" fill="#ADD1B2" rx="22" ry="22" style="stroke:#181818;stroke-width:2.0;"/><path d="M4368.9463,1026.2627 Q4367.7842,1026.8604 4366.5059,1027.1592 Q4365.2275,1027.458 4363.8164,1027.458 Q4358.8027,1027.458 4356.1631,1024.1543 Q4353.5234,1020.8506 4353.5234,1014.6084 Q4353.5234,1008.3496 4356.1631,1005.0459 Q4358.8027,1001.7422 4363.8164,1001.7422 Q4365.2275,1001.7422 4366.5225,1002.041 Q4367.8174,1002.3398 4368.9463,1002.9375 L4368.9463,1008.3828 Q4367.6846,1007.2207 4366.4976,1006.6812 Q4365.3105,1006.1416 4364.0488,1006.1416 Q4361.3594,1006.1416 4359.9897,1008.2749 Q4358.6201,1010.4082 4358.6201,1014.6084 Q4358.6201,1018.792 4359.9897,1020.9253 Q4361.3594,1023.0586 4364.0488,1023.0586 Q4365.3105,1023.0586 4366.4976,1022.519 Q4367.6846,1021.9795 4368.9463,1020.8174 Z " fill="#000000"/><text fill="#000000" font-family="sans-serif" font-size="28" lengthAdjust="spacing" textLength="366" x="4391" y="1025.5586">HerodotusPaymentClaimer</text></g><!--class OrdersProcessor--><g id="elem_OrdersProcessor"><rect codeLine="182" fill="#F1F1F1" height="64" id="OrdersProcessor" rx="5" ry="5" style="stroke:#181818;stroke-width:1.0;" width="292" x="2366" y="340.9766"/><ellipse cx="2396" cy="372.9766" fill="#ADD1B2" rx="22" ry="22" style="stroke:#181818;stroke-width:2.0;"/><path d="M2401.9463,384.2627 Q2400.7842,384.8604 2399.5059,385.1592 Q2398.2275,385.458 2396.8164,385.458 Q2391.8027,385.458 2389.1631,382.1543 Q2386.5234,378.8506 2386.5234,372.6084 Q2386.5234,366.3496 2389.1631,363.0459 Q2391.8027,359.7422 2396.8164,359.7422 Q2398.2275,359.7422 2399.5225,360.041 Q2400.8174,360.3398 2401.9463,360.9375 L2401.9463,366.3828 Q2400.6846,365.2207 2399.4976,364.6812 Q2398.3105,364.1416 2397.0488,364.1416 Q2394.3594,364.1416 2392.9897,366.2749 Q2391.6201,368.4082 2391.6201,372.6084 Q2391.6201,376.792 2392.9897,378.9253 Q2394.3594,381.0586 2397.0488,381.0586 Q2398.3105,381.0586 2399.4976,380.519 Q2400.6846,379.9795 2401.9463,378.8174 Z " fill="#000000"/><text fill="#000000" font-family="sans-serif" font-size="28" lengthAdjust="spacing" textLength="228" x="2424" y="383.5586">OrdersProcessor</text></g><!--class AcceptedBlocksOrderProcessor--><g id="elem_AcceptedBlocksOrderProcessor"><rect codeLine="190" fill="#F1F1F1" height="64" id="AcceptedBlocksOrderProcessor" rx="5" ry="5" style="stroke:#181818;stroke-width:1.0;" width="490" x="2729" y="340.9766"/><ellipse cx="2759" cy="372.9766" fill="#ADD1B2" rx="22" ry="22" style="stroke:#181818;stroke-width:2.0;"/><path d="M2764.9463,384.2627 Q2763.7842,384.8604 2762.5059,385.1592 Q2761.2275,385.458 2759.8164,385.458 Q2754.8027,385.458 2752.1631,382.1543 Q2749.5234,378.8506 2749.5234,372.6084 Q2749.5234,366.3496 2752.1631,363.0459 Q2754.8027,359.7422 2759.8164,359.7422 Q2761.2275,359.7422 2762.5225,360.041 Q2763.8174,360.3398 2764.9463,360.9375 L2764.9463,366.3828 Q2763.6846,365.2207 2762.4976,364.6812 Q2761.3105,364.1416 2760.0488,364.1416 Q2757.3594,364.1416 2755.9897,366.2749 Q2754.6201,368.4082 2754.6201,372.6084 Q2754.6201,376.792 2755.9897,378.9253 Q2757.3594,381.0586 2760.0488,381.0586 Q2761.3105,381.0586 2762.4976,380.519 Q2763.6846,379.9795 2764.9463,378.8174 Z " fill="#000000"/><text fill="#000000" font-family="sans-serif" font-size="28" lengthAdjust="spacing" textLength="426" x="2787" y="383.5586">AcceptedBlocksOrderProcessor</text></g><!--class FailedOrdersProcessor--><g id="elem_FailedOrdersProcessor"><rect codeLine="200" fill="#F1F1F1" height="64" id="FailedOrdersProcessor" rx="5" ry="5" style="stroke:#181818;stroke-width:1.0;" width="374" x="3289" y="340.9766"/><ellipse cx="3319" cy="372.9766" fill="#ADD1B2" rx="22" ry="22" style="stroke:#181818;stroke-width:2.0;"/><path d="M3324.9463,384.2627 Q3323.7842,384.8604 3322.5059,385.1592 Q3321.2275,385.458 3319.8164,385.458 Q3314.8027,385.458 3312.1631,382.1543 Q3309.5234,378.8506 3309.5234,372.6084 Q3309.5234,366.3496 3312.1631,363.0459 Q3314.8027,359.7422 3319.8164,359.7422 Q3321.2275,359.7422 3322.5225,360.041 Q3323.8174,360.3398 3324.9463,360.9375 L3324.9463,366.3828 Q3323.6846,365.2207 3322.4976,364.6812 Q3321.3105,364.1416 3320.0488,364.1416 Q3317.3594,364.1416 3315.9897,366.2749 Q3314.6201,368.4082 3314.6201,372.6084 Q3314.6201,376.792 3315.9897,378.9253 Q3317.3594,381.0586 3320.0488,381.0586 Q3321.3105,381.0586 3322.4976,380.519 Q3323.6846,379.9795 3324.9463,378.8174 Z " fill="#000000"/><text fill="#000000" font-family="sans-serif" font-size="28" lengthAdjust="spacing" textLength="310" x="3347" y="383.5586">FailedOrdersProcessor</text></g><!--class EthereumSender--><g id="elem_EthereumSender"><rect codeLine="211" fill="#F1F1F1" height="64" id="EthereumSender" rx="5" ry="5" style="stroke:#181818;stroke-width:1.0;" width="292" x="4874" y="798.9766"/><ellipse cx="4904" cy="830.9766" fill="#ADD1B2" rx="22" ry="22" style="stroke:#181818;stroke-width:2.0;"/><path d="M4909.9463,842.2627 Q4908.7842,842.8604 4907.5059,843.1592 Q4906.2275,843.458 4904.8164,843.458 Q4899.8027,843.458 4897.1631,840.1543 Q4894.5234,836.8506 4894.5234,830.6084 Q4894.5234,824.3496 4897.1631,821.0459 Q4899.8027,817.7422 4904.8164,817.7422 Q4906.2275,817.7422 4907.5225,818.041 Q4908.8174,818.3398 4909.9463,818.9375 L4909.9463,824.3828 Q4908.6846,823.2207 4907.4976,822.6812 Q4906.3105,822.1416 4905.0488,822.1416 Q4902.3594,822.1416 4900.9897,824.2749 Q4899.6201,826.4082 4899.6201,830.6084 Q4899.6201,834.792 4900.9897,836.9253 Q4902.3594,839.0586 4905.0488,839.0586 Q4906.3105,839.0586 4907.4976,838.519 Q4908.6846,837.9795 4909.9463,836.8174 Z " fill="#000000"/><text fill="#000000" font-family="sans-serif" font-size="28" lengthAdjust="spacing" textLength="228" x="4932" y="841.5586">EthereumSender</text></g><!--class BlockDao--><g id="elem_BlockDao"><rect codeLine="221" fill="#F1F1F1" height="64" id="BlockDao" rx="5" ry="5" style="stroke:#181818;stroke-width:1.0;" width="190" x="6193" y="584.9766"/><ellipse cx="6223" cy="616.9766" fill="#ADD1B2" rx="22" ry="22" style="stroke:#181818;stroke-width:2.0;"/><path d="M6228.9463,628.2627 Q6227.7842,628.8604 6226.5059,629.1592 Q6225.2275,629.458 6223.8164,629.458 Q6218.8027,629.458 6216.1631,626.1543 Q6213.5234,622.8506 6213.5234,616.6084 Q6213.5234,610.3496 6216.1631,607.0459 Q6218.8027,603.7422 6223.8164,603.7422 Q6225.2275,603.7422 6226.5225,604.041 Q6227.8174,604.3398 6228.9463,604.9375 L6228.9463,610.3828 Q6227.6846,609.2207 6226.4976,608.6812 Q6225.3105,608.1416 6224.0488,608.1416 Q6221.3594,608.1416 6219.9897,610.2749 Q6218.6201,612.4082 6218.6201,616.6084 Q6218.6201,620.792 6219.9897,622.9253 Q6221.3594,625.0586 6224.0488,625.0586 Q6225.3105,625.0586 6226.4976,624.519 Q6227.6846,623.9795 6228.9463,622.8174 Z " fill="#000000"/><text fill="#000000" font-family="sans-serif" font-size="28" lengthAdjust="spacing" textLength="126" x="6251" y="627.5586">BlockDao</text></g><!--class ErrorDao--><g id="elem_ErrorDao"><rect codeLine="226" fill="#F1F1F1" height="64" id="ErrorDao" rx="5" ry="5" style="stroke:#181818;stroke-width:1.0;" width="188" x="6454" y="584.9766"/><ellipse cx="6484" cy="616.9766" fill="#ADD1B2" rx="22" ry="22" style="stroke:#181818;stroke-width:2.0;"/><path d="M6489.9463,628.2627 Q6488.7842,628.8604 6487.5059,629.1592 Q6486.2275,629.458 6484.8164,629.458 Q6479.8027,629.458 6477.1631,626.1543 Q6474.5234,622.8506 6474.5234,616.6084 Q6474.5234,610.3496 6477.1631,607.0459 Q6479.8027,603.7422 6484.8164,603.7422 Q6486.2275,603.7422 6487.5225,604.041 Q6488.8174,604.3398 6489.9463,604.9375 L6489.9463,610.3828 Q6488.6846,609.2207 6487.4976,608.6812 Q6486.3105,608.1416 6485.0488,608.1416 Q6482.3594,608.1416 6480.9897,610.2749 Q6479.6201,612.4082 6479.6201,616.6084 Q6479.6201,620.792 6480.9897,622.9253 Q6482.3594,625.0586 6485.0488,625.0586 Q6486.3105,625.0586 6487.4976,624.519 Q6488.6846,623.9795 6489.9463,622.8174 Z " fill="#000000"/><text fill="#000000" font-family="sans-serif" font-size="28" lengthAdjust="spacing" textLength="124" x="6512" y="627.5586">ErrorDao</text></g><!--class OrderDao--><g id="elem_OrderDao"><rect codeLine="230" fill="#F1F1F1" height="64" id="OrderDao" rx="5" ry="5" style="stroke:#181818;stroke-width:1.0;" width="198" x="6713" y="584.9766"/><ellipse cx="6743" cy="616.9766" fill="#ADD1B2" rx="22" ry="22" style="stroke:#181818;stroke-width:2.0;"/><path d="M6748.9463,628.2627 Q6747.7842,628.8604 6746.5059,629.1592 Q6745.2275,629.458 6743.8164,629.458 Q6738.8027,629.458 6736.1631,626.1543 Q6733.5234,622.8506 6733.5234,616.6084 Q6733.5234,610.3496 6736.1631,607.0459 Q6738.8027,603.7422 6743.8164,603.7422 Q6745.2275,603.7422 6746.5225,604.041 Q6747.8174,604.3398 6748.9463,604.9375 L6748.9463,610.3828 Q6747.6846,609.2207 6746.4976,608.6812 Q6745.3105,608.1416 6744.0488,608.1416 Q6741.3594,608.1416 6739.9897,610.2749 Q6738.6201,612.4082 6738.6201,616.6084 Q6738.6201,620.792 6739.9897,622.9253 Q6741.3594,625.0586 6744.0488,625.0586 Q6745.3105,625.0586 6746.4976,624.519 Q6747.6846,623.9795 6748.9463,622.8174 Z " fill="#000000"/><text fill="#000000" font-family="sans-serif" font-size="28" lengthAdjust="spacing" textLength="134" x="6771" y="627.5586">OrderDao</text></g><!--class Block--><g id="elem_Block"><rect codeLine="242" fill="#F1F1F1" height="64" id="Block" rx="5" ry="5" style="stroke:#181818;stroke-width:1.0;" width="136" x="5286" y="584.9766"/><ellipse cx="5316" cy="616.9766" fill="#ADD1B2" rx="22" ry="22" style="stroke:#181818;stroke-width:2.0;"/><path d="M5321.9463,628.2627 Q5320.7842,628.8604 5319.5059,629.1592 Q5318.2275,629.458 5316.8164,629.458 Q5311.8027,629.458 5309.1631,626.1543 Q5306.5234,622.8506 5306.5234,616.6084 Q5306.5234,610.3496 5309.1631,607.0459 Q5311.8027,603.7422 5316.8164,603.7422 Q5318.2275,603.7422 5319.5225,604.041 Q5320.8174,604.3398 5321.9463,604.9375 L5321.9463,610.3828 Q5320.6846,609.2207 5319.4976,608.6812 Q5318.3105,608.1416 5317.0488,608.1416 Q5314.3594,608.1416 5312.9897,610.2749 Q5311.6201,612.4082 5311.6201,616.6084 Q5311.6201,620.792 5312.9897,622.9253 Q5314.3594,625.0586 5317.0488,625.0586 Q5318.3105,625.0586 5319.4976,624.519 Q5320.6846,623.9795 5321.9463,622.8174 Z " fill="#000000"/><text fill="#000000" font-family="sans-serif" font-size="28" lengthAdjust="spacing" textLength="72" x="5344" y="627.5586">Block</text></g><!--class Error--><g id="elem_Error"><rect codeLine="249" fill="#F1F1F1" height="64" id="Error" rx="5" ry="5" style="stroke:#181818;stroke-width:1.0;" width="134" x="5499" y="340.9766"/><ellipse cx="5529" cy="372.9766" fill="#ADD1B2" rx="22" ry="22" style="stroke:#181818;stroke-width:2.0;"/><path d="M5534.9463,384.2627 Q5533.7842,384.8604 5532.5059,385.1592 Q5531.2275,385.458 5529.8164,385.458 Q5524.8027,385.458 5522.1631,382.1543 Q5519.5234,378.8506 5519.5234,372.6084 Q5519.5234,366.3496 5522.1631,363.0459 Q5524.8027,359.7422 5529.8164,359.7422 Q5531.2275,359.7422 5532.5225,360.041 Q5533.8174,360.3398 5534.9463,360.9375 L5534.9463,366.3828 Q5533.6846,365.2207 5532.4976,364.6812 Q5531.3105,364.1416 5530.0488,364.1416 Q5527.3594,364.1416 5525.9897,366.2749 Q5524.6201,368.4082 5524.6201,372.6084 Q5524.6201,376.792 5525.9897,378.9253 Q5527.3594,381.0586 5530.0488,381.0586 Q5531.3105,381.0586 5532.4976,380.519 Q5533.6846,379.9795 5534.9463,378.8174 Z " fill="#000000"/><text fill="#000000" font-family="sans-serif" font-size="28" lengthAdjust="spacing" textLength="70" x="5557" y="383.5586">Error</text></g><!--class Network--><g id="elem_Network"><rect codeLine="258" fill="#F1F1F1" height="64" id="Network" rx="5" ry="5" style="stroke:#181818;stroke-width:1.0;" width="178" x="5277" y="798.9766"/><ellipse cx="5307" cy="830.9766" fill="#EB937F" rx="22" ry="22" style="stroke:#181818;stroke-width:2.0;"/><path d="M5315.2285,842.9766 L5299.7891,842.9766 L5299.7891,818.1904 L5315.2285,818.1904 L5315.2285,822.5068 L5304.6865,822.5068 L5304.6865,827.8525 L5314.2324,827.8525 L5314.2324,832.1689 L5304.6865,832.1689 L5304.6865,838.6602 L5315.2285,838.6602 Z " fill="#000000"/><text fill="#000000" font-family="sans-serif" font-size="28" lengthAdjust="spacing" textLength="114" x="5335" y="841.5586">Network</text></g><!--class Order--><g id="elem_Order"><rect codeLine="263" fill="#F1F1F1" height="64" id="Order" rx="5" ry="5" style="stroke:#181818;stroke-width:1.0;" width="144" x="5566" y="584.9766"/><ellipse cx="5596" cy="616.9766" fill="#ADD1B2" rx="22" ry="22" style="stroke:#181818;stroke-width:2.0;"/><path d="M5601.9463,628.2627 Q5600.7842,628.8604 5599.5059,629.1592 Q5598.2275,629.458 5596.8164,629.458 Q5591.8027,629.458 5589.1631,626.1543 Q5586.5234,622.8506 5586.5234,616.6084 Q5586.5234,610.3496 5589.1631,607.0459 Q5591.8027,603.7422 5596.8164,603.7422 Q5598.2275,603.7422 5599.5225,604.041 Q5600.8174,604.3398 5601.9463,604.9375 L5601.9463,610.3828 Q5600.6846,609.2207 5599.4976,608.6812 Q5598.3105,608.1416 5597.0488,608.1416 Q5594.3594,608.1416 5592.9897,610.2749 Q5591.6201,612.4082 5591.6201,616.6084 Q5591.6201,620.792 5592.9897,622.9253 Q5594.3594,625.0586 5597.0488,625.0586 Q5598.3105,625.0586 5599.4976,624.519 Q5600.6846,623.9795 5601.9463,622.8174 Z " fill="#000000"/><text fill="#000000" font-family="sans-serif" font-size="28" lengthAdjust="spacing" textLength="80" x="5624" y="627.5586">Order</text></g><!--class OrderStatus--><g id="elem_OrderStatus"><rect codeLine="287" fill="#F1F1F1" height="64" id="OrderStatus" rx="5" ry="5" style="stroke:#181818;stroke-width:1.0;" width="228" x="5524" y="798.9766"/><ellipse cx="5554" cy="830.9766" fill="#EB937F" rx="22" ry="22" style="stroke:#181818;stroke-width:2.0;"/><path d="M5562.2285,842.9766 L5546.7891,842.9766 L5546.7891,818.1904 L5562.2285,818.1904 L5562.2285,822.5068 L5551.6865,822.5068 L5551.6865,827.8525 L5561.2324,827.8525 L5561.2324,832.1689 L5551.6865,832.1689 L5551.6865,838.6602 L5562.2285,838.6602 Z " fill="#000000"/><text fill="#000000" font-family="sans-serif" font-size="28" lengthAdjust="spacing" textLength="164" x="5582" y="841.5586">OrderStatus</text></g><!--class SetOrderEvent--><g id="elem_SetOrderEvent"><rect codeLine="298" fill="#F1F1F1" height="64" id="SetOrderEvent" rx="5" ry="5" style="stroke:#181818;stroke-width:1.0;" width="260" x="5822" y="798.9766"/><ellipse cx="5852" cy="830.9766" fill="#ADD1B2" rx="22" ry="22" style="stroke:#181818;stroke-width:2.0;"/><path d="M5857.9463,842.2627 Q5856.7842,842.8604 5855.5059,843.1592 Q5854.2275,843.458 5852.8164,843.458 Q5847.8027,843.458 5845.1631,840.1543 Q5842.5234,836.8506 5842.5234,830.6084 Q5842.5234,824.3496 5845.1631,821.0459 Q5847.8027,817.7422 5852.8164,817.7422 Q5854.2275,817.7422 5855.5225,818.041 Q5856.8174,818.3398 5857.9463,818.9375 L5857.9463,824.3828 Q5856.6846,823.2207 5855.4976,822.6812 Q5854.3105,822.1416 5853.0488,822.1416 Q5850.3594,822.1416 5848.9897,824.2749 Q5847.6201,826.4082 5847.6201,830.6084 Q5847.6201,834.792 5848.9897,836.9253 Q5850.3594,839.0586 5853.0488,839.0586 Q5854.3105,839.0586 5855.4976,838.519 Q5856.6846,837.9795 5857.9463,836.8174 Z " fill="#000000"/><text fill="#000000" font-family="sans-serif" font-size="28" lengthAdjust="spacing" textLength="196" x="5880" y="841.5586">SetOrderEvent</text></g><!--class MM--><g id="elem_MM"><rect codeLine="5" fill="#F1F1F1" height="64" id="MM" rx="5" ry="5" style="stroke:#181818;stroke-width:1.0;" width="112" x="2918" y="88.9766"/><ellipse cx="2948" cy="120.9766" fill="#ADD1B2" rx="22" ry="22" style="stroke:#181818;stroke-width:2.0;"/><path d="M2953.9463,132.2627 Q2952.7842,132.8604 2951.5059,133.1592 Q2950.2275,133.458 2948.8164,133.458 Q2943.8027,133.458 2941.1631,130.1543 Q2938.5234,126.8506 2938.5234,120.6084 Q2938.5234,114.3496 2941.1631,111.0459 Q2943.8027,107.7422 2948.8164,107.7422 Q2950.2275,107.7422 2951.5225,108.041 Q2952.8174,108.3398 2953.9463,108.9375 L2953.9463,114.3828 Q2952.6846,113.2207 2951.4976,112.6812 Q2950.3105,112.1416 2949.0488,112.1416 Q2946.3594,112.1416 2944.9897,114.2749 Q2943.6201,116.4082 2943.6201,120.6084 Q2943.6201,124.792 2944.9897,126.9253 Q2946.3594,129.0586 2949.0488,129.0586 Q2950.3105,129.0586 2951.4976,128.519 Q2952.6846,127.9795 2953.9463,126.8174 Z " fill="#000000"/><text fill="#000000" font-family="sans-serif" font-size="28" lengthAdjust="spacing" textLength="48" x="2976" y="131.5586">MM</text></g><!--reverse link MM to FailedOrdersProcessor--><g id="link_MM_FailedOrdersProcessor"><path codeLine="316" d="M3054.4652,123.8192 C3113.1052,125.8792 3182.16,134.2166 3254,168.9766 C3339.38,210.2766 3415.56,294.9566 3452.48,340.4566 " fill="none" id="MM-backto-FailedOrdersProcessor" style="stroke:#181818;stroke-width:2.0;"/><polygon fill="#181818" points="3030.48,122.9766,3042.1917,131.3929,3054.4652,123.8192,3042.7535,115.4028,3030.48,122.9766" style="stroke:#181818;stroke-width:2.0;"/></g><!--reverse link MM to AcceptedBlocksOrderProcessor--><g id="link_MM_AcceptedBlocksOrderProcessor"><path codeLine="317" d="M2974,177.8766 C2974,225.6766 2974,292.9166 2974,340.4566 " fill="none" id="MM-backto-AcceptedBlocksOrderProcessor" style="stroke:#181818;stroke-width:2.0;"/><polygon fill="#181818" points="2974,153.8766,2966,165.8766,2974,177.8766,2982,165.8766,2974,153.8766" style="stroke:#181818;stroke-width:2.0;"/></g><!--reverse link MM to OrdersProcessor--><g id="link_MM_OrdersProcessor"><path codeLine="318" d="M2893.3425,121.8852 C2834.1425,122.7452 2764.24,130.5966 2694,168.9766 C2618.62,210.1766 2558.42,294.8966 2529.94,340.4166 " fill="none" id="MM-backto-OrdersProcessor" style="stroke:#181818;stroke-width:2.0;"/><polygon fill="#181818" points="2917.34,121.5366,2905.2251,113.7117,2893.3425,121.8852,2905.4575,129.71,2917.34,121.5366" style="stroke:#181818;stroke-width:2.0;"/></g><!--reverse link OrderExecutor to EthereumSender--><g id="link_OrderExecutor_EthereumSender"><path codeLine="323" d="M3363.8589,620.0513 C3695.0589,623.2913 4521.6,638.5566 4794,712.9766 C4860.36,731.1166 4929.78,770.2166 4973.86,797.9966 " fill="none" id="OrderExecutor-backto-EthereumSender" style="stroke:#181818;stroke-width:2.0;"/><polygon fill="#181818" points="3339.86,619.8166,3351.7812,627.9336,3363.8589,620.0513,3351.9377,611.9343,3339.86,619.8166" style="stroke:#181818;stroke-width:2.0;"/></g><!--reverse link OrderExecutor to PaymentClaimer--><g id="link_OrderExecutor_PaymentClaimer"><path codeLine="324" d="M3304.9737,658.9438 C3403.5737,698.7638 3551.46,758.4966 3649.8,798.1966 " fill="none" id="OrderExecutor-backto-PaymentClaimer" style="stroke:#181818;stroke-width:2.0;"/><polygon fill="#181818" points="3282.72,649.9566,3290.8511,661.8681,3304.9737,658.9438,3296.8426,647.0323,3282.72,649.9566" style="stroke:#181818;stroke-width:2.0;"/></g><!--reverse link OrderExecutor to FeeCalculator--><g id="link_OrderExecutor_FeeCalculator"><path codeLine="325" d="M3151.4476,665.5402 C3104.6676,705.4802 3042.1,758.8766 2995.64,798.5366 " fill="none" id="OrderExecutor-backto-FeeCalculator" style="stroke:#181818;stroke-width:2.0;"/><polygon fill="#181818" points="3169.7,649.9566,3155.3793,651.6642,3151.4476,665.5402,3165.7683,663.8325,3169.7,649.9566" style="stroke:#181818;stroke-width:2.0;"/></g><!--reverse link FeeCalculator to StarknetFeeCalculator--><g id="link_FeeCalculator_StarknetFeeCalculator"><path codeLine="329" d="M2853.6006,877.9328 C2775.3406,911.0128 2685.16,949.0966 2606.98,982.1366 " fill="none" id="FeeCalculator-backto-StarknetFeeCalculator" style="stroke:#181818;stroke-width:2.0;"/><polygon fill="none" points="2886.76,863.9166,2848.9285,866.8797,2858.2727,888.9859,2886.76,863.9166" style="stroke:#181818;stroke-width:2.0;"/></g><!--reverse link FeeCalculator to ZksyncFeeCalculator--><g id="link_FeeCalculator_ZksyncFeeCalculator"><path codeLine="330" d="M2960,899.5166 C2960,932.6166 2960,949.1366 2960,982.2966 " fill="none" id="FeeCalculator-backto-ZksyncFeeCalculator" style="stroke:#181818;stroke-width:2.0;"/><polygon fill="none" points="2960,863.5166,2948,899.5166,2972,899.5166,2960,863.5166" style="stroke:#181818;stroke-width:2.0;"/></g><!--reverse link OrderIndexer to StarknetOrderIndexer--><g id="link_OrderIndexer_StarknetOrderIndexer"><path codeLine="337" d="M1963.0231,664.3632 C1922.9431,682.2432 1904.76,690.8766 1860,712.9766 C1804.26,740.4966 1741.72,774.0566 1697.98,797.9766 " fill="none" id="OrderIndexer-backto-StarknetOrderIndexer" style="stroke:#181818;stroke-width:2.0;"/><polygon fill="none" points="1995.9,649.6966,1958.1342,653.4042,1967.912,675.3222,1995.9,649.6966" style="stroke:#181818;stroke-width:2.0;"/></g><!--reverse link OrderIndexer to ZksyncOrderIndexer--><g id="link_OrderIndexer_ZksyncOrderIndexer"><path codeLine="338" d="M2066,685.9566 C2066,725.8966 2066,758.8766 2066,798.5366 " fill="none" id="OrderIndexer-backto-ZksyncOrderIndexer" style="stroke:#181818;stroke-width:2.0;"/><polygon fill="none" points="2066,649.9566,2054,685.9566,2078,685.9566,2066,649.9566" style="stroke:#181818;stroke-width:2.0;"/></g><!--reverse link PaymentClaimer to EthereumPaymentClaimer--><g id="link_PaymentClaimer_EthereumPaymentClaimer"><path codeLine="344" d="M3649.2218,883.7889 C3599.1018,916.9689 3550.04,949.4166 3500.14,982.4366 " fill="none" id="PaymentClaimer-backto-EthereumPaymentClaimer" style="stroke:#181818;stroke-width:2.0;"/><polygon fill="none" points="3679.24,863.9166,3642.5977,873.7829,3655.846,893.795,3679.24,863.9166" style="stroke:#181818;stroke-width:2.0;"/></g><!--reverse link PaymentClaimer to HerodotusPaymentClaimer--><g id="link_PaymentClaimer_HerodotusPaymentClaimer"><path codeLine="345" d="M3902.4668,871.6169 C4053.2668,904.6369 4255.6,948.9566 4406.48,981.9766 " fill="none" id="PaymentClaimer-backto-HerodotusPaymentClaimer" style="stroke:#181818;stroke-width:2.0;"/><polygon fill="none" points="3867.3,863.9166,3899.9,883.3392,3905.0336,859.8946,3867.3,863.9166" style="stroke:#181818;stroke-width:2.0;"/></g><!--reverse link PaymentClaimer to Ethereum2ZksyncPaymentClaimer--><g id="link_PaymentClaimer_Ethereum2ZksyncPaymentClaimer"><path codeLine="346" d="M3802.7782,883.7889 C3852.8982,916.9689 3901.96,949.4166 3951.86,982.4366 " fill="none" id="PaymentClaimer-backto-Ethereum2ZksyncPaymentClaimer" style="stroke:#181818;stroke-width:2.0;"/><polygon fill="none" points="3772.76,863.9166,3796.154,893.795,3809.4023,873.7829,3772.76,863.9166" style="stroke:#181818;stroke-width:2.0;"/></g><!--reverse link OrdersProcessor to OrderIndexer--><g id="link_OrdersProcessor_OrderIndexer"><path codeLine="354" d="M2433.4652,417.2285 C2347.8252,463.3085 2208.68,538.1966 2123.18,584.2166 " fill="none" id="OrdersProcessor-backto-OrderIndexer" style="stroke:#181818;stroke-width:2.0;"/><polygon fill="#181818" points="2454.6,405.8566,2440.242,404.4976,2433.4652,417.2285,2447.8232,418.5875,2454.6,405.8566" style="stroke:#181818;stroke-width:2.0;"/></g><!--reverse link OrdersProcessor to OrderExecutor--><g id="link_OrdersProcessor_OrderExecutor"><path codeLine="355" d="M2601.5864,415.5503 C2635.5664,430.5903 2655.66,438.7366 2694,452.9766 C2831.66,504.1166 2993.72,553.6366 3098.06,584.1966 " fill="none" id="OrdersProcessor-backto-OrderExecutor" style="stroke:#181818;stroke-width:2.0;"/><polygon fill="#181818" points="2579.64,405.8366,2587.3753,418.0089,2601.5864,415.5503,2593.8511,403.378,2579.64,405.8366" style="stroke:#181818;stroke-width:2.0;"/></g><!--reverse link OrderService to OrderDao--><g id="link_OrderService_OrderDao"><path codeLine="368" d="M6708.2843,426.4067 C6733.5243,472.3067 6769.58,537.8566 6795,584.0766 " fill="none" id="OrderService-backto-OrderDao" style="stroke:#181818;stroke-width:2.0;"/><polygon fill="#181818" points="6696.72,405.3766,6695.4921,419.7464,6708.2843,426.4067,6709.5122,412.0369,6696.72,405.3766" style="stroke:#181818;stroke-width:2.0;"/></g><!--reverse link OrderService to ErrorDao--><g id="link_OrderService_ErrorDao"><path codeLine="369" d="M6651.7157,426.4067 C6626.4757,472.3067 6590.42,537.8566 6565,584.0766 " fill="none" id="OrderService-backto-ErrorDao" style="stroke:#181818;stroke-width:2.0;"/><polygon fill="#181818" points="6663.28,405.3766,6650.4878,412.0369,6651.7157,426.4067,6664.5079,419.7464,6663.28,405.3766" style="stroke:#181818;stroke-width:2.0;"/></g><!--reverse link Ethereum to EthereumRpcNode--><g id="link_Ethereum_EthereumRpcNode"><path codeLine="371" d="M250,429.3766 C250,475.2766 250,537.8566 250,584.0766 " fill="none" id="Ethereum-backto-EthereumRpcNode" style="stroke:#181818;stroke-width:2.0;"/><polygon fill="#181818" points="250,405.3766,242,417.3766,250,429.3766,258,417.3766,250,405.3766" style="stroke:#181818;stroke-width:2.0;"/></g><!--reverse link Starknet to StarknetRpcNode--><g id="link_Starknet_StarknetRpcNode"><path codeLine="373" d="M678,429.3766 C678,475.2766 678,537.8566 678,584.0766 " fill="none" id="Starknet-backto-StarknetRpcNode" style="stroke:#181818;stroke-width:2.0;"/><polygon fill="#181818" points="678,405.3766,670,417.3766,678,429.3766,686,417.3766,678,405.3766" style="stroke:#181818;stroke-width:2.0;"/></g><!--reverse link StarknetRpcNode to MMFullNodeClient--><g id="link_StarknetRpcNode_MMFullNodeClient"><path codeLine="374" d="M678,673.9566 C678,713.8966 678,758.8766 678,798.5366 " fill="none" id="StarknetRpcNode-backto-MMFullNodeClient" style="stroke:#181818;stroke-width:2.0;"/><polygon fill="#181818" points="678,649.9566,670,661.9566,678,673.9566,686,661.9566,678,649.9566" style="stroke:#181818;stroke-width:2.0;"/></g><!--reverse link Zksync to EthereumAsyncRpcNode--><g id="link_Zksync_EthereumAsyncRpcNode"><path codeLine="376" d="M1148,429.3766 C1148,475.2766 1148,537.8566 1148,584.0766 " fill="none" id="Zksync-backto-EthereumAsyncRpcNode" style="stroke:#181818;stroke-width:2.0;"/><polygon fill="#181818" points="1148,405.3766,1140,417.3766,1148,429.3766,1156,417.3766,1148,405.3766" style="stroke:#181818;stroke-width:2.0;"/></g><!--reverse link Order to SetOrderEvent--><g id="link_Order_SetOrderEvent"><path codeLine="379" d="M5708.0201,662.5155 C5736.9201,680.6155 5753.58,691.3766 5786,712.9766 C5828.42,741.2566 5876.04,774.7166 5909.36,798.4166 " fill="none" id="Order-backto-SetOrderEvent" style="stroke:#181818;stroke-width:2.0;"/><polygon fill="#181818" points="5687.68,649.7766,5693.6037,662.9261,5708.0201,662.5155,5702.0964,649.366,5687.68,649.7766" style="stroke:#181818;stroke-width:2.0;"/></g><!--reverse link Order to OrderStatus--><g id="link_Order_OrderStatus"><path codeLine="380" d="M5638,673.9566 C5638,713.8966 5638,758.8766 5638,798.5366 " fill="none" id="Order-backto-OrderStatus" style="stroke:#181818;stroke-width:2.0;"/><polygon fill="#181818" points="5638,649.9566,5630,661.9566,5638,673.9566,5646,661.9566,5638,649.9566" style="stroke:#181818;stroke-width:2.0;"/></g><!--reverse link Order to Network--><g id="link_Order_Network"><path codeLine="381" d="M5566.5602,662.5349 C5530.9402,684.4549 5507.2,699.6566 5490,712.9766 C5455.5,739.6966 5419.46,774.2966 5395.16,798.7166 " fill="none" id="Order-backto-Network" style="stroke:#181818;stroke-width:2.0;"/><polygon fill="#181818" points="5587,649.9566,5572.5873,649.4325,5566.5602,662.5349,5580.9729,663.059,5587,649.9566" style="stroke:#181818;stroke-width:2.0;"/></g><!--reverse link Error to Order--><g id="link_Error_Order"><path codeLine="383" d="M5582.0209,428.363 C5595.8009,474.263 5614.86,537.8566 5628.72,584.0766 " fill="none" id="Error-backto-Order" style="stroke:#181818;stroke-width:2.0;"/><polygon fill="#181818" points="5575.12,405.3766,5570.9083,419.1701,5582.0209,428.363,5586.2326,414.5695,5575.12,405.3766" style="stroke:#181818;stroke-width:2.0;"/></g><!--reverse link Error to Network--><g id="link_Error_Network"><path codeLine="384" d="M5546.5309,427.9344 C5539.8109,446.2944 5539.4,447.6566 5532,468.9766 C5496.94,569.8766 5503.42,601.2766 5456,696.9766 C5437.64,734.0166 5410.18,772.6566 5390.4,798.4766 " fill="none" id="Error-backto-Network" style="stroke:#181818;stroke-width:2.0;"/><polygon fill="#181818" points="5554.78,405.3966,5543.1428,413.9157,5546.5309,427.9344,5558.168,419.4152,5554.78,405.3966" style="stroke:#181818;stroke-width:2.0;"/></g><!--reverse link Block to Network--><g id="link_Block_Network"><path codeLine="386" d="M5357.1478,673.9176 C5359.4278,713.8576 5362,758.8766 5364.26,798.5366 " fill="none" id="Block-backto-Network" style="stroke:#181818;stroke-width:2.0;"/><polygon fill="#181818" points="5355.78,649.9566,5348.4769,662.393,5357.1478,673.9176,5364.4509,661.4811,5355.78,649.9566" style="stroke:#181818;stroke-width:2.0;"/></g><!--SRC=[jHhRRjisz7dw2g8laLFdOIqs34PH84kShLYS1d6sxe90e2NQrYA9WYWbphhy-mwl8YLAThks3uv4dXlFEJmtjKxhZA350fsdU5FX79rbcB5WcoO4vIHVaOe5GSpNED370A6Ng6gAS18y1q69utky8OYHwY6D2HFxUf7KMrAH9XUB24aQStSHeIX2EKuBu5LlQSBWNMsyH7M52xOcLPYGahAqZj9aYX9MHpX9gYd2EMsAUcB0WK6QHoL-oabHZ-9CqGFE6ZA06lrppvwAEAHLGYg9JrYT5hXEQI7e4COwfAPeWrcKfNbQoySIKCjc5IMunj7ggIPoisMv8I0RYnf6aaXmilXL94xBb8lIurQLSLJGX4ncQ4Lf5hHQnCqkpL9SFVbKoRbbk8PpHAkCnlUXHISjQWTkXJDSn6G8P0kdMpT5ma8fazZLuXY5LWIuHQCM56hn7QrBPRzXkwIKJGwZ-3NjxPE1wxYWNCEFhsVe0rcz1kAIIml49SYD2d4iP5aJ4bhlGyI5F5Lgcz2n7YbeizdsZIXF0aoy9cMaIA8AFzeIXIpT5E30zSudooC6CwrfvPm1V9kaPHtMkmXasNRndWDFiBWfuok0C343IBysZpYE-GbQ4zC2-CMr8gT8Ie8_auecj6wO8WNwq2kWCVf0Gd4xfgZr1PPHhWfMLpqCLcFu4zQOtGFe0519iwmFgJHhYVQUSrpAE6gaK-vgnOUP19oelq5hzMuGeLMwIOke8FKZhUur0leNNT62M7Xf4TEyp8ZcmqA0pL9M_oKGxYpGDKup7Qu6m7068YTF4Td15XiJnpWNToqbFZS2f16M5fknuxRmEi1KNOmfKWusYBfkidMQmNaEuyJT0vX4nh9TTjAsKwGyIFdDE36T8ZzHTE6g1ygjZNiWU5BHiZmKMFf3HtWm1bpv7Am8HO2u4nry27GTNzh7pSj7Bae_id3WIbar25oywXvypgb1bkxYQ0t2tLuJYSW3f0iMhYkQopGQ5Gsla6ReCgr9XRE_NfGG9S6oBwReXSotB-xWoa4uLHTlgYYF_QlfrwJEusDQD3AxrVIU3EOHQUIXGq-xSkfui2IrCCQS8zuDb6TjO73lozSeQdYIWZ3t06TrabUCiso6pk1t2lRVcSpdquV9nygnHIuMEZ450gZ3FCCHgoU8_K0jOYGZSKr1ON3uZEB4HrzaLrkuFNc-pQqx6tH_JjNEty-f410pWGNb4Iy-zsPOVTm-ayNY0eXn-cU2bE9Yih6-dhBoSYxdd_RI_glvnTpqAnJIhN0PtHmYcbFU2o65SETGKzwrIlx6BOvEkRv6AoIh8lf6K71iG7OaRi0zcMC6gHgrPSYU83Z9HiLc_YgFfze_iygTsGBITRQ80DOwNA48xc3SW49fkmnAZxXIp89LSP4SbrjQjQmMfxz7yzkVezkRqwlbnVmc-Z1_5xItLXo0o6WpQGMILOQTV2P-1tL5r2h2AoOKYYu8EJExbl9Dj80y3O4x4z6Ya-HiRt6h_JLFhGSYk9tC7goFMl1dVpmRGFN63z_H7K1vaVTgoFHH1nrtfDKQbhvZqnISSqVwnXI8x-JceHxlKwr9dVQLR- -wfsps42Z8uqYTBJ86VZ0LUpSCUaESXuxNiXuzU0phXUfekdFn9PZHzxNSFRCtROtxL2FIf4EsKnKwvfavNTN4Hz3aqIz9DCue8_-FehSF7jIO9v9w2RoIjljiEgP_zbBesr_6MMzkOTTwSzzTK_UriwhJLkicJbI7QzCN_pIEIGcjq8_y7Z8XnfUIGY_BT9vWkaUk_aRqDrtvXBuGVSudwgmdrq3O-XpPEaQMoPvvfxnBiVV9mTIC3PsGxjQ-Wp3Fzc0QSWM3c4UAcA0tRtWXjSACl7qhH9Ao2cSunzGCNNebdffPpD2L6LxevF8IDMN24vE3OB-eZg97mvt-p7dJR0kX9Z-YcGx5xqm2JTHVp_J8W_yPaoCbi3kliSy-C4TIBXHNl5bDiSusjqybKIddRdpgD0hl7prvW0S6K7jFPOsZb4b7TUTuMGwbTyQwFcLieRYhjovljMpxZ6F39CArnra6g3ldDMlUGziOCxJ0VExZ3lFi8KvFfXdYMeAwZ6Zf27GnchWIRtbxUlFBrVnMlFpvo_AFgpEFuvgpVBhqlKybjh1wjfq0K8wrUKMRxox9-QpEm-950rjJflxqKSxfPf0NTp_oBn216xy60MJLFhJRzZjggEYVBBVXfJ-PpcXjxmnOpPQryc-RyQ6xwTnaqBrGTEW4Hht76mjdWpLv3jrrw0pCFt8JfF4p4YLpfvuDnUyCEVMiE_DJtcSPK3dLzVpg_DtLJ_BvvltPVBdKhxfdlD4B5xzUNhoxl9oVQ-ZVBCpVrFBP-yNrvVnMlPtVlB- -5i-MKpjo_W_dtkzf1xb_oqvFkDIhEsLirzLtINiQrxEGQXQaQIOTstXHr6UsWn1AN445tRpwxlj8u2QqMMMmyEsh7yACFgfelaqtM_sjIaelml8HkY6Pc6yoU5uiWiK27PyazB4uyLTJDi1OZMZ3TKa09rN0SwPwSWBFxYJb-EJ4gVQ3_hPRF7a0tEBR0-0qtLmoM43Mof7RbTjC0tVhpR-mvstvVO2UbX-u-oS6nnRXuCWtB3Ws5FaHLAkf5QexJxy-zQuZlhtZ0UktjPRiFPvTqNi0hUJAN4ZRgzCx2UR-3iyBEj23ZPBrzdt1qK1VwVZ3693VCOx6kqq_zM5OdrCT3JMYnxQ2XF9D2nfqMoZZEevF-03cfjSy6cqXUnGF13VqzyFhRWL4yJU67g9x0FND4H5Cz7AjMLG3ruFr0HYZ1iwtR8FBfUxjwCOd2Cp_3B9fgRbs49XlThRVwTtkDmqEq_q44GJgou9DtfwTy_ClH24lfPISd2JLhjk5OhkgitSWAtG3QBqR4DaYM4l_0G00]--></g></svg>