<?xml version="1.0" encoding="us-ascii" standalone="no"?><svg xmlns="http://www.w3.org/2000/svg" xmlns:xlink="http://www.w3.org/1999/xlink" contentStyleType="text/css" height="840px" preserveAspectRatio="none" style="width:1398px;height:840px;background:#FFFFFF;" version="1.1" viewBox="0 0 1398 840" width="1398px" zoomAndPan="magnify"><defs/><g><rect fill="#EBC7FF" height="803.8086" style="stroke:#181818;stroke-width:1.0;" width="132" x="163" y="12"/><text fill="#000000" font-family="sans-serif" font-size="26" font-weight="bold" lengthAdjust="spacing" textLength="112" x="169" y="37.1367">Starknet</text><rect fill="#99E6FF" height="803.8086" style="stroke:#181818;stroke-width:1.0;" width="262" x="450" y="12"/><text fill="#000000" font-family="sans-serif" font-size="26" font-weight="bold" lengthAdjust="spacing" textLength="132" x="511" y="37.1367">Ethereum</text><rect fill="#DDDDDD" height="803.8086" style="stroke:#181818;stroke-width:1.0;" width="582" x="804" y="12"/><text fill="#000000" font-family="sans-serif" font-size="26" font-weight="bold" lengthAdjust="spacing" textLength="186" x="1002" y="37.1367">Market Maker</text><line style="stroke:#181818;stroke-width:1.0;stroke-dasharray:5.0,5.0;" x1="46" x2="46" y1="175.5977" y2="827.8086"/><line style="stroke:#181818;stroke-width:1.0;stroke-dasharray:5.0,5.0;" x1="229" x2="229" y1="175.5977" y2="827.8086"/><line style="stroke:#181818;stroke-width:1.0;stroke-dasharray:5.0,5.0;" x1="580" x2="580" y1="175.5977" y2="827.8086"/><line style="stroke:#181818;stroke-width:1.0;stroke-dasharray:5.0,5.0;" x1="928" x2="928" y1="175.5977" y2="827.8086"/><line style="stroke:#181818;stroke-width:1.0;stroke-dasharray:5.0,5.0;" x1="1308" x2="1308" y1="175.5977" y2="827.8086"/><text fill="#000000" font-family="sans-serif" font-size="28" lengthAdjust="spacing" textLength="62" x="10" y="169.6914">User</text><ellipse cx="47" cy="39.6211" fill="#E2E2F0" rx="16" ry="16" style="stroke:#181818;stroke-width:1.0;"/><path d="M47,55.6211 L47,109.6211 M21,71.6211 L73,71.6211 M47,109.6211 L21,139.6211 M47,109.6211 L73,139.6211 " fill="none" style="stroke:#181818;stroke-width:1.0;"/><text fill="#000000" font-family="sans-serif" font-size="28" lengthAdjust="spacing" textLength="96" x="175" y="169.6914">Escrow</text><ellipse cx="229" cy="110.6211" fill="#800080" rx="24" ry="24" style="stroke:#181818;stroke-width:1.0;"/><line style="stroke:#181818;stroke-width:1.0;" x1="205" x2="253" y1="138.6211" y2="138.6211"/><text fill="#000000" font-family="sans-serif" font-size="28" lengthAdjust="spacing" textLength="234" x="458" y="169.6914">Payment Registry</text><ellipse cx="581" cy="110.6211" fill="#0000FF" rx="24" ry="24" style="stroke:#181818;stroke-width:1.0;"/><line style="stroke:#181818;stroke-width:1.0;" x1="557" x2="605" y1="138.6211" y2="138.6211"/><text fill="#000000" font-family="sans-serif" font-size="28" lengthAdjust="spacing" textLength="222" x="812" y="169.6914">Order Processor</text><ellipse cx="929" cy="110.6211" fill="#E2E2F0" rx="24" ry="24" style="stroke:#181818;stroke-width:1.0;"/><polygon fill="#181818" points="921,86.6211,933,76.6211,929,86.6211,933,96.6211,921,86.6211" style="stroke:#181818;stroke-width:2.0;"/><text fill="#000000" font-family="sans-serif" font-size="28" lengthAdjust="spacing" textLength="126" x="1240" y="169.6914">Database</text><path d="M1273,70.6211 C1273,50.6211 1309,50.6211 1309,50.6211 C1309,50.6211 1345,50.6211 1345,70.6211 L1345,122.6211 C1345,142.6211 1309,142.6211 1309,142.6211 C1309,142.6211 1273,142.6211 1273,122.6211 L1273,70.6211 " fill="#E2E2F0" style="stroke:#181818;stroke-width:3.0;"/><path d="M1273,70.6211 C1273,90.6211 1309,90.6211 1309,90.6211 C1309,90.6211 1345,90.6211 1345,70.6211 " fill="none" style="stroke:#181818;stroke-width:3.0;"/><polygon fill="#800080" points="205,230.2188,225,238.2188,205,246.2188,213,238.2188" style="stroke:#800080;stroke-width:2.0;"/><line style="stroke:#800080;stroke-width:2.0;" x1="47" x2="217" y1="238.2188" y2="238.2188"/><text fill="#000000" font-family="sans-serif" font-size="26" lengthAdjust="spacing" textLength="130" x="61" y="228.7344">Sets Order</text><polygon fill="#800080" points="251,288.8398,231,296.8398,251,304.8398,243,296.8398" style="stroke:#800080;stroke-width:2.0;"/><line style="stroke:#800080;stroke-width:2.0;" x1="239" x2="927" y1="296.8398" y2="296.8398"/><text fill="#000000" font-family="sans-serif" font-size="26" lengthAdjust="spacing" textLength="134" x="263" y="287.3555">Gets Order</text><polygon fill="#181818" points="1285,347.4609,1305,355.4609,1285,363.4609,1293,355.4609" style="stroke:#181818;stroke-width:2.0;"/><line style="stroke:#181818;stroke-width:2.0;" x1="929" x2="1297" y1="355.4609" y2="355.4609"/><text fill="#000000" font-family="sans-serif" font-size="26" lengthAdjust="spacing" textLength="302" x="943" y="345.9766">Stores Order as pending</text><line style="stroke:#181818;stroke-width:2.0;" x1="929" x2="1013" y1="414.082" y2="414.082"/><line style="stroke:#181818;stroke-width:2.0;" x1="1013" x2="1013" y1="414.082" y2="440.082"/><line style="stroke:#181818;stroke-width:2.0;" x1="931" x2="1013" y1="440.082" y2="440.082"/><polygon fill="#181818" points="951,432.082,931,440.082,951,448.082,943,440.082" style="stroke:#181818;stroke-width:2.0;"/><text fill="#000000" font-family="sans-serif" font-size="26" lengthAdjust="spacing" textLength="202" x="943" y="404.5977">Processes Order</text><polygon fill="#0000FF" points="603,490.7031,583,498.7031,603,506.7031,595,498.7031" style="stroke:#0000FF;stroke-width:2.0;"/><line style="stroke:#0000FF;stroke-width:2.0;" x1="591" x2="927" y1="498.7031" y2="498.7031"/><text fill="#000000" font-family="sans-serif" font-size="26" lengthAdjust="spacing" textLength="198" x="615" y="489.2188">Transfers funds</text><polygon fill="#0000FF" points="69,549.3242,49,557.3242,69,565.3242,61,557.3242" style="stroke:#0000FF;stroke-width:2.0;"/><line style="stroke:#0000FF;stroke-width:2.0;" x1="57" x2="579" y1="557.3242" y2="557.3242"/><text fill="#000000" font-family="sans-serif" font-size="26" lengthAdjust="spacing" textLength="198" x="81" y="547.8398">Transfers funds</text><polygon fill="#0000FF" points="603,607.9453,583,615.9453,603,623.9453,595,615.9453" style="stroke:#0000FF;stroke-width:2.0;"/><line style="stroke:#0000FF;stroke-width:2.0;" x1="591" x2="927" y1="615.9453" y2="615.9453"/><text fill="#000000" font-family="sans-serif" font-size="26" lengthAdjust="spacing" textLength="300" x="615" y="606.4609">Sends proof of payment</text><polygon fill="#800080" points="251,666.5664,231,674.5664,251,682.5664,243,674.5664" style="stroke:#800080;stroke-width:2.0;"/><line style="stroke:#800080;stroke-width:2.0;" x1="239" x2="579" y1="674.5664" y2="674.5664"/><text fill="#000000" font-family="sans-serif" font-size="26" lengthAdjust="spacing" textLength="300" x="263" y="665.082">Sends proof of payment</text><polygon fill="#800080" points="905,725.1875,925,733.1875,905,741.1875,913,733.1875" style="stroke:#800080;stroke-width:2.0;"/><line style="stroke:#800080;stroke-width:2.0;" x1="229" x2="917" y1="733.1875" y2="733.1875"/><text fill="#000000" font-family="sans-serif" font-size="26" lengthAdjust="spacing" textLength="140" x="243" y="723.7031">Send funds</text><polygon fill="#181818" points="1285,783.8086,1305,791.8086,1285,799.8086,1293,791.8086" style="stroke:#181818;stroke-width:2.0;"/><line style="stroke:#181818;stroke-width:2.0;" x1="929" x2="1297" y1="791.8086" y2="791.8086"/><text fill="#000000" font-family="sans-serif" font-size="26" lengthAdjust="spacing" textLength="332" x="943" y="782.3242">Stores Order as completed</text><!--SRC=[VL2zReCm4Dxz52UOkxOAGwQYJX4eXAdgOEnpWW8sEXkrl7tFb2QbL9KioxhlztnfDO9nBZJkGqWL747jaK1wg0NFe0gIhXO3fDYe9sC4sj262NAloBr7NWxfCDBG8KCQea_KvU62X6CFwMw7ZtTTKigfvpSSyTpwG5CIFSeZf4qtuYnD3Xp9YGTvHKg4SZQGwo0fI7Epafn2xntDmg8KMWRPI8_ml3nkFKGD3wzBkRSz5ysWmi2YQ2IASeE-hD7zpJ8g-MzmGMFom2cjFIz4lhFlQhXEY7knFw-OmOcazGR9WncjzeA7TqQznRSE5SToE3bdWC_mzPkBqQzL_sJcA-BSEp9_1Fwxjd8zAmDg8Ju1]--></g></svg>