<?xml version="1.0" encoding="us-ascii" standalone="no"?><svg xmlns="http://www.w3.org/2000/svg" xmlns:xlink="http://www.w3.org/1999/xlink" contentStyleType="text/css" height="1008px" preserveAspectRatio="none" style="width:1668px;height:1008px;background:#FFFFFF;" version="1.1" viewBox="0 0 1668 1008" width="1668px" zoomAndPan="magnify"><defs/><g><rect fill="#EBC7FF" height="964.5703" style="stroke:#181818;stroke-width:1.2;" width="148.8" x="195.6" y="14.4"/><text fill="#000000" font-family="sans-serif" font-size="31.2" font-weight="bold" lengthAdjust="spacing" textLength="40.8" x="244.8" y="44.5641">L2</text><rect fill="#99E6FF" height="964.5703" style="stroke:#181818;stroke-width:1.2;" width="314.4" x="530.4" y="14.4"/><text fill="#000000" font-family="sans-serif" font-size="31.2" font-weight="bold" lengthAdjust="spacing" textLength="158.4" x="603.6" y="44.5641">Ethereum</text><rect fill="#DDDDDD" height="964.5703" style="stroke:#181818;stroke-width:1.2;" width="706.8" x="946.8" y="14.4"/><text fill="#000000" font-family="sans-serif" font-size="31.2" font-weight="bold" lengthAdjust="spacing" textLength="223.2" x="1188.6" y="44.5641">Market Maker</text><line style="stroke:#181818;stroke-width:1.2;stroke-dasharray:5.0,5.0;" x1="55.2" x2="55.2" y1="210.7172" y2="993.3703"/><line style="stroke:#181818;stroke-width:1.2;stroke-dasharray:5.0,5.0;" x1="270" x2="270" y1="210.7172" y2="993.3703"/><line style="stroke:#181818;stroke-width:1.2;stroke-dasharray:5.0,5.0;" x1="686.4" x2="686.4" y1="210.7172" y2="993.3703"/><line style="stroke:#181818;stroke-width:1.2;stroke-dasharray:5.0,5.0;" x1="1105.2" x2="1105.2" y1="210.7172" y2="993.3703"/><line style="stroke:#181818;stroke-width:1.2;stroke-dasharray:5.0,5.0;" x1="1560" x2="1560" y1="210.7172" y2="993.3703"/><text fill="#000000" font-family="sans-serif" font-size="33.6" lengthAdjust="spacing" textLength="74.4" x="12" y="203.6297">User</text><ellipse cx="56.4" cy="47.5453" fill="#E2E2F0" rx="19.2" ry="19.2" style="stroke:#181818;stroke-width:1.2;"/><path d="M56.4,66.7453 L56.4,131.5453 M25.2,85.9453 L87.6,85.9453 M56.4,131.5453 L25.2,167.5453 M56.4,131.5453 L87.6,167.5453 " fill="none" style="stroke:#181818;stroke-width:1.2;"/><text fill="#000000" font-family="sans-serif" font-size="33.6" lengthAdjust="spacing" textLength="115.2" x="205.2" y="203.6297">Escrow</text><ellipse cx="270" cy="132.7453" fill="#800080" rx="28.8" ry="28.8" style="stroke:#181818;stroke-width:1.2;"/><line style="stroke:#181818;stroke-width:1.2;" x1="241.2" x2="298.8" y1="166.3453" y2="166.3453"/><text fill="#000000" font-family="sans-serif" font-size="33.6" lengthAdjust="spacing" textLength="280.8" x="540" y="203.6297">Payment Registry</text><ellipse cx="687.6" cy="132.7453" fill="#0000FF" rx="28.8" ry="28.8" style="stroke:#181818;stroke-width:1.2;"/><line style="stroke:#181818;stroke-width:1.2;" x1="658.8" x2="716.4" y1="166.3453" y2="166.3453"/><text fill="#000000" font-family="sans-serif" font-size="33.6" lengthAdjust="spacing" textLength="283.2" x="956.4" y="203.6297">Orders Processor</text><ellipse cx="1105.2" cy="132.7453" fill="#E2E2F0" rx="28.8" ry="28.8" style="stroke:#181818;stroke-width:1.2;"/><polygon fill="#181818" points="1095.6,103.9453,1110,91.9453,1105.2,103.9453,1110,115.9453,1095.6,103.9453" style="stroke:#181818;stroke-width:2.4;"/><text fill="#000000" font-family="sans-serif" font-size="33.6" lengthAdjust="spacing" textLength="151.2" x="1478.4" y="203.6297">Database</text><path d="M1518,84.7453 C1518,60.7453 1561.2,60.7453 1561.2,60.7453 C1561.2,60.7453 1604.4,60.7453 1604.4,84.7453 L1604.4,147.1453 C1604.4,171.1453 1561.2,171.1453 1561.2,171.1453 C1561.2,171.1453 1518,171.1453 1518,147.1453 L1518,84.7453 " fill="#E2E2F0" style="stroke:#181818;stroke-width:3.5999999999999996;"/><path d="M1518,84.7453 C1518,108.7453 1561.2,108.7453 1561.2,108.7453 C1561.2,108.7453 1604.4,108.7453 1604.4,84.7453 " fill="none" style="stroke:#181818;stroke-width:3.5999999999999996;"/><polygon fill="#800080" points="241.2,276.2625,265.2,285.8625,241.2,295.4625,250.8,285.8625" style="stroke:#800080;stroke-width:2.4;"/><line style="stroke:#800080;stroke-width:2.4;" x1="56.4" x2="255.6" y1="285.8625" y2="285.8625"/><text fill="#000000" font-family="sans-serif" font-size="31.2" lengthAdjust="spacing" textLength="156" x="73.2" y="274.4813">Sets Order</text><polygon fill="#800080" points="296.4,346.6078,272.4,356.2078,296.4,365.8078,286.8,356.2078" style="stroke:#800080;stroke-width:2.4;"/><line style="stroke:#800080;stroke-width:2.4;" x1="282" x2="1102.8" y1="356.2078" y2="356.2078"/><text fill="#000000" font-family="sans-serif" font-size="31.2" lengthAdjust="spacing" textLength="160.8" x="310.8" y="344.8266">Gets Order</text><polygon fill="#181818" points="1532.4,416.9531,1556.4,426.5531,1532.4,436.1531,1542,426.5531" style="stroke:#181818;stroke-width:2.4;"/><line style="stroke:#181818;stroke-width:2.4;" x1="1105.2" x2="1546.8" y1="426.5531" y2="426.5531"/><text fill="#000000" font-family="sans-serif" font-size="31.2" lengthAdjust="spacing" textLength="362.4" x="1122" y="415.1719">Stores Order as pending</text><line style="stroke:#181818;stroke-width:2.4;" x1="1105.2" x2="1206" y1="496.8984" y2="496.8984"/><line style="stroke:#181818;stroke-width:2.4;" x1="1206" x2="1206" y1="496.8984" y2="528.0984"/><line style="stroke:#181818;stroke-width:2.4;" x1="1107.6" x2="1206" y1="528.0984" y2="528.0984"/><polygon fill="#181818" points="1131.6,518.4984,1107.6,528.0984,1131.6,537.6984,1122,528.0984" style="stroke:#181818;stroke-width:2.4;"/><text fill="#000000" font-family="sans-serif" font-size="31.2" lengthAdjust="spacing" textLength="242.4" x="1122" y="485.5172">Processes Order</text><polygon fill="#0000FF" points="714,588.8438,690,598.4438,714,608.0437,704.4,598.4438" style="stroke:#0000FF;stroke-width:2.4;"/><line style="stroke:#0000FF;stroke-width:2.4;" x1="699.6" x2="1102.8" y1="598.4438" y2="598.4438"/><text fill="#000000" font-family="sans-serif" font-size="31.2" lengthAdjust="spacing" textLength="237.6" x="728.4" y="587.0625">Transfers funds</text><polygon fill="#0000FF" points="82.8,659.1891,58.8,668.7891,82.8,678.3891,73.2,668.7891" style="stroke:#0000FF;stroke-width:2.4;"/><line style="stroke:#0000FF;stroke-width:2.4;" x1="68.4" x2="685.2" y1="668.7891" y2="668.7891"/><text fill="#000000" font-family="sans-serif" font-size="31.2" lengthAdjust="spacing" textLength="237.6" x="97.2" y="657.4078">Transfers funds</text><polygon fill="#0000FF" points="714,729.5344,690,739.1344,714,748.7344,704.4,739.1344" style="stroke:#0000FF;stroke-width:2.4;"/><line style="stroke:#0000FF;stroke-width:2.4;" x1="699.6" x2="1102.8" y1="739.1344" y2="739.1344"/><text fill="#000000" font-family="sans-serif" font-size="31.2" lengthAdjust="spacing" textLength="360" x="728.4" y="727.7531">Sends proof of payment</text><polygon fill="#800080" points="296.4,799.8797,272.4,809.4797,296.4,819.0797,286.8,809.4797" style="stroke:#800080;stroke-width:2.4;"/><line style="stroke:#800080;stroke-width:2.4;" x1="282" x2="685.2" y1="809.4797" y2="809.4797"/><text fill="#000000" font-family="sans-serif" font-size="31.2" lengthAdjust="spacing" textLength="360" x="310.8" y="798.0984">Sends proof of payment</text><polygon fill="#800080" points="1076.4,870.225,1100.4,879.825,1076.4,889.425,1086,879.825" style="stroke:#800080;stroke-width:2.4;"/><line style="stroke:#800080;stroke-width:2.4;" x1="270" x2="1090.8" y1="879.825" y2="879.825"/><text fill="#000000" font-family="sans-serif" font-size="31.2" lengthAdjust="spacing" textLength="168" x="286.8" y="868.4438">Send funds</text><polygon fill="#181818" points="1532.4,940.5703,1556.4,950.1703,1532.4,959.7703,1542,950.1703" style="stroke:#181818;stroke-width:2.4;"/><line style="stroke:#181818;stroke-width:2.4;" x1="1105.2" x2="1546.8" y1="950.1703" y2="950.1703"/><text fill="#000000" font-family="sans-serif" font-size="31.2" lengthAdjust="spacing" textLength="398.4" x="1122" y="938.7891">Stores Order as completed</text><!--SRC=[VL2zReCm4Dxz52UOktHe58PCHLqQWP8oLHsCVIGemA6pKSlRzqnfKafL2I7Btx_FjKMeY7n97qeRJmo5GmRje51o1y_t46DfDbMbiFEr7o5rXkazC5A8-u7x1WMo41o28lLdP1nQYBTRVBZfeboFhPpXWAVQUHwZu94V82wR0ITfjDTyGGzxVK6EbA7ECpKGPMoHXSjaq3dYIPdbocglI-qG7kV3jOWguEvrRlUsawO97D6BA3YfB5-XJqjqTxKCIdaMdD6Gt4jAtPrceloJxsguJ0Z3n5ys9l32kdDLc54DdNLABc-COesl7OuIA-5CL85y_TTppaQ_flx9J1V4gNTW_WZyTxQXLfGUhLAV]--></g></svg>